<svg id="Layer_1" data-name="Layer 1" xmlns="http://www.w3.org/2000/svg" viewBox="0 0 1156.79 1409.75"><defs><style>.cls-1{fill:#ff577f;}.cls-2{fill:#fff;}.cls-3{fill:none;}</style></defs><path class="cls-1" d="M394.73,199.52c38.44,1.43,74.63,6.75,111,25.92,33.32,17.57,66,34.5,92.7,61.41,20.26,20.42,38.31,43.55,55.32,67.1,7.37,10.22,11.6,10.17,17,1,27.72-46.78,64.07-84.43,109.24-111.8,18.92-11.46,42-15.7,60-28.34,23.27-16.37,47.94-16.65,73.79-18.84,69.4-5.88,128.76,17.94,185.06,59.08,46.27,33.8,80.94,74.71,99.48,131.15,20.6,62.71,18.19,125,2.48,188.2A676.13,676.13,0,0,1,1131.34,748c-21,36.71-45,71.75-70,105.66-31.67,43-62.39,87.73-99.43,125.23a2146.93,2146.93,0,0,1-175.15,158.56A269.87,269.87,0,0,1,669,1193c-27.09,5.37-44.4-12.88-64.21-23-102.82-52.4-187.6-129.29-261.45-220.37-9.91-12.21-27.67-19.81-32.81-33.33-9.71-25.54-34.21-35.57-46-58.52-13-25.18-30.92-47.47-46.11-71.44-14.81-23.39-31.22-46.09-42.83-71.2-35.3-76.3-65.86-155.48-63.93-241.66,1.08-48.43,13.75-97,41.29-138.57,48.81-73.71,117.71-115,199.18-134.9C365.63,196.69,380.49,199.52,394.73,199.52Z" transform="translate(-95.61 -195.12)"/><path class="cls-2" d="M427.57,264.86c33.75,1.24,65.53,5.91,97.46,22.72,29.25,15.4,58,30.25,81.39,53.84,17.78,17.89,33.64,38.18,48.57,58.82,6.47,9,10.18,8.91,14.93.91,24.33-41,56.25-74,95.91-98,16.61-10.05,36.9-13.77,52.68-24.85,20.43-14.35,42.08-14.6,64.78-16.51,60.94-5.16,113.05,15.73,162.48,51.79,40.63,29.63,71.07,65.5,87.36,115,18.08,55,16,109.57,2.17,165a592.46,592.46,0,0,1-61,152.17c-18.45,32.18-39.53,62.9-61.45,92.63-27.81,37.71-54.78,76.91-87.3,109.79a1884.23,1884.23,0,0,1-153.79,139,237.12,237.12,0,0,1-103.39,48.64c-23.78,4.71-39-11.29-56.37-20.14-90.28-45.94-164.72-113.34-229.56-193.19-8.7-10.71-24.3-17.37-28.81-29.22-8.52-22.39-30-31.19-40.41-51.31-11.39-22.07-27.15-41.61-40.48-62.63-13-20.5-27.42-40.41-37.61-62.42C204.16,650,177.33,580.56,179,505c.95-42.45,12.07-85,36.25-121.47,42.87-64.63,103.36-100.87,174.89-118.28C402,262.37,415.07,264.86,427.57,264.86Z" transform="translate(-95.61 -195.12)"/><path class="cls-1" d="M445.48,316.39c31.17,1.09,60.54,5.19,90,19.95,27,13.52,53.54,26.56,75.19,47.28,16.43,15.71,31.07,33.52,44.87,51.65,6,7.87,9.4,7.83,13.79.8,22.48-36,52-65,88.6-86.07,15.35-8.82,34.09-12.08,48.66-21.81,18.88-12.61,38.88-12.82,59.85-14.51,56.29-4.52,104.44,13.81,150.1,45.48,37.53,26,65.66,57.52,80.7,101,16.71,48.28,14.75,96.22,2,144.88A505.21,505.21,0,0,1,1043,738.63c-17,28.27-36.52,55.24-56.78,81.35-25.68,33.11-50.6,67.53-80.64,96.41a1712.08,1712.08,0,0,1-142.07,122.06A224.21,224.21,0,0,1,668,1081.17c-22,4.14-36-9.91-52.08-17.68-83.4-40.34-152.17-99.53-212.07-169.65-8-9.4-22.44-15.25-26.61-25.66-7.87-19.66-27.75-27.38-37.34-45-10.52-19.39-25.08-36.55-37.39-55-12-18-25.33-35.49-34.75-54.81-28.63-58.75-53.41-119.7-51.85-186C216.75,490,227,452.62,249.36,420.6,289,363.85,344.84,332,410.92,316.74,421.88,314.21,433.93,316.39,445.48,316.39Z" transform="translate(-95.61 -195.12)"/><path class="cls-2" d="M726,1079.55c-15.35-38.34-66.09-224-51.32-261.94,15.16-39,109.6-86.51,138.34-114.41,25.9-25.14,23.42-64.62,5-93.79,5.24-12.48,8-25.88,6.77-39.74-1.65-18.63-10.46-34.83-21.23-49.6-3.46-4.79-7.09-9.37-10.81-13.84h0a23.79,23.79,0,0,0-17.83-9.09c-6.91-2.37-15.06-1.15-21.47,2.78l-14,8.62L714.11,524l-41.73,25.58q-9.84,6-19.64,12l-4.51,2.77-1.41.86c-1.29.63-2.58,1.18-3.9,1.71l-.92.36c-1.14.12-4.53-.26-3.36,0L637,567c1.83.2-3.87-1.32-4.92-1.81-2.22-1-4.37-2.11-6.46-3.3-.28-.15-1.53-.92-2.24-1.33s-1.47-1-1.69-1.07c-11.05-7.14-22.12-14.29-33.9-20.19-22.92-11.42-49.77-18.91-75.5-14.72-29.2,4.76-55.59,22-80.31,37.36-2,1.27-3.95,2.65-5.94,3.95L364.3,438.62s-53,146.55-25.26,234.91c-1,4.17-2,8.29-2.64,12.66-4.69,34.53,3.14,65.22,15.29,94.77,8.73,21.25,22.5,39.95,39.44,55.48,6.52,6,10.55,12.48,14.09,20.73,4.93,11.46-1.23,42.48,2.14,54.53M584.69,605.63a16.65,16.65,0,1,1,3.7-23.26A16.65,16.65,0,0,1,584.69,605.63Z" transform="translate(-95.61 -195.12)"/><path class="cls-3" d="M415.33,278.09c-12.69,0-25.94-2.39-38,.4-72.67,16.81-134.12,51.79-177.65,114.2C175.12,427.89,163.83,469,162.86,510c-1.71,72.95,25.54,140,57,204.57,10.36,21.25,25,40.48,38.2,60.27,13.55,20.29,29.56,39.16,41.12,60.47,10.55,19.43,32.4,27.92,41.06,49.54,4.58,11.45,20.42,17.88,29.26,28.22,65.87,77.1,141.48,142.18,233.18,186.54,17.67,8.54,33.11,24,57.27,19.44a246.32,246.32,0,0,0,105-47A1884.45,1884.45,0,0,0,921.21,937.84c33-31.75,60.43-69.59,88.67-106,22.27-28.71,43.68-58.37,62.43-89.44a555.91,555.91,0,0,0,61.92-146.93c14-53.51,16.17-106.22-2.2-159.31-16.54-47.78-47.46-82.4-88.73-111-50.21-34.82-103.15-55-165-50-23.06,1.85-45.06,2.09-65.81,15.95-16,10.7-36.63,14.29-53.51,24-40.28,23.17-72.7,55-97.42,94.64-4.82,7.72-8.59,7.77-15.17-.88C631.18,388.89,615.07,369.3,597,352c-23.81-22.78-53-37.11-82.68-52C481.9,283.81,449.62,279.3,415.33,278.09ZM325,1408.84c2.93,52.36,13.69,98.94,43.24,139.83C424.09,1625.9,532,1625,588.83,1537c35.57-55,47.86-114.79,34-179.26-11.45-53.28-33.71-100.28-82.84-128.83-37.22-21.63-76.67-25.14-115.29-3.28C352.42,1266.49,329.7,1334.25,325,1408.84Zm18.53-324.13c3.52-28.5-10.91-57.29-30.27-82.38-31.61-41-87-53.16-143-15.9C109.3,1027,76.91,1138.4,107,1206c35.37,79.36,113.14,88.68,168.44,42.74C324.38,1208,345.94,1153.89,343.55,1084.71Z" transform="translate(-95.61 -195.12)"/><path class="cls-1" d="M325,1408.84c4.68-74.59,27.4-142.35,99.69-183.25,38.62-21.86,78.07-18.35,115.29,3.28,49.13,28.55,71.39,75.55,82.84,128.83,13.85,64.47,1.56,124.23-34,179.26-56.88,88-164.74,88.94-220.57,11.71C338.71,1507.78,328,1461.2,325,1408.84Z" transform="translate(-95.61 -195.12)"/><path class="cls-1" d="M696.34,1393.49c3.4-53.43,11.34-97.32,37.71-135.63,35.76-52,92.87-75.94,144.24-58.24,42.7,14.72,72.11,44.35,93.5,85.13,33.15,63.17,35.22,127.59,13.58,192.89-17.61,53.14-51.67,93.58-108.79,108.1-29.92,7.61-58.71.42-84.81-14.72C720.49,1529.68,703.35,1460.17,696.34,1393.49Z" transform="translate(-95.61 -195.12)"/><path class="cls-1" d="M343.55,1084.71c2.39,69.18-19.17,123.31-68.11,164-55.3,45.94-133.07,36.62-168.44-42.74-30.09-67.55,2.3-179,63.29-219.52,56-37.26,111.38-25.08,143,15.9C332.64,1027.42,347.07,1056.21,343.55,1084.71Z" transform="translate(-95.61 -195.12)"/><path class="cls-1" d="M1004.14,1106.2c2.13-52.6,14-95.19,57.82-124.12,32.1-21.18,86.66-16.39,116.81,9.2,65,55.14,87.52,124.74,65.33,208-18.31,68.78-98.09,97.36-152.53,63.68C1030,1224.88,1009.61,1168.49,1004.14,1106.2Z" transform="translate(-95.61 -195.12)"/><path class="cls-2" d="M440.38,430.8c-6,2.57-9.18,8.71-7.54,14.4,1.78,6.2,8.79,10.43,16,9.14,2.4-2.4,5.66-4.4,7-7.29,2.49-5.29,1.62-10.9-2.6-14.34C450.18,430.18,444.4,429.06,440.38,430.8Z" transform="translate(-95.61 -195.12)"/><path class="cls-2" d="M978.87,527.1c-5.3,5.58-5.42,10.51.54,14a10.86,10.86,0,0,0,9.06.18,8,8,0,0,0,4.2-9.24C991.22,525,984.78,523.88,978.87,527.1Z" transform="translate(-95.61 -195.12)"/><path class="cls-2" d="M883.06,393.82c.17,2.21,5.37,6.76,7.74,6.77,3.7,0,7.57-3.33,7.86-6.59.57-6.28-1.5-8.29-7.37-8.12C887.43,386.13,882.82,390.59,883.06,393.82Z" transform="translate(-95.61 -195.12)"/><path class="cls-2" d="M311.05,342.17c3.61,1.73,7.29,3.34,10.82,5.21,11.89,6.31,24.84,8.1,38,8.5,6.23.19,12.52-.89,18.75-1.62,14.23-1.67,26.92-7.31,38.65-15.31,3.05-2.08,5.91-2.67,9.47-.66,9.41,5.28,19.24,9.8,30.14,10.73,15.55,1.32,30-2.25,42.91-11.23,5.25-3.64,6.8-3.51,11.31,1,6.89,6.93,15.64,11,24.68,13.44,7.45,2,15.6,1.91,23.43,1.89a40.35,40.35,0,0,0,21.49-6.47,56.85,56.85,0,0,1,5.56-3.21c-18.7-13-39.25-23.19-60.11-33.63-32.85-16.44-65.56-21-100.29-22.23-12.87,0-26.29-2.43-38.5.4-34.44,8-66.26,20.16-95,37.15l1.21,1.07C299.07,332.2,304.63,337.19,311.05,342.17Z" transform="translate(-95.61 -195.12)"/><path class="cls-2" d="M944.44,791c3.53,3.9,6.38,3.5,9.11-1,3.46-5.68,7-11.34,10.16-17.16,8.93-16.17,21.46-29.5,33.79-43a184.57,184.57,0,0,1,16.89-16.79c7.65-6.46,16-12.09,23.89-18.29,2.12-1.66,4.46-3.81,5.25-6.21a28.88,28.88,0,0,0,1.46-11.54c-.84-8.58-2.42-17.1-9-24.42a37.37,37.37,0,0,0-4.64-3.56c-11-6.07-21.9-3.09-31.52,2.44-13.12,7.55-23.82,17.87-33.34,30.19-10.09,13.06-18.31,27.1-25.77,41.41s-12.06,30.25-17.6,45.58c-2.12,5.83-1,8.1,4.78,10.55A46.24,46.24,0,0,1,944.44,791Z" transform="translate(-95.61 -195.12)"/><path class="cls-2" d="M353.92,767.6c3,12.42,6.44,24.67,11.74,36.35,2,4.5,3.24,8.86,1.16,14.17C360.64,833.89,363,828,360,836c-2.54,6.77-3.22,7-5,14-.62,2.43-1.41,3.56-2,6,68.72,72.19,134.35,171.28,225.26,215.25,21,10.17,39.43,28.58,68.21,23.16a293.7,293.7,0,0,0,125.1-56A2245.59,2245.59,0,0,0,957.65,878.58c39.35-37.82,72-82.9,105.63-126.28,12.64-16.3,17.77-33.42,29.72-50.3,1.32-1.86-2.88-9.17-5-10h-4c-10.55-4.1-7,2.19-17.49,5.37-19.08,5.78-35.75,16-50.26,29.71-14,13.23-27.14,27.21-37.27,43.61-8.12,13.13-15.21,26.9-22.64,40.46-1.73,3.16-4.47,3.93-7.14,1.33-4.84-4.71-9.35-9.78-14.39-14.26a109.7,109.7,0,0,0-38.87-22.76,337.21,337.21,0,0,0-33.34-9.1c-7.16-1.55-14.66-1.86-22-2.09-6-.19-11.93.48-17.89.93-7.53.58-15.23.49-22.52,2.18-18.31,4.25-34.07,13.46-47.37,27.82-12.15,13.07-15.77,29.36-17.25,46.35-1,11,1.06,22,4.25,32.33,3.25,10.58,7.3,21.21,12.9,30.7,7.33,12.42,16.93,23.47,24.79,35.6,6.26,9.65,8.66,20.62,4.68,31.85-2.3,6.47-6.18,12.35-9,18.66-6.28,14.18-12.3,28.48-18.51,42.69-.43,1-1.59,1.65-2.41,2.47-.84-1-2.11-1.84-2.46-3-5-15.92-9.36-32.05-14.9-47.77-4.1-11.65-9.68-22.78-14.59-34.14-4.1-9.49-7.88-19.14-12.39-28.44-4.32-8.92-9.33-17.52-14.17-26.18-5.46-9.79-11-19.52-16.61-29.25C669,852.83,654,825.47,656.88,809s9.48-26.62,18.82-40c9.81-14,16.17-22.75,36.44-40m162,113.74c-7.85,3.56-14.33,1.85-19.25-4.61A14.22,14.22,0,0,1,853.12,823c2.41-5.54,6.18-8.9,12.38-9,10.66-.13,18,5.79,17.5,14.4C882.66,834.56,880.35,839.71,874.14,842.77Z" transform="translate(-95.61 -195.12)"/></svg>