<svg id="Ebene_1" data-name="Ebene 1" xmlns="http://www.w3.org/2000/svg" xmlns:xlink="http://www.w3.org/1999/xlink" viewBox="0 0 109.27 15.64"><defs><style>.cls-1{fill:none;}.cls-2{fill:#2f2f41;}.cls-3{clip-path:url(#clip-path);}.cls-4{fill:#ff577f;}.cls-5{fill:#fff;}</style><clipPath id="clip-path" transform="translate(-5.06 -8.16)"><rect class="cls-1" x="4" y="6" width="14.91" height="19.9"/></clipPath></defs><path class="cls-2" d="M28.07,9.87a6,6,0,0,1,3.48.85A3.38,3.38,0,0,1,33,13.65a4.32,4.32,0,0,1-4.59,4.23,2.42,2.42,0,0,1-.46-.06l-1.31-.29v3.52c0,1.78.2,1.92,1.84,2.16v.31H22.7v-.31c1.6-.24,1.73-.39,1.73-2.18V12.38c0-1.84-.16-2-1.71-2.2V9.87ZM26.65,17.1a4,4,0,0,0,1.24.14c.91,0,2.71-.44,2.71-3.57,0-2.44-1.18-3.34-2.79-3.34a1.86,1.86,0,0,0-.94.18c-.18.13-.22.38-.22.88Z" transform="translate(-5.06 -8.16)"/><path class="cls-2" d="M35.49,14.67v-.29a5.83,5.83,0,0,1,2.22-5A4.37,4.37,0,0,1,39.9,8.5a2.32,2.32,0,0,1,1.63.61.7.7,0,0,1,.11.85,1.67,1.67,0,0,1-.55.66.41.41,0,0,1-.57,0,3,3,0,0,0-1.89-1.06c-1.14,0-1.1,1.26-1.1,4.21v.94h1.9a.64.64,0,0,1-.18.63H37.53v6c0,1.56.13,1.7,1.5,1.9v.31H34.25v-.31c1.14-.16,1.24-.3,1.24-1.8V15.3H34.22l-.07-.14.33-.49Z" transform="translate(-5.06 -8.16)"/><path class="cls-2" d="M44.6,14.42A4.39,4.39,0,0,1,49,19a4.49,4.49,0,0,1-4.39,4.82A4.42,4.42,0,0,1,40,19.2,4.65,4.65,0,0,1,44.6,14.42Zm-.28.47c-1.21,0-2,1.32-2,3.68,0,2.78,1,4.75,2.4,4.75,1,0,1.91-.72,1.91-3.9C46.68,16.73,45.79,14.89,44.32,14.89Z" transform="translate(-5.06 -8.16)"/><path class="cls-2" d="M54.25,23.55a1.83,1.83,0,0,1-.74.22c-1.36,0-2.14-.76-2.14-2.45v-6H50.08l0-.11.32-.52h1V12.86a14.22,14.22,0,0,0,1.89-1.43l.2,0c0,.54-.07,1.87-.06,3.22h2a.77.77,0,0,1-.1.63H53.4v5.52c0,1.62.6,1.94,1.17,1.94a2.31,2.31,0,0,0,.93-.22l.1.3Z" transform="translate(-5.06 -8.16)"/><path class="cls-2" d="M63.74,21.55a4.85,4.85,0,0,1-3.44,2.22,4.11,4.11,0,0,1-4.08-4.37,5.16,5.16,0,0,1,1.41-3.61,4.09,4.09,0,0,1,3-1.37,3,3,0,0,1,3.15,3c0,.33,0,.48-.1.5a53.78,53.78,0,0,1-5.44.37c0,2.85,1.59,4,3.06,4a3.14,3.14,0,0,0,2.3-1ZM60,15c-.87,0-1.59.81-1.75,2.72,1,0,2.35,0,3-.06.24,0,.38-.07.38-.31C61.67,16.15,61.06,15,60,15Z" transform="translate(-5.06 -8.16)"/><path class="cls-2" d="M70.4,23.52v-.31c1.11-.15,1.17-.33,1.17-2V17.82c0-1.43-.58-2.15-1.57-2.15a2.82,2.82,0,0,0-1.84.73v5.05c0,1.49.12,1.54,1.18,1.76v.31H64.85v-.31c1.18-.23,1.28-.36,1.28-1.89V17c0-1.14-.12-1.27-1-1.55v-.25a12.86,12.86,0,0,0,3.08-.84c0,.46,0,1,0,1.59.47-.33.87-.63,1.31-.92a2.74,2.74,0,0,1,1.59-.62c1.7,0,2.54,1.28,2.54,3.18v3.86c0,1.47.1,1.56,1.08,1.75v.31Z" transform="translate(-5.06 -8.16)"/><path class="cls-2" d="M75.52,9.87h5.67v.31c-1.61.3-1.76.43-1.76,2.31v3.84a3.69,3.69,0,0,0,1.07-.76,52.72,52.72,0,0,0,4-4.06c.69-.8.57-1-.52-1.23l-.46-.1V9.87h4.78v.31a4.34,4.34,0,0,0-3.11,1.54c-1.07,1.06-2.46,2.42-3.79,3.79,1.53,2,3.53,4.41,4.9,6,1.18,1.33,1.52,1.55,2.66,1.72v.31H85.06c-1.47-1.77-3.48-4.32-4.81-6-.44-.57-.64-.79-.82-.86v4.2c0,1.95.17,2,1.76,2.34v.31H75.52v-.31c1.55-.27,1.73-.38,1.73-2.34V12.5c0-1.92-.17-2.06-1.73-2.32Z" transform="translate(-5.06 -8.16)"/><path class="cls-2" d="M89.16,23.52v-.31c1.15-.19,1.25-.29,1.25-1.89v-10c0-1.43-.07-1.56-1.19-1.79V9.21a14.51,14.51,0,0,0,3.3-.71c0,.41-.08,1.24-.08,2.89v9.93c0,1.58.06,1.68,1.19,1.89v.31Z" transform="translate(-5.06 -8.16)"/><path class="cls-2" d="M104.21,23a15.71,15.71,0,0,0-3.36.78c0-.42.05-1,.05-1.54a4.6,4.6,0,0,1-2.83,1.51c-1.52,0-2.49-1-2.49-2.8V16.55c0-1-.17-1.14-.72-1.28l-.38-.1v-.29a27,27,0,0,0,3.19-.35c0,.62-.06,1.48-.06,3v2.95c0,1.59.75,2,1.57,2a2.31,2.31,0,0,0,1.72-.7V16.66c0-1.06-.21-1.22-.84-1.37l-.49-.11v-.3a22.29,22.29,0,0,0,3.36-.35v6.7c0,1.12.1,1.28.79,1.4l.49.09Z" transform="translate(-5.06 -8.16)"/><path class="cls-2" d="M109.26,14.72a4.12,4.12,0,0,1,1-.3,4,4,0,0,1,4,4.23,5.17,5.17,0,0,1-5.12,5.12A9.09,9.09,0,0,1,106,23.1c0-.51,0-1,0-1.56V11.33c0-1.42-.09-1.56-1.23-1.83V9.21a14,14,0,0,0,3.3-.71c0,.36,0,2.06,0,2.86v3.87ZM108,21.52a1.83,1.83,0,0,0,.12.7,2.05,2.05,0,0,0,1.82,1c1.35,0,2.08-1.5,2.08-4s-1.32-3.81-2.88-3.81a3.41,3.41,0,0,0-1.14.19Z" transform="translate(-5.06 -8.16)"/><g class="cls-3"><g class="cls-3"><path class="cls-4" d="M8.36,8.21a2.67,2.67,0,0,1,1.23.28,4.18,4.18,0,0,1,1,.68,7.27,7.27,0,0,1,.61.74c.08.12.13.12.19,0a3.48,3.48,0,0,1,1.2-1.24c.21-.13.47-.17.67-.31a1.41,1.41,0,0,1,.81-.21,3,3,0,0,1,2,.65,2.85,2.85,0,0,1,1.1,1.45,3.68,3.68,0,0,1,0,2.08,7.64,7.64,0,0,1-.77,1.92,13.11,13.11,0,0,1-.77,1.17,11.48,11.48,0,0,1-1.1,1.38,24.65,24.65,0,0,1-1.94,1.76,3.06,3.06,0,0,1-1.3.61c-.3.06-.49-.14-.71-.25A8.91,8.91,0,0,1,7.8,16.5c-.11-.13-.31-.22-.37-.37s-.37-.39-.51-.65-.34-.52-.5-.79a5.62,5.62,0,0,1-.48-.78,6.11,6.11,0,0,1-.71-2.67A3,3,0,0,1,5.69,9.7a3.54,3.54,0,0,1,2.2-1.49,1.85,1.85,0,0,1,.47,0" transform="translate(-5.06 -8.16)"/><path class="cls-5" d="M8.73,8.93a2.34,2.34,0,0,1,1.08.25,3.37,3.37,0,0,1,.9.6,4.84,4.84,0,0,1,.53.65c.07.09.12.09.17,0a3.08,3.08,0,0,1,1.06-1.09c.18-.11.41-.15.58-.27a1.44,1.44,0,0,1,.72-.19,2.61,2.61,0,0,1,1.79.58,2.51,2.51,0,0,1,1,1.27,3.14,3.14,0,0,1,0,1.82,6.34,6.34,0,0,1-.67,1.69,11.3,11.3,0,0,1-.68,1,10.49,10.49,0,0,1-1,1.21A17.76,17.76,0,0,1,12.53,18a2.57,2.57,0,0,1-1.14.54c-.26.05-.43-.13-.62-.22A8,8,0,0,1,8.23,16.2c-.1-.12-.27-.19-.32-.32s-.33-.35-.45-.57-.3-.46-.44-.69a5.53,5.53,0,0,1-.42-.69A5.34,5.34,0,0,1,6,11.58a2.47,2.47,0,0,1,.4-1.34A3.13,3.13,0,0,1,8.31,8.93a2,2,0,0,1,.42,0" transform="translate(-5.06 -8.16)"/><path class="cls-4" d="M8.93,9.5a2.3,2.3,0,0,1,1,.22,3.23,3.23,0,0,1,.83.52,5.37,5.37,0,0,1,.5.57c.07.09.1.09.15,0a2.78,2.78,0,0,1,1-1c.17-.1.38-.13.54-.24a1.29,1.29,0,0,1,.66-.16,2.48,2.48,0,0,1,1.66.5,2.18,2.18,0,0,1,.89,1.12,2.65,2.65,0,0,1,0,1.6,5.69,5.69,0,0,1-.63,1.48,9.1,9.1,0,0,1-.63.9A8.92,8.92,0,0,1,14,16.13a16.91,16.91,0,0,1-1.57,1.35,2.46,2.46,0,0,1-1,.48c-.25,0-.4-.11-.58-.2a7.23,7.23,0,0,1-2.34-1.88c-.09-.1-.25-.16-.3-.28s-.31-.3-.41-.5-.28-.4-.42-.61a5.48,5.48,0,0,1-.38-.6,4.43,4.43,0,0,1-.57-2.06,2.11,2.11,0,0,1,.37-1.18A2.85,2.85,0,0,1,8.54,9.5a1.7,1.7,0,0,1,.39,0" transform="translate(-5.06 -8.16)"/><path class="cls-4" d="M7.59,21.58a2.3,2.3,0,0,1,1.11-2,1.21,1.21,0,0,1,1.27,0A2,2,0,0,1,10.89,21a2.59,2.59,0,0,1-.38,2,1.43,1.43,0,0,1-2.44.12,2.89,2.89,0,0,1-.48-1.54" transform="translate(-5.06 -8.16)"/><path class="cls-4" d="M11.7,21.41a2.87,2.87,0,0,1,.42-1.5,1.4,1.4,0,0,1,1.59-.65,1.9,1.9,0,0,1,1,.95,2.64,2.64,0,0,1,.15,2.13,1.69,1.69,0,0,1-1.21,1.19,1.17,1.17,0,0,1-.93-.16,2.32,2.32,0,0,1-1.06-2" transform="translate(-5.06 -8.16)"/><path class="cls-4" d="M7.8,18a2.11,2.11,0,0,1-.75,1.82,1.15,1.15,0,0,1-1.87-.48,2.23,2.23,0,0,1,.7-2.42,1.11,1.11,0,0,1,1.58.17A1.28,1.28,0,0,1,7.8,18" transform="translate(-5.06 -8.16)"/><path class="cls-4" d="M15.1,18.23a1.57,1.57,0,0,1,.64-1.37A1.19,1.19,0,0,1,17,17a2.11,2.11,0,0,1,.73,2.3,1.16,1.16,0,0,1-1.69.71,2.1,2.1,0,0,1-1-1.74" transform="translate(-5.06 -8.16)"/></g></g></svg>