<svg id="Layer_1" data-name="Layer 1" xmlns="http://www.w3.org/2000/svg" viewBox="0 0 1326.03 1616"><defs><style>.cls-1{fill:#ff577f;}.cls-2{fill:#fff;}.cls-3{fill:none;}</style></defs><path class="cls-1" d="M353.87,97c44.06,1.63,85.56,7.74,127.23,29.71,38.19,20.14,75.67,39.55,106.27,70.4,23.21,23.4,43.91,49.92,63.41,76.92,8.45,11.7,13.29,11.64,19.49,1.18C702,221.63,743.71,178.47,795.49,147.1c21.68-13.14,48.18-18,68.77-32.49C890.93,95.85,919.2,95.52,948.83,93c79.56-6.73,147.6,20.57,212.14,67.72,53,38.75,92.78,85.65,114,150.35,23.62,71.88,20.85,143.27,2.83,215.73a775.19,775.19,0,0,1-79.58,199c-24.1,42.08-51.62,82.25-80.24,121.12-36.3,49.31-71.52,100.56-114,143.55A2460.64,2460.64,0,0,1,803.27,1172.2a309.22,309.22,0,0,1-135,63.6c-31,6.16-50.9-14.76-73.6-26.33C476.83,1149.41,379.64,1061.28,295,956.87c-11.35-14-31.72-22.71-37.61-38.21-11.12-29.28-39.2-40.77-52.76-67.08-14.87-28.87-35.44-54.42-52.85-81.89-17-26.81-35.79-52.84-49.1-81.62-40.46-87.46-75.49-178.23-73.28-277,1.24-55.51,15.75-111.17,47.32-158.84,56-84.51,134.94-131.89,228.33-154.65C320.52,93.8,337.55,97,353.87,97Z" transform="translate(-10.99 -92)"/><path class="cls-2" d="M391.52,171.93c38.69,1.43,75.12,6.79,111.71,26,33.54,17.65,66.44,34.67,93.3,61.71,20.39,20.52,38.56,43.77,55.68,67.44,7.42,10.26,11.67,10.21,17.11,1,27.9-47,64.49-84.85,109.95-112.35,19-11.52,42.3-15.78,60.38-28.48,23.42-16.45,48.24-16.74,74.26-18.94,69.85-5.9,129.59,18,186.26,59.37,46.57,34,81.46,75.08,100.13,131.81,20.73,63,18.3,125.6,2.48,189.13a678.45,678.45,0,0,1-69.88,174.42c-21.15,36.89-45.32,72.11-70.44,106.19-31.88,43.23-62.8,88.16-100.07,125.85A2161.05,2161.05,0,0,1,786.1,1114.51a271.71,271.71,0,0,1-118.52,55.76c-27.26,5.4-44.69-12.94-64.62-23.08-103.48-52.66-188.81-129.92-263.15-221.45-10-12.28-27.84-19.91-33-33.51-9.76-25.66-34.42-35.74-46.32-58.8-13.06-25.31-31.12-47.71-46.41-71.8-14.91-23.5-31.42-46.32-43.11-71.55-35.52-76.68-66.28-156.25-64.34-242.85,1.09-48.67,13.83-97.46,41.55-139.25,49.13-74.09,118.48-115.63,200.48-135.58C362.24,169.09,377.19,171.93,391.52,171.93Z" transform="translate(-10.99 -92)"/><path class="cls-1" d="M412,231c35.74,1.26,69.4,6,103.21,22.88,31,15.5,61.37,30.44,86.19,54.19,18.83,18,35.62,38.43,51.43,59.21,6.85,9,10.78,9,15.81.92,25.77-41.29,59.57-74.51,101.56-98.66,17.59-10.12,39.08-13.86,55.79-25,21.63-14.45,44.56-14.7,68.6-16.63,64.53-5.18,119.72,15.84,172.06,52.13,43,29.84,75.26,65.94,92.5,115.75,19.16,55.34,16.92,110.29,2.3,166.08A579.74,579.74,0,0,1,1096.94,715c-19.54,32.39-41.87,63.31-65.08,93.24-29.45,38-58,77.42-92.45,110.51a1962.64,1962.64,0,0,1-162.85,139.93,256.88,256.88,0,0,1-109.49,49c-25.18,4.75-41.28-11.36-59.69-20.27-95.6-46.24-174.43-114.08-243.1-194.46-9.21-10.78-25.73-17.48-30.51-29.42-9-22.54-31.8-31.39-42.79-51.64-12.06-22.22-28.75-41.89-42.87-63-13.77-20.64-29-40.68-39.83-62.84-32.81-67.33-61.23-137.21-59.44-213.25,1-42.74,12.78-85.58,38.39-122.29,45.39-65,109.45-101.53,185.2-119C385,228.5,398.81,231,412,231Z" transform="translate(-10.99 -92)"/><path class="cls-2" d="M733.56,1105.82c-17.6-44-75.76-256.75-58.82-300.26,17.37-44.67,125.63-99.18,158.57-131.15C863,645.59,860.16,600.33,839,566.9c6-14.31,9.16-29.67,7.76-45.56-1.88-21.36-12-39.92-24.34-56.86-4-5.49-8.13-10.74-12.38-15.86h0c-5.46-6.62-12.81-10.25-20.44-10.42-7.93-2.72-17.26-1.32-24.61,3.18l-16.12,9.89L720,469,672.15,498.3q-11.29,6.9-22.52,13.81l-5.17,3.18-1.61,1c-1.49.72-3,1.36-4.48,2l-1,.41c-1.31.14-5.2-.29-3.85,0l-1.84-.31c2.09.23-4.44-1.52-5.65-2.08a80.38,80.38,0,0,1-7.4-3.78c-.33-.17-1.76-1.05-2.57-1.52s-1.69-1.09-1.94-1.23c-12.67-8.19-25.36-16.38-38.86-23.15-26.27-13.09-57.05-21.68-86.55-16.86-33.47,5.45-63.72,25.15-92.05,42.82-2.3,1.45-4.53,3-6.82,4.52L319,371.12S258.21,539.11,290,640.4c-1.14,4.77-2.34,9.51-3,14.51-5.38,39.58,3.6,74.77,17.52,108.63,10,24.36,25.8,45.79,45.21,63.6,7.48,6.85,12.1,14.3,16.16,23.77,5.65,13.13-1.41,48.69,2.45,62.5M571.62,562.56a19.09,19.09,0,1,1,4.25-26.66A19.08,19.08,0,0,1,571.62,562.56Z" transform="translate(-10.99 -92)"/><path class="cls-3" d="M377.49,187.11c-14.55,0-29.74-2.75-43.56.45-83.29,19.27-153.73,59.37-203.64,130.91-28.15,40.35-41.1,87.46-42.21,134.45-2,83.62,29.28,160.46,65.36,234.5,11.88,24.36,28.65,46.39,43.79,69.08,15.53,23.26,33.88,44.89,47.14,69.33,12.09,22.27,37.14,32,47.06,56.78C296.68,895.73,314.84,903.1,325,915c75.51,88.38,162.18,163,267.3,213.83,20.25,9.79,38,27.5,65.65,22.28a282.55,282.55,0,0,0,120.38-53.83A2160.34,2160.34,0,0,0,957.37,943.38C995.24,907,1026.64,863.6,1059,821.86c25.53-32.91,50.08-66.91,71.56-102.53a637.2,637.2,0,0,0,71-168.42c16.06-61.34,18.53-121.77-2.53-182.62-19-54.77-54.41-94.46-101.71-127.27-57.56-39.91-118.24-63-189.2-57.32-26.43,2.12-51.64,2.4-75.43,18.28-18.37,12.27-42,16.38-61.34,27.5C725.18,256,688,292.57,659.68,338c-5.53,8.86-9.85,8.91-17.38-1-17.39-22.85-35.85-45.3-56.56-65.11C558.45,245.74,525,229.3,491,212.26,453.8,193.66,416.79,188.49,377.49,187.11ZM274,1483.28c3.36,60,15.68,113.42,49.56,160.29,64,88.53,187.63,87.48,252.84-13.42,40.77-63.08,54.86-131.58,39-205.49-13.12-61.08-38.64-115-95-147.68-42.67-24.79-87.89-28.82-132.16-3.76C305.38,1320.11,279.33,1397.79,274,1483.28Zm21.23-371.54c4-32.68-12.5-65.67-34.69-94.44-36.24-47-99.7-60.94-163.91-18.23-69.91,46.51-107,174.21-72.55,251.64,40.54,91,129.69,101.66,193.08,49C273.22,1253.08,298,1191,295.2,1111.74Z" transform="translate(-10.99 -92)"/><path class="cls-1" d="M274,1483.28c5.36-85.49,31.41-163.17,114.27-210.06,44.27-25.06,89.49-21,132.16,3.76,56.31,32.73,81.83,86.6,95,147.68,15.88,73.91,1.79,142.41-39,205.49-65.21,100.9-188.84,101.95-252.84,13.42C289.65,1596.7,277.33,1543.3,274,1483.28Z" transform="translate(-10.99 -92)"/><path class="cls-1" d="M699.6,1465.69c3.91-61.25,13-111.56,43.23-155.48,41-59.58,106.46-87,165.35-66.75,49,16.87,82.65,50.83,107.18,97.58,38,72.41,40.37,146.26,15.56,221.11-20.19,60.92-59.23,107.27-124.71,123.92-34.29,8.72-67.29.48-97.21-16.87C727.3,1621.8,707.65,1542.13,699.6,1465.69Z" transform="translate(-10.99 -92)"/><path class="cls-1" d="M295.2,1111.74c2.75,79.3-22,141.34-78.07,188-63.39,52.67-152.54,42-193.08-49-34.5-77.43,2.64-205.13,72.55-251.64,64.21-42.71,127.67-28.75,163.91,18.23C282.7,1046.07,299.24,1079.06,295.2,1111.74Z" transform="translate(-10.99 -92)"/><path class="cls-1" d="M1052.44,1136.36c2.45-60.29,16-109.11,66.28-142.27,36.79-24.29,99.34-18.78,133.9,10.54,74.49,63.22,100.32,143,74.89,238.49-21,78.84-112.44,111.6-174.85,73C1082,1272.41,1058.71,1207.77,1052.44,1136.36Z" transform="translate(-10.99 -92)"/><path class="cls-2" d="M406.2,362.15c-6.84,3-10.52,10-8.64,16.51,2,7.11,10.07,12,18.35,10.48,2.75-2.75,6.49-5,8-8.36,2.85-6.06,1.86-12.49-3-16.44C417.43,361.45,410.81,360.16,406.2,362.15Z" transform="translate(-10.99 -92)"/><path class="cls-2" d="M1023.48,472.54c-6.08,6.4-6.22,12,.61,16.09a12.41,12.41,0,0,0,10.39.21c3.44-1.8,5.88-5.4,4.81-10.59C1037.63,470.14,1030.25,468.85,1023.48,472.54Z" transform="translate(-10.99 -92)"/><path class="cls-2" d="M913.65,319.76c.19,2.54,6.15,7.75,8.87,7.77,4.24,0,8.68-3.82,9-7.56.65-7.19-1.72-9.5-8.45-9.31C918.66,311,913.37,316.06,913.65,319.76Z" transform="translate(-10.99 -92)"/><path class="cls-2" d="M258,260.55c4.14,2,8.36,3.83,12.41,6,13.62,7.24,28.47,9.29,43.52,9.75,7.14.21,14.35-1,21.49-1.87,16.31-1.9,30.86-8.37,44.31-17.54,3.49-2.38,6.77-3.06,10.85-.76,10.78,6.05,22.05,11.24,34.55,12.3,17.82,1.52,34.36-2.58,49.19-12.87,6-4.18,7.79-4,13,1.18,7.9,7.95,17.93,12.61,28.29,15.4,8.55,2.3,17.88,2.2,26.87,2.17A46.36,46.36,0,0,0,567,266.87a64.42,64.42,0,0,1,6.37-3.67c-21.44-14.85-45-26.59-68.91-38.56-37.66-18.84-75.15-24.08-115-25.48-14.75,0-30.13-2.78-44.13.46-39.48,9.13-75.95,23.11-108.93,42.58.46.42.93.82,1.39,1.23C244.22,249.13,250.59,254.85,258,260.55Z" transform="translate(-10.99 -92)"/><path class="cls-2" d="M984,775.06c4,4.47,7.31,4,10.44-1.11,4-6.51,8-13,11.65-19.67,10.23-18.54,24.59-33.81,38.72-49.25a218.32,218.32,0,0,1,19.36-19.24c8.78-7.41,18.36-13.86,27.4-21,2.43-1.91,5.11-4.37,6-7.12a33.32,33.32,0,0,0,1.67-13.23c-1-9.84-2.78-19.6-10.32-28a42.21,42.21,0,0,0-5.32-4.08c-12.6-7-25.11-3.55-36.13,2.79-15,8.66-27.3,20.48-38.22,34.61-11.56,15-21,31.06-29.54,47.47S965.92,732,959.56,749.52c-2.42,6.69-1.16,9.29,5.49,12.1A53,53,0,0,1,984,775.06Z" transform="translate(-10.99 -92)"/><path class="cls-2" d="M307.09,748.23c3.43,14.23,7.39,28.28,13.46,41.66,2.35,5.16,3.72,10.16,1.33,16.25-7.08,18.07-4.38,11.33-7.82,20.5-2.91,7.75-3.69,8-5.73,16-.71,2.79-1.62,4.09-2.29,6.88,78.77,82.75,154,196.34,258.21,246.74,24.12,11.67,45.2,32.76,78.19,26.55a336.55,336.55,0,0,0,143.4-64.13A2573.5,2573.5,0,0,0,999.15,875.44c45.11-43.35,82.52-95,121.08-144.75,14.5-18.68,20.38-38.31,34.07-57.66,1.51-2.13-3.3-10.51-5.73-11.46,0,0-4.57,0-4.59,0-12.09-4.71-8,2.51-20,6.16-21.87,6.62-41,18.3-57.62,34-16,15.16-31.11,31.2-42.72,50-9.31,15.05-17.44,30.84-26,46.38-2,3.63-5.13,4.5-8.19,1.53-5.54-5.41-10.72-11.21-16.49-16.35a125.57,125.57,0,0,0-44.56-26.09,383.38,383.38,0,0,0-38.22-10.43c-8.21-1.78-16.8-2.13-25.24-2.4-6.82-.21-13.68.55-20.5,1.07-8.63.67-17.47.56-25.82,2.5-21,4.87-39.06,15.43-54.31,31.88-13.92,15-18.07,33.66-19.77,53.14-1.11,12.66,1.22,25.16,4.87,37.06,3.73,12.13,8.37,24.32,14.8,35.19,8.4,14.23,19.4,26.9,28.41,40.8,7.18,11.07,9.93,23.65,5.36,36.52-2.63,7.41-7.08,14.15-10.29,21.39-7.19,16.26-14.1,32.65-21.22,48.94-.49,1.13-1.82,1.89-2.76,2.82-1-1.12-2.41-2.1-2.82-3.4-5.72-18.25-10.73-36.74-17.08-54.76-4.7-13.35-11.09-26.11-16.72-39.14-4.7-10.88-9-21.94-14.2-32.59-5-10.23-10.7-20.08-16.25-30-6.26-11.22-12.65-22.37-19-33.52-9.37-16.37-26.56-47.73-23.23-66.62,3.3-18.71,10.86-30.51,21.56-45.83,11.26-16.1,18.55-26.07,41.79-45.82M903.42,834.39c-9,4.09-16.43,2.13-22.07-5.28a16.3,16.3,0,0,1-2-17.36c2.76-6.35,7.08-10.2,14.18-10.29,12.23-.16,20.6,6.63,20.06,16.5C913.19,825,910.54,830.88,903.42,834.39Z" transform="translate(-10.99 -92)"/></svg>
