<svg id="Layer_1" data-name="Layer 1" xmlns="http://www.w3.org/2000/svg" viewBox="0 0 1156.79 1409.75"><defs><style>.cls-1{fill:#ff577f;}.cls-2{fill:#fff;}.cls-3{fill:none;}</style></defs><path class="cls-1" d="M394.73,199.52c38.44,1.43,74.63,6.75,111,25.92,33.32,17.57,66,34.5,92.7,61.41,20.26,20.42,38.31,43.55,55.32,67.1,7.37,10.22,11.6,10.17,17,1,27.72-46.78,64.07-84.43,109.24-111.8,18.92-11.46,42-15.7,60-28.34,23.27-16.37,47.94-16.65,73.79-18.84,69.4-5.88,128.76,17.94,185.06,59.08,46.27,33.8,80.94,74.71,99.48,131.15,20.6,62.71,18.19,125,2.48,188.2A676.13,676.13,0,0,1,1131.34,748c-21,36.71-45,71.75-70,105.66-31.67,43-62.39,87.73-99.43,125.23a2146.93,2146.93,0,0,1-175.15,158.56A269.87,269.87,0,0,1,669,1193c-27.09,5.37-44.4-12.88-64.21-23-102.82-52.4-187.6-129.29-261.45-220.37-9.91-12.21-27.67-19.81-32.81-33.33-9.71-25.54-34.21-35.57-46-58.52-13-25.18-30.92-47.47-46.11-71.44-14.81-23.39-31.22-46.09-42.83-71.2-35.3-76.3-65.86-155.48-63.93-241.66,1.08-48.43,13.75-97,41.29-138.57,48.81-73.71,117.71-115,199.18-134.9C365.63,196.69,380.49,199.52,394.73,199.52Z" transform="translate(-95.61 -195.12)"/><path class="cls-2" d="M427.57,264.86c33.75,1.24,65.53,5.91,97.46,22.72,29.25,15.4,58,30.25,81.39,53.84,17.78,17.89,33.64,38.18,48.57,58.82,6.47,9,10.18,8.91,14.93.91,24.33-41,56.25-74,95.91-98,16.61-10.05,36.9-13.77,52.68-24.85,20.43-14.35,42.08-14.6,64.78-16.51,60.94-5.16,113.05,15.73,162.48,51.79,40.63,29.63,71.07,65.5,87.36,115,18.08,55,16,109.57,2.17,165a592.46,592.46,0,0,1-61,152.17c-18.45,32.18-39.53,62.9-61.45,92.63-27.81,37.71-54.78,76.91-87.3,109.79a1884.23,1884.23,0,0,1-153.79,139,237.12,237.12,0,0,1-103.39,48.64c-23.78,4.71-39-11.29-56.37-20.14-90.28-45.94-164.72-113.34-229.56-193.19-8.7-10.71-24.3-17.37-28.81-29.22-8.52-22.39-30-31.19-40.41-51.31-11.39-22.07-27.15-41.61-40.48-62.63-13-20.5-27.42-40.41-37.61-62.42C204.16,650,177.33,580.56,179,505c.95-42.45,12.07-85,36.25-121.47,42.87-64.63,103.36-100.87,174.89-118.28C402,262.37,415.07,264.86,427.57,264.86Z" transform="translate(-95.61 -195.12)"/><path class="cls-1" d="M445.48,316.39c31.17,1.09,60.54,5.19,90,19.95,27,13.52,53.54,26.56,75.19,47.28,16.43,15.71,31.07,33.52,44.87,51.65,6,7.87,9.4,7.83,13.79.8,22.48-36,52-65,88.6-86.07,15.35-8.82,34.09-12.08,48.66-21.81,18.88-12.61,38.88-12.82,59.85-14.51,56.29-4.52,104.44,13.81,150.1,45.48,37.53,26,65.66,57.52,80.7,101,16.71,48.28,14.75,96.22,2,144.88A505.21,505.21,0,0,1,1043,738.63c-17,28.27-36.52,55.24-56.78,81.35-25.68,33.11-50.6,67.53-80.64,96.41a1712.08,1712.08,0,0,1-142.07,122.06A224.21,224.21,0,0,1,668,1081.17c-22,4.14-36-9.91-52.08-17.68-83.4-40.34-152.17-99.53-212.07-169.65-8-9.4-22.44-15.25-26.61-25.66-7.87-19.66-27.75-27.38-37.34-45-10.52-19.39-25.08-36.55-37.39-55-12-18-25.33-35.49-34.75-54.81-28.63-58.75-53.41-119.7-51.85-186C216.75,490,227,452.62,249.36,420.6,289,363.85,344.84,332,410.92,316.74,421.88,314.21,433.93,316.39,445.48,316.39Z" transform="translate(-95.61 -195.12)"/><path class="cls-2" d="M722.27,1081.92c-13.06-32.61-56.21-190.49-43.64-222.78,12.89-33.14,93.21-73.58,117.65-97.3,22-21.38,19.92-55,4.23-79.77,4.46-10.62,6.8-22,5.77-33.8-1.41-15.85-8.9-29.62-18.06-42.19-2.94-4.07-6-8-9.19-11.77h0a20.28,20.28,0,0,0-15.17-7.74,22,22,0,0,0-18.26,2.37l-12,7.33-21.46,13.15q-17.75,10.86-35.49,21.76-8.37,5.12-16.71,10.24l-3.83,2.36-1.19.73c-1.1.53-2.2,1-3.32,1.45l-.79.31c-1,.1-3.85-.22-2.85,0l-1.37-.23c1.55.18-3.29-1.12-4.19-1.54a59,59,0,0,1-5.49-2.81c-.24-.12-1.31-.78-1.91-1.12s-1.25-.81-1.44-.91c-9.39-6.08-18.81-12.16-28.83-17.18-19.49-9.71-42.32-16.08-64.21-12.51-24.84,4-47.28,18.66-68.3,31.77-1.71,1.08-3.36,2.25-5.06,3.36L414.68,536.81S369.59,661.45,393.2,736.6A109.84,109.84,0,0,0,391,747.37c-4,29.36,2.68,55.47,13,80.6a133,133,0,0,0,33.55,47.18c5.54,5.09,9,10.62,12,17.64,4.19,9.74-1.05,36.13,1.81,46.37M602.12,678.85a14.16,14.16,0,1,1,3.15-19.78A14.16,14.16,0,0,1,602.12,678.85Z" transform="translate(-95.61 -195.12)"/><path class="cls-3" d="M415.33,278.09c-12.69,0-25.94-2.39-38,.4-72.67,16.81-134.12,51.79-177.65,114.2C175.12,427.89,163.83,469,162.86,510c-1.71,72.95,25.54,140,57,204.57,10.36,21.25,25,40.48,38.2,60.27,13.55,20.29,29.56,39.16,41.12,60.47,10.55,19.43,32.4,27.92,41.06,49.54,4.58,11.45,20.42,17.88,29.26,28.22,65.87,77.1,141.48,142.18,233.18,186.54,17.67,8.54,33.11,24,57.27,19.44a246.32,246.32,0,0,0,105-47A1884.45,1884.45,0,0,0,921.21,937.84c33-31.75,60.43-69.59,88.67-106,22.27-28.71,43.68-58.37,62.43-89.44a555.91,555.91,0,0,0,61.92-146.93c14-53.51,16.17-106.22-2.2-159.31-16.54-47.78-47.46-82.4-88.73-111-50.21-34.82-103.15-55-165-50-23.06,1.85-45.06,2.09-65.81,15.95-16,10.7-36.63,14.29-53.51,24-40.28,23.17-72.7,55-97.42,94.64-4.82,7.72-8.59,7.77-15.17-.88C631.18,388.89,615.07,369.3,597,352c-23.81-22.78-53-37.11-82.68-52C481.9,283.81,449.62,279.3,415.33,278.09ZM325,1408.84c2.93,52.36,13.69,98.94,43.24,139.83C424.09,1625.9,532,1625,588.83,1537c35.57-55,47.86-114.79,34-179.26-11.45-53.28-33.71-100.28-82.84-128.83-37.22-21.63-76.67-25.14-115.29-3.28C352.42,1266.49,329.7,1334.25,325,1408.84Zm18.53-324.13c3.52-28.5-10.91-57.29-30.27-82.38-31.61-41-87-53.16-143-15.9C109.3,1027,76.91,1138.4,107,1206c35.37,79.36,113.14,88.68,168.44,42.74C324.38,1208,345.94,1153.89,343.55,1084.71Z" transform="translate(-95.61 -195.12)"/><path class="cls-1" d="M325,1408.84c4.68-74.59,27.4-142.35,99.69-183.25,38.62-21.86,78.07-18.35,115.29,3.28,49.13,28.55,71.39,75.55,82.84,128.83,13.85,64.47,1.56,124.23-34,179.26-56.88,88-164.74,88.94-220.57,11.71C338.71,1507.78,328,1461.2,325,1408.84Z" transform="translate(-95.61 -195.12)"/><path class="cls-1" d="M696.34,1393.49c3.4-53.43,11.34-97.32,37.71-135.63,35.76-52,92.87-75.94,144.24-58.24,42.7,14.72,72.11,44.35,93.5,85.13,33.15,63.17,35.22,127.59,13.58,192.89-17.61,53.14-51.67,93.58-108.79,108.1-29.92,7.61-58.71.42-84.81-14.72C720.49,1529.68,703.35,1460.17,696.34,1393.49Z" transform="translate(-95.61 -195.12)"/><path class="cls-1" d="M343.55,1084.71c2.39,69.18-19.17,123.31-68.11,164-55.3,45.94-133.07,36.62-168.44-42.74-30.09-67.55,2.3-179,63.29-219.52,56-37.26,111.38-25.08,143,15.9C332.64,1027.42,347.07,1056.21,343.55,1084.71Z" transform="translate(-95.61 -195.12)"/><path class="cls-1" d="M1004.14,1106.2c2.13-52.6,14-95.19,57.82-124.12,32.1-21.18,86.66-16.39,116.81,9.2,65,55.14,87.52,124.74,65.33,208-18.31,68.78-98.09,97.36-152.53,63.68C1030,1224.88,1009.61,1168.49,1004.14,1106.2Z" transform="translate(-95.61 -195.12)"/><path class="cls-2" d="M440.38,430.8c-6,2.57-9.18,8.71-7.54,14.4,1.78,6.2,8.79,10.43,16,9.14,2.4-2.4,5.66-4.4,7-7.29,2.49-5.29,1.62-10.9-2.6-14.34C450.18,430.18,444.4,429.06,440.38,430.8Z" transform="translate(-95.61 -195.12)"/><path class="cls-2" d="M702.87,527.1c-5.3,5.58-5.42,10.51.54,14a10.86,10.86,0,0,0,9.06.18,8,8,0,0,0,4.2-9.24C715.22,525,708.78,523.88,702.87,527.1Z" transform="translate(-95.61 -195.12)"/><path class="cls-2" d="M1015.06,393.82c.17,2.21,5.37,6.76,7.74,6.77,3.7,0,7.57-3.33,7.86-6.59.57-6.28-1.5-8.29-7.37-8.12C1019.43,386.13,1014.82,390.59,1015.06,393.82Z" transform="translate(-95.61 -195.12)"/><path class="cls-2" d="M1116.21,550.23c-9.35-6.92-19.34-12-31.39-12-5.44,0-9.9-2.1-12.36-7.41a68.68,68.68,0,0,0-21.69-26.47c-12.91-9.59-27.74-14.49-43.72-15.41a81.61,81.61,0,0,0-27.32,3.51,79.23,79.23,0,0,0-33.44,19.6c-7.47,7.16-13.61,15.26-17.48,24.95a5.15,5.15,0,0,1-4.83,3.63,130.41,130.41,0,0,0-15.55,2.53c-3.55,1.37-7.38,2.27-10.6,4.2a58.06,58.06,0,0,0-25.31,30.68c-1,2.86-2.94,4.61-5.79,4.36-6.26-.54-11.6,1.83-16.86,4.59-9.32,4.88-13.65,13.34-14.66,23.17-.85,8.24.8,16.08,6.4,23.14,5.95,7.5,13.38,11,22.44,12.09,8.85,1,16.27-2.41,23.06-7.56,3-2.25,6.14-2.55,8.91-.58,6.77,4.81,14.72,6.3,22.44,7.17,11.45,1.27,22.1-2.33,32.06-8.25,2-1.2,5.63-1,7.94-.08,6.73,2.73,12.94,6.86,19.79,9.13,8.87,3,18.24,3.57,27.66,3.21a71.27,71.27,0,0,0,29.68-7.87c3.89-2,6.75-1,9.75,1.3a25.15,25.15,0,0,0,2.53,2c8.16,4.68,16.71,8.46,26.22,8.94a62.23,62.23,0,0,0,22.44-2.74,489.77,489.77,0,0,0,31.72-86A47.32,47.32,0,0,0,1116.21,550.23Z" transform="translate(-95.61 -195.12)"/><path class="cls-2" d="M311.05,342.17c3.61,1.73,7.29,3.34,10.82,5.21,11.89,6.31,24.84,8.1,38,8.5,6.23.19,12.52-.89,18.75-1.62,14.23-1.67,26.92-7.31,38.65-15.31,3.05-2.08,5.91-2.67,9.47-.66,9.41,5.28,19.24,9.8,30.14,10.73,15.55,1.32,30-2.25,42.91-11.23,5.25-3.64,6.8-3.51,11.31,1,6.89,6.93,15.64,11,24.68,13.44,7.45,2,15.6,1.91,23.43,1.89a40.35,40.35,0,0,0,21.49-6.47,56.85,56.85,0,0,1,5.56-3.21c-18.7-13-39.25-23.19-60.11-33.63-32.85-16.44-65.56-21-100.29-22.23-12.87,0-26.29-2.43-38.5.4-34.44,8-66.26,20.16-95,37.15l1.21,1.07C299.07,332.2,304.63,337.19,311.05,342.17Z" transform="translate(-95.61 -195.12)"/><path class="cls-2" d="M880.24,301.62c.65,8.1-1.33,15.73-3.11,23.22-1.86,7.8-6,15-9.62,23a8,8,0,0,1-1,2.62c-6.45,7.42-12.81,14.93-19.52,22.11-7.89,8.43-18.31,13-28.59,17.6-12,5.31-25,5.9-37.83,5.93-6.87,0-13.82-1.77-20.6-3.33a74.86,74.86,0,0,1-28.13-13.51c-4-3-8.15-6-12.37-8.83-.59-.39-2.85.36-2.87.71-.19,2.25-.52,4.72.2,6.77a172,172,0,0,0,8,20c3.67,7.32,7.5,14.79,12.61,21.1,6.19,7.64,13.6,14.37,20.85,21.09,10.08,9.35,22.46,14.61,35.17,19.47,13.54,5.18,27.63,5.13,41.66,5.79a67.71,67.71,0,0,0,16.13-1.67c11.85-2.36,23.49-6.05,34-11.86,16.6-9.19,31.38-20.94,41.53-37.42,5-8.1,9.36-16.58,13.86-25a27.45,27.45,0,0,0,2.59-7.13c1.5-6.91,2.81-13.86,4.06-20.81.81-4.46,1.88-8.95,1.92-13.43a85.85,85.85,0,0,0-1.64-14.42c-1.3-7.93-2.68-15.86-4.32-23.72-2.29-10.93-7.81-20.55-13.7-29.76a101.24,101.24,0,0,0-8.38-11.08,228.16,228.16,0,0,0-26.32.5c-6.21.49-12.35.89-18.4,1.45.31,1,.77,1.85,1.06,2.82C880.11,283,879.5,292.34,880.24,301.62Z" transform="translate(-95.61 -195.12)"/><path class="cls-2" d="M908.09,836.52c3,3.31,5.42,3,7.74-.83,2.95-4.83,5.92-9.65,8.65-14.6,7.59-13.75,18.25-25.08,28.73-36.53a159.92,159.92,0,0,1,14.36-14.28c6.51-5.5,13.62-10.28,20.33-15.55,1.8-1.42,3.79-3.24,4.47-5.29a24.64,24.64,0,0,0,1.23-9.81c-.71-7.3-2.05-14.54-7.65-20.77a32.61,32.61,0,0,0-4-3c-9.35-5.16-18.63-2.63-26.8,2.08-11.16,6.42-20.26,15.19-28.36,25.68a232.88,232.88,0,0,0-21.92,35.21c-6.36,12.21-10.25,25.73-15,38.77-1.8,5-.86,6.88,4.07,9A39.37,39.37,0,0,1,908.09,836.52Z" transform="translate(-95.61 -195.12)"/><path class="cls-2" d="M405.85,816.61c2.55,10.56,5.48,21,10,30.91,1.74,3.83,2.76,7.53,1,12.05-5.26,13.41-10,27-14.79,40.61-2.05,5.79-4.13,11.61-5.64,17.56-.52,2.06-.92,4.16-1.42,6.24,58.44,61.4,124.35,113.48,201.67,150.88,17.89,8.65,33.54,24.3,58,19.69A249.7,249.7,0,0,0,761.06,1047,1908.72,1908.72,0,0,0,919.32,911c33.47-32.16,61.22-70.5,89.84-107.4,11.45-14.76,22.67-29.78,33.44-45.11a16.11,16.11,0,0,0-3.31-1.76c-9-3.5-18.43-2.55-27.38.16a106.73,106.73,0,0,0-42.75,25.26c-11.88,11.25-23.08,23.15-31.7,37.09-6.9,11.17-12.93,22.89-19.25,34.41-1.47,2.69-3.81,3.34-6.07,1.14-4.12-4-8-8.32-12.24-12.13a93.39,93.39,0,0,0-33.06-19.36,287,287,0,0,0-28.36-7.74c-6.09-1.32-12.46-1.58-18.73-1.78a141.16,141.16,0,0,0-15.21.8c-6.4.49-13,.41-19.15,1.85a77.83,77.83,0,0,0-40.3,23.66c-10.33,11.11-13.4,25-14.67,39.42-.82,9.39.91,18.67,3.62,27.5,2.77,9,6.21,18,11,26.11,6.24,10.56,14.4,19.95,21.09,30.27,5.32,8.21,7.36,17.55,4,27.09-2,5.5-5.25,10.5-7.63,15.87-5.34,12.07-10.46,24.23-15.74,36.31-.37.84-1.36,1.41-2.06,2.1-.71-.84-1.79-1.56-2.09-2.53-4.24-13.54-8-27.25-12.67-40.63-3.49-9.9-8.23-19.37-12.4-29-3.49-8.07-6.71-16.28-10.54-24.19-3.68-7.58-7.94-14.89-12.05-22.27-4.65-8.32-9.39-16.59-14.13-24.87-7-12.14-19.71-35.41-17.24-49.43s8.06-22.63,16-34c8.35-11.95,13.76-19.34,31-34m137.77,96.74c-6.67,3-12.18,1.57-16.37-3.92a12.1,12.1,0,0,1-1.5-12.89c2.05-4.71,5.26-7.56,10.53-7.63,9.07-.12,15.28,4.92,14.88,12.24C855.55,873.55,853.58,877.93,848.29,880.54Z" transform="translate(-95.61 -195.12)"/><path class="cls-2" d="M207.24,519.12c5.25-3.89,10.86-6.73,17.63-6.71,3,0,5.56-1.18,6.94-4.17A38.55,38.55,0,0,1,244,493.38a44.7,44.7,0,0,1,24.55-8.65,45.61,45.61,0,0,1,15.34,2,44.46,44.46,0,0,1,18.78,11,40,40,0,0,1,9.82,14,2.87,2.87,0,0,0,2.7,2,73.28,73.28,0,0,1,8.73,1.42,38.31,38.31,0,0,1,6,2.36,32.59,32.59,0,0,1,14.21,17.23c.59,1.6,1.65,2.59,3.25,2.45,3.52-.31,6.51,1,9.47,2.57,5.24,2.75,7.67,7.49,8.23,13a17.22,17.22,0,0,1-3.59,13,17.79,17.79,0,0,1-12.6,6.79c-5,.58-9.14-1.36-12.95-4.25a4,4,0,0,0-5-.32c-3.8,2.7-8.26,3.54-12.6,4-6.42.72-12.41-1.31-18-4.63a5.74,5.74,0,0,0-4.46,0c-3.78,1.53-7.27,3.85-11.11,5.12a43.62,43.62,0,0,1-15.53,1.81,40.33,40.33,0,0,1-16.67-4.42c-2.18-1.1-3.79-.55-5.47.73a13.9,13.9,0,0,1-1.43,1.13c-4.58,2.63-9.38,4.75-14.72,5a35,35,0,0,1-12.6-1.54,275,275,0,0,1-17.81-48.29A26.41,26.41,0,0,1,207.24,519.12Z" transform="translate(-95.61 -195.12)"/></svg>
