<?xml version="1.0" encoding="utf-8"?>
<!-- Generator: Adobe Illustrator 26.0.2, SVG Export Plug-In . SVG Version: 6.00 Build 0)  -->
<svg version="1.1" id="Ebene_1" xmlns="http://www.w3.org/2000/svg" xmlns:xlink="http://www.w3.org/1999/xlink" x="0px" y="0px"
	 viewBox="0 0 240 240" style="enable-background:new 0 0 240 240;" xml:space="preserve">
<style type="text/css">
	.st0{fill:#FFFFFF;}
</style>
<path class="st0" d="M120,37.5c45.6,0,82.5,36.9,82.5,82.5s-36.9,82.5-82.5,82.5c-14.6,0-28.3-3.8-40.2-10.5l-41.5,9.3l10.6-39.6
	c-7.2-12.3-11.4-26.5-11.4-41.8C37.5,74.4,74.4,37.5,120,37.5z M160.7,148.5c1.7-4.8,1.7-8.9,1.2-9.7c-0.5-0.8-1.9-1.3-3.9-2.4
	c-2-1-12.1-6-14-6.7c-1.9-0.7-3.2-1-4.6,1c-1.4,2-5.3,6.7-6.5,8c-1.2,1.4-2.4,1.5-4.4,0.5s-8.6-3.2-16.4-10.1
	c-6.1-5.4-10.2-12.1-11.4-14.1c-1.2-2-0.1-3.2,0.9-4.2c0.9-0.9,2-2.4,3.1-3.5c1-1.2,1.3-2,2-3.4c0.7-1.3,0.4-2.6-0.2-3.6
	c-0.5-1-4.5-11.1-6.3-15.2c-1.5-3.4-3.1-3.5-4.6-3.5c-1.2-0.1-2.6-0.1-3.9-0.1c-1.4,0-3.6,0.5-5.5,2.6c-1.8,2-7.1,7-7.1,17.1
	c0,10,7.3,19.8,8.3,21.1c1,1.4,14.1,22.7,34.9,30.9c17.2,6.8,20.8,5.4,24.5,5.1C150.7,157.9,159,153.2,160.7,148.5z"/>
</svg>
