<?xml version="1.0" encoding="utf-8"?>
<!-- Generator: Adobe Illustrator 26.0.2, SVG Export Plug-In . SVG Version: 6.00 Build 0)  -->
<svg version="1.1" id="Ebene_1" xmlns="http://www.w3.org/2000/svg" xmlns:xlink="http://www.w3.org/1999/xlink" x="0px" y="0px"
	 viewBox="0 0 48 48" style="enable-background:new 0 0 48 48;" xml:space="preserve">
<style type="text/css">
	.st0{fill:#FFFFFF;}
</style>
<path class="st0" d="M24,7.5c9.1,0,16.5,7.4,16.5,16.5S33.1,40.5,24,40.5c-2.9,0-5.7-0.8-8-2.1l-8.3,1.9l2.1-7.9
	C8.3,29.9,7.5,27,7.5,24C7.5,14.9,14.9,7.5,24,7.5z M32.1,29.7c0.3-1,0.3-1.8,0.2-1.9c-0.1-0.2-0.4-0.3-0.8-0.5s-2.4-1.2-2.8-1.3
	c-0.4-0.1-0.6-0.2-0.9,0.2c-0.3,0.4-1.1,1.3-1.3,1.6c-0.2,0.3-0.5,0.3-0.9,0.1c-0.4-0.2-1.7-0.6-3.3-2c-1.2-1.1-2-2.4-2.3-2.8
	c-0.2-0.4,0-0.6,0.2-0.8c0.2-0.2,0.4-0.5,0.6-0.7c0.2-0.2,0.3-0.4,0.4-0.7c0.1-0.3,0.1-0.5,0-0.7c-0.1-0.2-0.9-2.2-1.3-3
	c-0.3-0.7-0.6-0.7-0.9-0.7c-0.2,0-0.5,0-0.8,0c-0.3,0-0.7,0.1-1.1,0.5c-0.4,0.4-1.4,1.4-1.4,3.4c0,2,1.5,4,1.7,4.2
	c0.2,0.3,2.8,4.5,7,6.2c3.4,1.4,4.2,1.1,4.9,1C30.1,31.6,31.8,30.6,32.1,29.7z"/>
</svg>
