<?xml version="1.0" encoding="utf-8"?>
<!-- Generator: Adobe Illustrator 26.0.2, SVG Export Plug-In . SVG Version: 6.00 Build 0)  -->
<svg version="1.1" id="Ebene_1" xmlns="http://www.w3.org/2000/svg" xmlns:xlink="http://www.w3.org/1999/xlink" x="0px" y="0px"
	 viewBox="0 0 144 144" style="enable-background:new 0 0 144 144;" xml:space="preserve">
<style type="text/css">
	.st0{fill:#FFFFFF;}
</style>
<path class="st0" d="M72,22.5c27.3,0,49.5,22.2,49.5,49.5S99.3,121.5,72,121.5c-8.8,0-17-2.3-24.1-6.3L23,120.8l6.3-23.7
	C25,89.7,22.5,81.1,22.5,72C22.5,44.7,44.7,22.5,72,22.5z M96.4,89.1c1-2.9,1-5.3,0.7-5.8c-0.3-0.5-1.1-0.8-2.3-1.4
	c-1.2-0.6-7.3-3.6-8.4-4c-1.1-0.4-1.9-0.6-2.7,0.6c-0.8,1.2-3.2,4-3.9,4.8c-0.7,0.8-1.4,0.9-2.6,0.3c-1.2-0.6-5.2-1.9-9.9-6.1
	c-3.6-3.2-6.1-7.3-6.8-8.5c-0.7-1.2-0.1-1.9,0.5-2.5c0.6-0.5,1.2-1.4,1.8-2.1c0.6-0.7,0.8-1.2,1.2-2.1c0.4-0.8,0.2-1.5-0.1-2.1
	c-0.3-0.6-2.7-6.7-3.8-9.1c-0.9-2-1.9-2.1-2.8-2.1c-0.7,0-1.5,0-2.3,0c-0.8,0-2.1,0.3-3.3,1.5c-1.1,1.2-4.3,4.2-4.3,10.2
	c0,6,4.4,11.9,5,12.7c0.6,0.8,8.5,13.6,21,18.5c10.3,4.1,12.5,3.3,14.7,3.1C90.4,94.7,95.4,91.9,96.4,89.1z"/>
</svg>
