<?xml version="1.0" encoding="utf-8"?>
<!-- Generator: Adobe Illustrator 26.0.2, SVG Export Plug-In . SVG Version: 6.00 Build 0)  -->
<svg version="1.1" id="Ebene_1" xmlns="http://www.w3.org/2000/svg" xmlns:xlink="http://www.w3.org/1999/xlink" x="0px" y="0px"
	 viewBox="0 0 64 64" style="enable-background:new 0 0 64 64;" xml:space="preserve">
<style type="text/css">
	.st0{fill:#FFFFFF;}
</style>
<path class="st0" d="M52.4,11.4C46.9,6,39.7,3,32,3c0,0-0.1,0-0.1,0c-7.7,0-15,3.1-20.5,8.6S3,24.4,3,32.1s3.1,15,8.6,20.5
	C17.1,58,24.3,61,32,61c0,0,0.1,0,0.1,0c7.7,0,15-3.1,20.5-8.6S61,39.6,61,31.9S57.9,16.9,52.4,11.4z M32.1,59
	c-1.3,0-2.6-0.1-3.9-0.3V38.6h-6.2v-6.6h6.2v-4.4c0-7.2,3.5-10.4,9.5-10.4c2.9,0,4.4,0.2,5.1,0.3v5.7h-4.1c-2.6,0-3.4,2.4-3.4,5.2
	v3.6h7.5l-1,6.6h-6.5v20.2C34.3,58.9,33.2,59,32.1,59z M51.2,51c-3.8,3.8-8.6,6.4-13.8,7.5V40.6h4.5c1,0,1.8-0.7,2-1.7l1-6.5
	c0-0.1,0-0.3,0-0.4c0-1.1-0.9-2-2-2h0h-5.5v-1.6c0-1.2,0.2-3.2,1.4-3.2h4.1c1.1,0,2-0.9,2-2v-5.7c0-1-0.7-1.8-1.7-2
	c-0.8-0.1-2.4-0.3-5.4-0.3c-7.4,0-11.5,4.4-11.5,12.4v2.4h-4.2c-1.1,0-2,0.9-2,2v6.6c0,1.1,0.9,2,2,2h4.2v17.8
	c-5-1.1-9.6-3.5-13.3-7.2c-5.1-5.1-8-11.8-8-19.1s2.7-14,7.8-19.1s11.8-8,19.1-8c0,0,0.1,0,0.1,0c7.2,0,13.9,2.8,19,7.8
	c5.1,5.1,8,11.8,8,19.1S56.3,45.9,51.2,51z M52.8,43.9C52.8,43.9,52.8,43.9,52.8,43.9c-0.3,0.5-0.9,0.6-1.4,0.4l-1.7-1
	c-0.5-0.3-0.6-0.9-0.4-1.4c0,0,0,0,0,0c0.3-0.5,0.9-0.6,1.4-0.4l1.7,1C52.9,42.8,53.1,43.4,52.8,43.9z M55.1,38.5
	c0,0.1-0.1,0.2-0.1,0.2c-0.2,0.4-0.7,0.6-1.1,0.5l-1.9-0.5c-0.5-0.1-0.9-0.7-0.7-1.2c0.1-0.5,0.7-0.9,1.2-0.7l1.9,0.5
	C54.9,37.4,55.2,37.9,55.1,38.5z M45,50.8c0.2,0.3,0.2,0.7,0,1c-0.1,0.1-0.2,0.3-0.4,0.4c-0.5,0.3-1.1,0.1-1.4-0.4l-1-1.7
	c-0.3-0.5-0.1-1.1,0.4-1.4c0.5-0.3,1.1-0.1,1.4,0.4L45,50.8z M55.8,32.7c0,0.2,0,0.4-0.1,0.5c-0.2,0.3-0.5,0.5-0.9,0.5l-2,0
	c-0.6,0-1-0.4-1-1c0-0.6,0.4-1,1-1l2,0C55.4,31.7,55.8,32.1,55.8,32.7z M49.3,47.2c0.3,0.3,0.4,0.8,0.2,1.2c0,0.1-0.1,0.1-0.2,0.2
	c-0.4,0.4-1,0.4-1.4,0l-1.4-1.4c-0.4-0.4-0.4-1,0-1.4c0.4-0.4,1-0.4,1.4,0L49.3,47.2z M27.2,9.6c0.1,0.4,0,0.8-0.3,1
	c-0.1,0.1-0.3,0.2-0.4,0.2c-0.7,0.2-1.5,0.4-2.2,0.7c-0.5,0.2-1.1-0.1-1.3-0.6c-0.2-0.5,0.1-1.1,0.6-1.3c0.8-0.3,1.6-0.5,2.4-0.7
	C26.5,8.7,27,9.1,27.2,9.6z M20.8,11.9c0.3,0.5,0.1,1.1-0.3,1.4c-4.1,2.5-7.2,6.3-8.9,10.8c-0.1,0.2-0.2,0.3-0.3,0.4
	c-0.3,0.2-0.6,0.3-1,0.2c-0.5-0.2-0.8-0.8-0.6-1.3c1.8-4.9,5.2-9.1,9.7-11.8C19.9,11.3,20.5,11.4,20.8,11.9z"/>
</svg>
