<?xml version="1.0" encoding="utf-8"?>
<!-- Generator: Adobe Illustrator 26.0.2, SVG Export Plug-In . SVG Version: 6.00 Build 0)  -->
<svg version="1.1" id="Ebene_1" xmlns="http://www.w3.org/2000/svg" xmlns:xlink="http://www.w3.org/1999/xlink" x="0px" y="0px"
	 viewBox="0 0 96 96" style="enable-background:new 0 0 96 96;" xml:space="preserve">
<style type="text/css">
	.st0{fill:#FFFFFF;}
</style>
<path class="st0" d="M48,15c18.2,0,33,14.8,33,33c0,16.4-12.1,30.1-27.8,32.6V56.2h7.5l1.1-8.3h-8.6c0,0,0-5,0-6.3
	c0-2.5,1.7-3.7,3.5-3.7s5.5-0.1,5.5-0.1v-8c0,0-3.3-0.4-6.6-0.4c-2.8,0-5.9,0.8-8.4,3.3c-2.5,2.6-2.9,5.7-2.9,10.3
	c0,1.4,0,4.7,0,4.7h-7.5v8.3h7.5v24.6C27.8,78.9,15,64.9,15,48C15,29.8,29.8,15,48,15z"/>
</svg>
