<?xml version="1.0" encoding="utf-8"?>
<!-- Generator: Adobe Illustrator 26.0.2, SVG Export Plug-In . SVG Version: 6.00 Build 0)  -->
<svg version="1.1" id="Ebene_1" xmlns="http://www.w3.org/2000/svg" xmlns:xlink="http://www.w3.org/1999/xlink" x="0px" y="0px"
	 viewBox="0 0 96 96" style="enable-background:new 0 0 96 96;" xml:space="preserve">
<style type="text/css">
	.st0{fill:#FFFFFF;}
</style>
<path class="st0" d="M47.7,18C20.2,18,18,20.2,18,47.7v0.5C18,75.8,20.2,78,47.7,78h0.5C75.8,78,78,75.8,78,48.3V48
	c0-27.8-2.2-30-30-30H47.7z M66,27c1.7,0,3,1.3,3,3s-1.3,3-3,3s-3-1.3-3-3S64.3,27,66,27z M48,33c8.3,0,15,6.7,15,15s-6.7,15-15,15
	s-15-6.7-15-15S39.7,33,48,33z M48,39c-5,0-9,4.1-9,9c0,5,4.1,9,9,9c5,0,9-4.1,9-9C57,43,52.9,39,48,39z"/>
</svg>
