<?xml version="1.0" encoding="utf-8"?>
<!-- Generator: Adobe Illustrator 26.0.2, SVG Export Plug-In . SVG Version: 6.00 Build 0)  -->
<svg version="1.1" id="Ebene_1" xmlns="http://www.w3.org/2000/svg" xmlns:xlink="http://www.w3.org/1999/xlink" x="0px" y="0px"
	 viewBox="0 0 64 64" style="enable-background:new 0 0 64 64;" xml:space="preserve">
<style type="text/css">
	.st0{fill:#FFFFFF;}
</style>
<path class="st0" d="M13,6c-3.9,0-7,3.1-7,7v38c0,3.9,3.1,7,7,7h38c3.9,0,7-3.1,7-7V13c0-3.9-3.1-7-7-7H13z M13,8h38
	c2.8,0,5,2.2,5,5v38c0,2.8-2.2,5-5,5H13c-2.8,0-5-2.2-5-5V13C8,10.2,10.2,8,13,8z M48,13c-1.7,0-3,1.3-3,3s1.3,3,3,3s3-1.3,3-3
	S49.7,13,48,13z M48,14.5c0.8,0,1.5,0.7,1.5,1.5s-0.7,1.5-1.5,1.5s-1.5-0.7-1.5-1.5S47.2,14.5,48,14.5z M32,18c-7.7,0-14,6.3-14,14
	s6.3,14,14,14s14-6.3,14-14S39.7,18,32,18z M32,20c6.6,0,12,5.4,12,12s-5.4,12-12,12s-12-5.4-12-12S25.4,20,32,20z M32,22
	c-5.5,0-10,4.5-10,10s4.5,10,10,10s10-4.5,10-10S37.5,22,32,22z M32,24c4.4,0,8,3.6,8,8s-3.6,8-8,8s-8-3.6-8-8S27.6,24,32,24z
	 M12,49c-0.6,0-1,0.4-1,1v2c0,0.6,0.4,1,1,1s1-0.4,1-1v-2C13,49.4,12.6,49,12,49z M17,49c-0.6,0-1,0.4-1,1v2c0,0.6,0.4,1,1,1
	s1-0.4,1-1v-2C18,49.4,17.6,49,17,49z M22,49c-0.6,0-1,0.4-1,1v2c0,0.6,0.4,1,1,1s1-0.4,1-1v-2C23,49.4,22.6,49,22,49z M27,49
	c-0.6,0-1,0.4-1,1v2c0,0.6,0.4,1,1,1s1-0.4,1-1v-2C28,49.4,27.6,49,27,49z M32,49c-0.6,0-1,0.4-1,1v2c0,0.6,0.4,1,1,1s1-0.4,1-1v-2
	C33,49.4,32.6,49,32,49z M37,49c-0.6,0-1,0.4-1,1v2c0,0.6,0.4,1,1,1s1-0.4,1-1v-2C38,49.4,37.6,49,37,49z M42,49c-0.6,0-1,0.4-1,1v2
	c0,0.6,0.4,1,1,1s1-0.4,1-1v-2C43,49.4,42.6,49,42,49z M47,49c-0.6,0-1,0.4-1,1v2c0,0.6,0.4,1,1,1s1-0.4,1-1v-2
	C48,49.4,47.6,49,47,49z M52,49c-0.6,0-1,0.4-1,1v2c0,0.6,0.4,1,1,1s1-0.4,1-1v-2C53,49.4,52.6,49,52,49z"/>
</svg>
