<?xml version="1.0" encoding="utf-8"?>
<!-- Generator: Adobe Illustrator 26.0.2, SVG Export Plug-In . SVG Version: 6.00 Build 0)  -->
<svg version="1.1" id="Ebene_1" xmlns="http://www.w3.org/2000/svg" xmlns:xlink="http://www.w3.org/1999/xlink" x="0px" y="0px"
	 viewBox="0 0 96 96" style="enable-background:new 0 0 96 96;" xml:space="preserve">
<style type="text/css">
	.st0{fill:#FFFFFF;}
</style>
<path class="st0" d="M48,15c18.2,0,33,14.8,33,33S66.2,81,48,81c-5.8,0-11.3-1.5-16.1-4.2l-16.6,3.7l4.2-15.8
	C16.7,59.8,15,54.1,15,48C15,29.8,29.8,15,48,15z M64.3,59.4c0.7-1.9,0.7-3.5,0.5-3.9c-0.2-0.3-0.7-0.5-1.6-0.9s-4.8-2.4-5.6-2.7
	c-0.7-0.3-1.3-0.4-1.8,0.4c-0.6,0.8-2.1,2.7-2.6,3.2c-0.5,0.6-0.9,0.6-1.8,0.2c-0.8-0.4-3.5-1.3-6.6-4.1c-2.4-2.2-4.1-4.8-4.5-5.7
	c-0.5-0.8-0.1-1.3,0.4-1.7c0.4-0.4,0.8-0.9,1.2-1.4c0.4-0.5,0.5-0.8,0.8-1.4c0.3-0.5,0.1-1-0.1-1.4c-0.2-0.4-1.8-4.5-2.5-6.1
	c-0.6-1.4-1.3-1.4-1.8-1.4c-0.5,0-1,0-1.6,0c-0.6,0-1.4,0.2-2.2,1c-0.7,0.8-2.9,2.8-2.9,6.8c0,4,2.9,7.9,3.3,8.4
	c0.4,0.6,5.7,9.1,14,12.3c6.9,2.7,8.3,2.2,9.8,2C60.3,63.1,63.6,61.3,64.3,59.4z"/>
</svg>
