<?xml version="1.0" encoding="utf-8"?>
<!-- Generator: Adobe Illustrator 26.0.2, SVG Export Plug-In . SVG Version: 6.00 Build 0)  -->
<svg version="1.1" id="Ebene_1" xmlns="http://www.w3.org/2000/svg" xmlns:xlink="http://www.w3.org/1999/xlink" x="0px" y="0px"
	 viewBox="0 0 64 64" style="enable-background:new 0 0 64 64;" xml:space="preserve">
<style type="text/css">
	.st0{fill:#FFFFFF;}
</style>
<path class="st0" d="M32,2C15.5,2,2,15.5,2,32c0,6.2,1.9,12.1,5.4,17.2L4,59.5c-0.1,0.4,0,0.8,0.2,1c0.3,0.3,0.7,0.4,1,0.2l10.7-3.4
	C20.7,60.4,26.3,62,32,62c16.5,0,30-13.5,30-30S48.5,2,32,2L32,2C32,2,32,2,32,2z M32,4L32,4c15.5,0,28,12.6,28,28S47.4,60,32,60
	c-5.5,0-10.8-1.6-15.4-4.6c-0.2-0.1-0.4-0.2-0.6-0.2c-0.1,0-0.2,0-0.3,0l-9.3,3l3-8.9c0.1-0.3,0.1-0.6-0.1-0.9C5.8,43.6,4,37.9,4,32
	C4,16.6,16.6,4,32,4z M33.2,7.9c-2.3-0.1-4.6,0.2-6.8,0.8c-0.5,0.1-0.9,0.7-0.7,1.2c0.1,0.5,0.7,0.9,1.2,0.7
	c4.1-1.1,8.4-0.9,12.4,0.4c1,0.3,2.1,0.8,3,1.3c0.1,0.1,0.3,0.1,0.5,0.1c0.4,0,0.7-0.2,0.9-0.6c0.2-0.5,0.1-1.1-0.4-1.3
	c-1.1-0.5-2.2-1-3.3-1.4C37.8,8.4,35.5,8,33.2,7.9z M46.6,13c-0.3,0-0.5,0.2-0.7,0.4c-0.3,0.4-0.3,1.1,0.2,1.4
	c0.6,0.5,1.2,1,1.8,1.6c0.2,0.2,0.4,0.3,0.7,0.3c0.3,0,0.5-0.1,0.7-0.3c0.4-0.4,0.4-1,0-1.4c-0.6-0.6-1.3-1.2-1.9-1.7
	C47.2,13,46.9,13,46.6,13z M22.3,17c-1.4,0-2.6,0.4-3.4,1.3C18,19.2,16,21.2,16,25.2c0,3.4,2,6.7,3.3,8.4l0.1,0.2
	c3.8,5.5,8.4,9.5,13.1,11.5c4.2,1.7,6.4,2.2,7.9,2.2c0.7,0,1.2-0.1,1.7-0.2c2.2-0.5,5.1-2.2,5.8-4.3c0.6-1.8,0.8-3.7,0.4-4.4
	c-0.3-0.5-0.8-0.8-1.4-1.1l-0.4-0.2c0,0-4.4-2.2-5.2-2.5c-1.2-0.4-2.3-0.1-3,0.9l-0.3,0.5c-0.6,0.8-1.2,1.6-1.6,2.1
	c-0.1,0.1-0.4,0.2-0.7,0.1l-0.2-0.1c-1-0.4-3-1.2-5.5-3.5c-2-1.8-3.5-4.1-4-5c0-0.1-0.1-0.1-0.1-0.1c0-0.1,0.2-0.2,0.3-0.4
	c0.2-0.2,0.4-0.5,0.6-0.7c0.2-0.2,0.3-0.4,0.5-0.6l0.1-0.1c0.3-0.4,0.6-0.7,0.9-1.3c0.5-1,0.1-2-0.1-2.3c-0.1-0.3-1-2.5-1.6-3.9
	l-0.7-1.6c-0.6-1.5-1.4-1.8-2.5-1.9C23,17,22.6,17,22.3,17z M22.3,19c0.3,0,0.6,0,0.8,0c0.1,0,0.4,0,0.4,0c0,0,0.1,0.1,0.4,0.6
	l0.7,1.6c0.9,2.2,1.5,3.7,1.7,4c0.1,0.3,0.2,0.4,0.1,0.5c-0.2,0.4-0.3,0.5-0.6,0.9l-0.1,0.1c-0.1,0.2-0.3,0.3-0.4,0.5
	c-0.2,0.2-0.5,0.5-0.7,0.8c-0.4,0.4-1.2,1.4-0.4,2.7c0.7,1.2,2.2,3.5,4.4,5.5c2.8,2.5,5.1,3.4,6.1,3.8l0.2,0.1
	c1.1,0.4,2.2,0.2,2.9-0.5c0.5-0.6,1.1-1.4,1.8-2.3l0.3-0.5c0.2-0.3,0.4-0.3,0.7-0.2c0.6,0.2,3.8,1.8,5,2.4l0.4,0.2
	c0.2,0.1,0.5,0.2,0.5,0.2c0,0.4,0,1.4-0.5,2.8c-0.5,1.3-2.6,2.6-4.3,3c-1,0.2-2.6,0.6-8.5-1.9c-4.4-1.8-8.7-5.6-12.3-10.8
	c-0.1-0.1-0.2-0.2-0.2-0.3c-1.1-1.4-2.8-4.3-2.8-7.2c0-3.2,1.5-4.8,2.4-5.6C20.8,19.2,21.5,19,22.3,19z M9.6,30.9
	c-0.6,0-1,0.4-1.1,0.9c0,0.6,0.4,1,0.9,1.1l2.1,0.1c0,0,0,0,0.1,0c0.5,0,1-0.4,1-0.9c0-0.6-0.4-1-0.9-1.1L9.6,30.9z M12.1,36.3
	c-0.1,0-0.3,0-0.4,0l-2,0.4c-0.5,0.1-0.9,0.6-0.8,1.2c0.1,0.5,0.5,0.8,1,0.8c0.1,0,0.1,0,0.2,0l2-0.4c0.5-0.1,0.9-0.6,0.8-1.2
	C12.8,36.7,12.5,36.4,12.1,36.3z M13.6,41.3c-0.1,0-0.3,0-0.4,0.1l-1.9,0.9c-0.5,0.2-0.7,0.8-0.4,1.3c0.2,0.4,0.5,0.6,0.9,0.6
	c0.1,0,0.3,0,0.4-0.1l1.9-0.9c0.5-0.2,0.7-0.8,0.4-1.3C14.4,41.4,14,41.2,13.6,41.3z M16.7,45.6c-0.3,0-0.5,0.1-0.7,0.3l-1.6,1.4
	c-0.4,0.4-0.4,1-0.1,1.4c0.2,0.2,0.5,0.3,0.7,0.3c0.2,0,0.5-0.1,0.7-0.3l1.5-1.4c0.4-0.4,0.4-1,0.1-1.4
	C17.2,45.8,16.9,45.6,16.7,45.6z M20.8,49.1c-0.4-0.1-0.8,0.1-1,0.4l-1.1,1.7c-0.3,0.5-0.2,1.1,0.3,1.4c0.2,0.1,0.4,0.2,0.6,0.2
	c0.3,0,0.6-0.2,0.8-0.5l1.1-1.7c0.3-0.5,0.2-1.1-0.3-1.4C21.1,49.2,20.9,49.1,20.8,49.1z"/>
</svg>
