<?xml version="1.0" encoding="utf-8"?>
<!-- Generator: Adobe Illustrator 26.0.2, SVG Export Plug-In . SVG Version: 6.00 Build 0)  -->
<svg version="1.1" id="Ebene_1" xmlns="http://www.w3.org/2000/svg" xmlns:xlink="http://www.w3.org/1999/xlink" x="0px" y="0px"
	 viewBox="0 0 50 50" style="enable-background:new 0 0 50 50;" xml:space="preserve">
<style type="text/css">
	.st0{fill:#FFFFFF;}
</style>
<g id="surface127977909">
	<path class="st0" d="M25,2C12.3,2,2,12.3,2,25c0,4,1,7.9,3,11.3L2,46.7c-0.1,0.3,0,0.7,0.2,1C2.5,47.9,2.7,48,3,48
		c0.1,0,0.2,0,0.2,0l10.9-2.7C17.5,47.1,21.2,48,25,48c12.7,0,23-10.3,23-23S37.7,2,25,2z M36.6,33.1c-0.5,1.4-2.9,2.6-4,2.8
		c-1,0.1-2.3,0.2-3.7-0.2c-0.9-0.3-2-0.6-3.4-1.2c-5.9-2.5-9.8-8.4-10.1-8.8c-0.3-0.4-2.4-3.2-2.4-6c0-2.9,1.5-4.3,2.1-4.9
		c0.5-0.6,1.2-0.7,1.6-0.7s0.8,0,1.1,0c0.4,0,0.9-0.1,1.3,1c0.5,1.2,1.7,4,1.8,4.3c0.1,0.3,0.2,0.6,0.1,1c-0.2,0.4-0.3,0.6-0.6,1
		s-0.6,0.8-0.9,1c-0.3,0.3-0.6,0.6-0.3,1.2c0.3,0.6,1.5,2.5,3.3,4c2.3,2,4.2,2.6,4.7,2.9s0.9,0.2,1.3-0.1c0.3-0.4,1.5-1.7,1.9-2.3
		c0.4-0.6,0.8-0.5,1.3-0.3c0.5,0.2,3.4,1.6,4,1.9s1,0.4,1.1,0.7S37.1,31.8,36.6,33.1z"/>
</g>
</svg>
