<svg id="Ebene_1" data-name="Ebene 1" xmlns="http://www.w3.org/2000/svg" viewBox="0 0 229.57 229.56"><defs><style>.cls-1{fill:#230e14;}.cls-2{fill:none;}</style></defs><path d="M198,96.73c10.58,0,21.16,0,31.75,0,9.29,0,15.61,4.71,17.82,13a22.36,22.36,0,0,1,.49,5.71c0,14.49,0,29,0,43.49a2.47,2.47,0,0,0,2.48,2.48c14.75-.09,29.5-.07,44.24,0,9.25,0,15.79,5.13,17.61,13.82a20.2,20.2,0,0,1,.37,4q0,32.15,0,64.27c0,9.21-4.88,15.59-13.2,17.69a22.26,22.26,0,0,1-5.46.44H251.84c-3.74,0-3.74,0-3.74,3.87,0,14.33,0,28.66,0,43,0,8.72-4.8,15.06-12.8,17.21a23.87,23.87,0,0,1-6.19.6H166.85c-12.09,0-18.94-6.84-18.95-18.87,0-14.41,0-28.83,0-43.24a2.59,2.59,0,0,0-2.61-2.61q-22.11.13-44.24,0c-8.65,0-14.94-4.61-17.15-12.46a20.9,20.9,0,0,1-.7-5.57q0-32,0-63.89c0-9.28,4.67-15.48,13.09-17.76a20.51,20.51,0,0,1,5.46-.49h42.49c3.62,0,3.62,0,3.62-3.74,0-14.33,0-28.67,0-43,0-8.87,4.77-15.18,12.93-17.36a22.85,22.85,0,0,1,5.95-.57Q182.4,96.72,198,96.73Zm107.2,115c0-10.74-.17-21.49.06-32.24.13-5.76-3.86-10.81-10.69-10.68-16,.31-32,.1-48,.1a6,6,0,0,1-6.05-6q0-24,0-48A10.61,10.61,0,0,0,230,104.28q-32,0-64,0c-7.1,0-10.55,3.51-10.56,10.63q0,24,0,48c0,4.8-1.24,6-6.07,6q-24,0-48,0c-7.42,0-10.88,3.76-10.57,11.54.8,20.35,1.66,40.74.06,61-.66,8.46,2.79,12.55,10.54,12.56q24,0,48,0a6,6,0,0,1,6,6.06c0,15.91-.11,31.82-.13,47.73,0,7.23,3.54,10.85,10.69,10.86,21.33,0,42.66-.1,64,.07,6.27,0,10.79-4.25,10.69-10.68-.25-16-.08-32-.08-48,0-4.87,1.18-6.05,6-6.05,15.91,0,31.82-.19,47.73.09,6.71.12,11.13-4.34,11-10.92C305,232.75,305.23,222.25,305.23,211.75Z" transform="translate(-83.22 -96.72)"/><path class="cls-1" d="M183.86,169.21a15,15,0,0,1,6.7,1.57,21.91,21.91,0,0,1,5.59,3.7,34.39,34.39,0,0,1,3.34,4.05c.44.62.7.61,1,.06a19.17,19.17,0,0,1,6.59-6.74c1.14-.7,2.54-.95,3.62-1.71,1.41-1,2.89-1,4.45-1.14,4.19-.35,7.77,1.08,11.17,3.56a15.65,15.65,0,0,1,6,7.92,20,20,0,0,1,.15,11.35,40.6,40.6,0,0,1-4.19,10.47,68.34,68.34,0,0,1-4.22,6.38,68.09,68.09,0,0,1-6,7.55,129.08,129.08,0,0,1-10.57,9.57,16.26,16.26,0,0,1-7.1,3.35c-1.64.32-2.68-.78-3.88-1.39a49.38,49.38,0,0,1-15.77-13.29c-.6-.74-1.67-1.2-2-2-.59-1.55-2.06-2.15-2.78-3.54s-1.86-2.86-2.78-4.31a39,39,0,0,1-2.58-4.29c-2.13-4.6-4-9.38-3.86-14.58a15.76,15.76,0,0,1,2.49-8.36,19.22,19.22,0,0,1,12-8.14A11,11,0,0,1,183.86,169.21Zm-.38,6.19a17.09,17.09,0,0,0-10.61,6.53,11.69,11.69,0,0,0-2.2,6.71c-.11,4.17,1.52,8,3.4,11.69a29.9,29.9,0,0,0,2.29,3.45c.81,1.16,1.76,2.24,2.45,3.46s1.94,1.59,2.46,2.83c.27.65,1.22,1,1.75,1.61A42.74,42.74,0,0,0,197,222.35c1.06.49,2,1.37,3.42,1.11a15.08,15.08,0,0,0,6.28-2.69A109.25,109.25,0,0,0,216,213.1a55.55,55.55,0,0,0,5.3-6.06,53.09,53.09,0,0,0,3.73-5.12,30.77,30.77,0,0,0,3.7-8.4,14.63,14.63,0,0,0-.13-9.11,12.71,12.71,0,0,0-5.3-6.34,15.12,15.12,0,0,0-9.86-2.86,7.88,7.88,0,0,0-3.94.91c-.95.61-2.19.81-3.19,1.37a16.2,16.2,0,0,0-5.83,5.41c-.28.44-.51.45-.9-.05a28.37,28.37,0,0,0-2.95-3.25,19.5,19.5,0,0,0-4.94-3,14.28,14.28,0,0,0-5.92-1.25A10.75,10.75,0,0,0,183.48,175.4Z" transform="translate(-83.22 -96.72)"/><path class="cls-2" d="M185.1,174a10.29,10.29,0,0,0-2.29,0,17.18,17.18,0,0,0-10.72,6.89,12.81,12.81,0,0,0-2.22,7.07c-.1,4.4,1.54,8.45,3.44,12.34a32.79,32.79,0,0,0,2.3,3.64c.82,1.22,1.79,2.36,2.49,3.65s2,1.68,2.47,3c.28.69,1.23,1.08,1.77,1.7a43.28,43.28,0,0,0,14.07,11.25c1.06.52,2,1.45,3.45,1.18a14.92,14.92,0,0,0,6.34-2.84,113.44,113.44,0,0,0,9.42-8.09,56.68,56.68,0,0,0,5.35-6.4,54.35,54.35,0,0,0,3.77-5.4,33.62,33.62,0,0,0,3.74-8.86,16.15,16.15,0,0,0-.14-9.61,13.37,13.37,0,0,0-5.35-6.7,14.9,14.9,0,0,0-10-3,7.64,7.64,0,0,0-4,1c-1,.64-2.21.86-3.23,1.44a16.74,16.74,0,0,0-5.88,5.71c-.29.47-.51.47-.91,0a30.4,30.4,0,0,0-3-3.43,19.28,19.28,0,0,0-5-3.13A14,14,0,0,0,185.1,174Zm-5.45,68.22a15.34,15.34,0,0,0,2.61,8.44c3.37,4.66,9.88,4.6,13.31-.71a13.83,13.83,0,0,0,2.05-10.81c-.69-3.22-2-6.05-5-7.78a6.64,6.64,0,0,0-7-.19C181.31,233.58,179.94,237.67,179.65,242.17Zm1.12-19.55a7.12,7.12,0,0,0-1.82-5c-1.91-2.48-5.25-3.21-8.63-1-3.68,2.45-5.64,9.17-3.82,13.24,2.13,4.79,6.83,5.35,10.16,2.58C179.61,230.06,180.92,226.79,180.77,222.62Z" transform="translate(-83.22 -96.72)"/><path class="cls-1" d="M179.65,242.17c.29-4.5,1.66-8.59,6-11a6.64,6.64,0,0,1,7,.19c3,1.73,4.31,4.56,5,7.78a13.83,13.83,0,0,1-2.05,10.81c-3.43,5.31-9.94,5.37-13.31.71A15.34,15.34,0,0,1,179.65,242.17Z" transform="translate(-83.22 -96.72)"/><path class="cls-1" d="M202.06,241.25c.2-3.23.68-5.88,2.27-8.19,2.16-3.13,5.6-4.58,8.7-3.51a9.94,9.94,0,0,1,5.64,5.14,14.31,14.31,0,0,1,.82,11.63c-1.06,3.21-3.11,5.65-6.56,6.53a6.79,6.79,0,0,1-5.12-.89C203.51,249.46,202.48,245.27,202.06,241.25Z" transform="translate(-83.22 -96.72)"/><path class="cls-1" d="M180.77,222.62c.15,4.17-1.16,7.44-4.11,9.89-3.33,2.77-8,2.21-10.16-2.58-1.82-4.07.14-10.79,3.82-13.24,3.38-2.25,6.72-1.52,8.63,1A7.12,7.12,0,0,1,180.77,222.62Z" transform="translate(-83.22 -96.72)"/><path class="cls-1" d="M220.63,223.91c.12-3.17.84-5.74,3.48-7.48a6.44,6.44,0,0,1,7,.55,11.48,11.48,0,0,1,3.94,12.55,6.28,6.28,0,0,1-9.2,3.84C222.18,231.07,221,227.67,220.63,223.91Z" transform="translate(-83.22 -96.72)"/><path class="cls-1" d="M181.12,209.91h0l0,0-.13-.09-.34-.19-.52-.34c.32.32.65.63,1,.93,0-.06,0-.12.05-.18Z" transform="translate(-83.22 -96.72)"/><path class="cls-1" d="M214.94,187.68a1.1,1.1,0,0,0-.76-.29h-2.69l-1.82-1.82a4.48,4.48,0,0,0-3.21-1.34h-2.23a4.6,4.6,0,0,0-3.27,1.34,11.69,11.69,0,0,0-3.4,8.25v2.46L194,199.85h-.82l-.82-3.4a1.24,1.24,0,0,0-.76-.76,1.1,1.1,0,0,0-1,.35l-1.47,1.76a7.68,7.68,0,0,0-1.87,4.8v3.21l-2.92,4.33,0,0,0,0a5.89,5.89,0,0,1-1.27,1.58l.15.11-.31.46a1,1,0,0,1,0,.6,1,1,0,0,1-.8.7c.14.34.27.68.44,1,.28.54.6,1.07.88,1.63l.73.57.22.17.12.09.45.33a9.16,9.16,0,0,0,.88.55c1.14.58,2.07,1.46,3.18,2.08a31.94,31.94,0,0,1,3.5,1.78c.55.4,1.05.87,1.58,1.3a14.68,14.68,0,0,0,1.44,1.09,13.31,13.31,0,0,0,1.71,1c.53.26,1.06.46,1.66.76a8.54,8.54,0,0,1,1.5.93h.12l.32-.1.13-.06.16-.08.34-.21.33-.24,0,0L202,226c.4-.33.79-.69,1.21-1a14.28,14.28,0,0,1,3.68-2l.86-.33.37-.15.21-.08h0a6.15,6.15,0,0,0,.81-.41l.12-.08a1,1,0,0,1-.07-.34,13.79,13.79,0,0,1,0-1.7l-.23.16v-6.38a8.74,8.74,0,0,0,1.93-5.15,16.52,16.52,0,0,0-.12-3l-.76-5.79v-5.15h1.58a3.8,3.8,0,0,0,2.58-1,3.64,3.64,0,0,0,1-2.58v-2.57A1.26,1.26,0,0,0,214.94,187.68ZM194.7,216.93a1,1,0,0,0-.18.58v3.1c-.11.06-.06.24,0,.41l.41.76-10.53-6.9-.58-.41,5.26-7.9a1,1,0,0,0,.18-.58v-3.45a5.62,5.62,0,0,1,1.4-3.51l.18-.18.52,2.22a1,1,0,0,0,1,.76h2.51a2.15,2.15,0,0,1,1.76.94,5.14,5.14,0,0,0,3,2.11v1.17a2.32,2.32,0,0,1-.58,1.46,2,2,0,0,1-1.47.58,1.05,1.05,0,0,0-1.05,1.06V213A4.38,4.38,0,0,1,196,215Zm3.92,7.25-1.06-.7v-.88a1.39,1.39,0,0,0-.11-.47l1.17-1.17Zm8.3-2.81-2.1,1.41v-5.91l2.1-1.58Zm1.93-13a6.5,6.5,0,0,1-1.63,4.09l-4.1,3a1.15,1.15,0,0,0-.41.82v7.78l-2.1,1.41v-7.08a1,1,0,0,0-.65-.94,1,1,0,0,0-1.11.24l-2.4,2.39v-2.39l1.11-1.7a5.52,5.52,0,0,0,.94-3.16V210a4.1,4.1,0,0,0,2.22-1.46,4,4,0,0,0,.88-2.57v-2.11a1.28,1.28,0,0,0-.29-.76.92.92,0,0,0-.76-.29,2.94,2.94,0,0,1-2.4-1.29,3.87,3.87,0,0,0-1.76-1.46l1.53-1.52,3.62,1.81a13.36,13.36,0,0,0,6,1.41H208l.52,3.92A7.18,7.18,0,0,1,208.85,208.39Zm4.45-17.49a1.58,1.58,0,0,1-1.58,1.58h-2.57a1,1,0,0,0-1.06,1.05v6.2h-.17a11,11,0,0,1-5.09-1.23l-1.76-.88a3,3,0,0,0,2.05-.82,2.88,2.88,0,0,0,.82-2v-3.4l-2.22.06v3.4a.78.78,0,0,1-.76.76h-1.29V193.7a9.34,9.34,0,0,1,2.81-6.72,2.56,2.56,0,0,1,1.81-.76h2.28a2.47,2.47,0,0,1,1.76.7l2.1,2.1a1.11,1.11,0,0,0,.76.3h2.11Z" transform="translate(-83.22 -96.72)"/><path d="M204.82,188.26h2.1v2.11h-2.1Z" transform="translate(-83.22 -96.72)"/><path d="M193.41,203.88h2.11V206h-2.11Z" transform="translate(-83.22 -96.72)"/><path class="cls-1" d="M225.83,192.66a1,1,0,0,0-1.26.8l-.08.34a14.87,14.87,0,0,1-1.92,4.78l-.28.42h0a1.08,1.08,0,0,0,.33,1.45,1,1,0,0,0,.81.13,1.37,1.37,0,0,0,.65-.46l.27-.42a17.66,17.66,0,0,0,2.18-5.38l.08-.34a1.27,1.27,0,0,0-.12-.81,1.06,1.06,0,0,0-.66-.51Z" transform="translate(-83.22 -96.72)"/><path class="cls-1" d="M226.16,187.73a1,1,0,0,0-1.1,1l-.05,1.05a1.05,1.05,0,0,0,2.1.1l0-1a1.22,1.22,0,0,0-.26-.77,1.17,1.17,0,0,0-.74-.33Z" transform="translate(-83.22 -96.72)"/><path class="cls-1" d="M181.08,209.88l-.13-.09-.34-.19a9.91,9.91,0,0,1-1.24-.88c-.3-.24-.6-.5-.89-.77.09.15.18.29.28.43a7.52,7.52,0,0,0,.76,1c.29.33.61.62.91.93l.47.48c0-.16.11-.33.15-.5s0-.17.07-.25v-.1h0Z" transform="translate(-83.22 -96.72)"/><path class="cls-1" d="M232.35,180.45a15.63,15.63,0,0,0-6-7.91c-3.4-2.49-7-3.92-11.17-3.57-1.56.13-3.05.15-4.45,1.14-1.08.76-2.48,1-3.62,1.71a19.09,19.09,0,0,0-6.59,6.74c-.33.55-.58.56-1-.06a33.36,33.36,0,0,0-3.33-4.05,22,22,0,0,0-5.6-3.7,14.89,14.89,0,0,0-6.69-1.57,11,11,0,0,0-2.57,0,19.19,19.19,0,0,0-12,8.14,15.68,15.68,0,0,0-2.49,8.36c-.12,5.2,1.73,10,3.86,14.58a38.23,38.23,0,0,0,2.58,4.3c.92,1.44,2,2.79,2.78,4.31s2.19,2,2.78,3.53c.31.81,1.38,1.27,2,2a49.27,49.27,0,0,0,15.77,13.29c1.2.61,2.24,1.71,3.88,1.39a16.31,16.31,0,0,0,7.1-3.35,130.8,130.8,0,0,0,10.57-9.56,69.4,69.4,0,0,0,6-7.56,69.53,69.53,0,0,0,4.22-6.37,40.81,40.81,0,0,0,4.19-10.48A20,20,0,0,0,232.35,180.45Zm-3.63,13.05a31,31,0,0,1-3.7,8.4,54.22,54.22,0,0,1-3.73,5.11,54.63,54.63,0,0,1-5.3,6.06,112.92,112.92,0,0,1-9.33,7.68,15.06,15.06,0,0,1-6.28,2.68c-1.44.26-2.37-.62-3.42-1.11A42.64,42.64,0,0,1,183,211.67l-.4.35a1,1,0,0,1,.21.88,1,1,0,0,1-1.19.68,6.39,6.39,0,0,1-2.53-1.87c-.37-.39-.76-.74-1.11-1.14a13.82,13.82,0,0,1-1-1.3c-.52-.77-1-1.59-1.41-2.4a3.1,3.1,0,0,1-.45-2.9,1,1,0,0,1,1-.47,26.37,26.37,0,0,1-2.11-3.2c-1.88-3.69-3.51-7.52-3.4-11.69a11.69,11.69,0,0,1,2.2-6.71,17.09,17.09,0,0,1,10.61-6.53,10.74,10.74,0,0,1,2.27,0,14.44,14.44,0,0,1,5.92,1.25,19.41,19.41,0,0,1,4.94,3,27.46,27.46,0,0,1,2.95,3.24c.39.5.61.5.9.05a16.34,16.34,0,0,1,5.82-5.41c1-.55,2.24-.76,3.2-1.37a7.86,7.86,0,0,1,3.93-.91,15.21,15.21,0,0,1,9.87,2.86,12.74,12.74,0,0,1,5.3,6.35A14.62,14.62,0,0,1,228.72,193.5Z" transform="translate(-83.22 -96.72)"/></svg>