<svg id="Ebene_1" data-name="Ebene 1" xmlns="http://www.w3.org/2000/svg" viewBox="0 0 392.99 296.23"><defs><style>.cls-1{stroke:#000;stroke-miterlimit:10;}.cls-2{fill:#230e14;}.cls-3{fill:none;}</style></defs><path d="M106.66,176.51c0-3.78.35-7.54.66-11.31a34.47,34.47,0,1,1,.62-16.08c0-1.82,0-3.65,0-5.48,0-2,.48-4.91-.34-6.83a5.16,5.16,0,0,1-.31-3.29A40.06,40.06,0,1,0,74,196l1.26,0a5.48,5.48,0,0,1,1.27-2.46,14.63,14.63,0,0,1,15.73-3.75,5.9,5.9,0,0,1,1.68.9A40.44,40.44,0,0,0,107,178.56,5,5,0,0,1,106.66,176.51Z" transform="translate(-3 -78.03)"/><path d="M78.54,108.35V98.74a4.48,4.48,0,0,0-9,0v9.61a4.48,4.48,0,0,0,9,0Z" transform="translate(-3 -78.03)"/><path d="M36.85,199.4l6.82-6.82a4.45,4.45,0,0,0-6.3-6.3l-6.82,6.82a4.45,4.45,0,0,0,6.3,6.3Z" transform="translate(-3 -78.03)"/><path d="M17,151.41a4.48,4.48,0,1,0,0,9h9.62a4.48,4.48,0,0,0,0-9Z" transform="translate(-3 -78.03)"/><path d="M37.37,125.43a4.45,4.45,0,0,0,6.3-6.3l-6.82-6.82a4.45,4.45,0,0,0-6.3,6.3Z" transform="translate(-3 -78.03)"/><path class="cls-1" d="M125.53,341.48a3,3,0,0,1-3-3V245.76a3.1,3.1,0,0,1,1-2.27l76.89-67.22a3,3,0,0,1,4.16.39,3,3,0,0,1-.2,4.16l-75.91,66.3v91.31a3.06,3.06,0,0,1-.91,2.14,2.9,2.9,0,0,1-2.08.91Z" transform="translate(-3 -78.03)"/><path class="cls-1" d="M279.64,341.48a3,3,0,0,1-3-3V247.12l-75.92-66.37a3,3,0,0,1,4-4.54l76.9,67.28a3,3,0,0,1,1,2.27V338.5a3,3,0,0,1-.9,2.14,3,3,0,0,1-2.08.84Z" transform="translate(-3 -78.03)"/><path class="cls-1" d="M135.47,354.6a3,3,0,0,1-3-3c0-4-1-6.69-3.25-8.32-4.87-3.63-13.9-1.23-14-1.23h0a2.82,2.82,0,0,1-2.4-.33,2.94,2.94,0,0,1-1.36-2,6.77,6.77,0,0,0-2.92-5c-3.32-2.08-8.25-.84-8.32-.84a3.07,3.07,0,0,1-3.63-2c-.07-.26-2.41-6.69-13.32-6.17q-4.66.19-7,2.93c-2.79,3.24-2.4,8.24-2.4,8.31h0a3.06,3.06,0,0,1-2.47,3.25A11.06,11.06,0,0,0,61.63,351a3,3,0,0,1-3,3,3,3,0,0,1-3-3,17.12,17.12,0,0,1,12.28-16.17,17.34,17.34,0,0,1,3.83-10.07c2.66-3.11,6.43-4.8,11.3-5,11.17-.58,16.17,4.68,18.18,7.93,2.66-.33,7-.26,10.59,2h0a12.23,12.23,0,0,1,4.8,6c4-.65,11.17-1,16.3,2.79,3.77,2.79,5.65,7.21,5.65,13.12h0a3,3,0,0,1-.91,2.14,3.9,3.9,0,0,1-2.2.78Z" transform="translate(-3 -78.03)"/><path class="cls-1" d="M135.47,373.76H58.58a3,3,0,0,1-3-3V350.9a3,3,0,0,1,3-3h76.89a3.08,3.08,0,0,1,2.14.91,3,3,0,0,1,.91,2.15v19.8a3.1,3.1,0,0,1-.91,2.15A3.29,3.29,0,0,1,135.47,373.76Zm-73.91-6h70.85V353.89H61.56Z" transform="translate(-3 -78.03)"/><path class="cls-1" d="M270,354.6a3,3,0,0,1-3-3c0-5.91,1.88-10.33,5.65-13.12,5.13-3.83,12.27-3.45,16.3-2.8a12.33,12.33,0,0,1,4.8-6c3.64-2.33,7.93-2.33,10.59-2,2-3.25,7-8.51,18.18-7.92,4.81.26,8.64,1.95,11.3,5a17.39,17.39,0,0,1,3.84,10.07A17.1,17.1,0,0,1,350,351h0a3,3,0,0,1-6,0,11,11,0,0,0-9.74-10.85,2.94,2.94,0,0,1-2.46-3.25c0-.06.39-5.06-2.41-8.24-1.56-1.82-3.89-2.73-7-2.93-10.91-.52-13.18,5.91-13.31,6.17h0a3,3,0,0,1-3.64,2c-.07,0-5-1.24-8.31.84a6.86,6.86,0,0,0-2.93,5,2.94,2.94,0,0,1-1.36,2,2.84,2.84,0,0,1-2.4.33c-2.53-.72-9.94-1.88-14,1.23-2.21,1.63-3.25,4.35-3.25,8.32h0a3.05,3.05,0,0,1-.91,2.14,3.57,3.57,0,0,1-2.2.84Z" transform="translate(-3 -78.03)"/><path class="cls-1" d="M346.92,373.76H270a3,3,0,0,1-3-3V350.9a3,3,0,0,1,3-3h76.89a3.06,3.06,0,0,1,2.14.91A3,3,0,0,1,350,351v19.8a3.1,3.1,0,0,1-.91,2.15A3.27,3.27,0,0,1,346.92,373.76Zm-73.91-6h70.85V353.89H273Z" transform="translate(-3 -78.03)"/><path class="cls-1" d="M268.79,373.76H134.23a3,3,0,0,1-3-3,3,3,0,0,1,3-3H268.79a3,3,0,1,1,0,6Z" transform="translate(-3 -78.03)"/><path class="cls-1" d="M124.56,258.42h-66a3.19,3.19,0,0,1-2.41-1.17,3,3,0,0,1-.52-2.66l19.23-67.28a3,3,0,0,1,2.85-2.21H191.38a3,3,0,0,1,3,3,3,3,0,0,1-3,3H80.07L62.54,252.32h62a3,3,0,0,1,3,3,3.13,3.13,0,0,1-3,3.11Z" transform="translate(-3 -78.03)"/><path class="cls-1" d="M68.25,340.12a3,3,0,0,1-3-3V255.37h0a3,3,0,0,1,3-3,3,3,0,0,1,3,3v81.7h0a3.06,3.06,0,0,1-.91,2.14A2.68,2.68,0,0,1,68.25,340.12Z" transform="translate(-3 -78.03)"/><path class="cls-1" d="M346.92,258.42h-66a3,3,0,0,1-3-3,3,3,0,0,1,3-3h62l-17.54-61.24H213.72a3,3,0,0,1-3-3,3,3,0,0,1,3-3h114a2.92,2.92,0,0,1,2.86,2.21l19.22,67.28a3,3,0,0,1-.52,2.66,3.22,3.22,0,0,1-2.33,1Z" transform="translate(-3 -78.03)"/><path class="cls-1" d="M337.18,340.12a3,3,0,0,1-3-3V255.37h0a3,3,0,1,1,6,0v81.7h0a3,3,0,0,1-.91,2.14A2.76,2.76,0,0,1,337.18,340.12Z" transform="translate(-3 -78.03)"/><path class="cls-1" d="M308.47,123H97a3,3,0,0,1-3-3V100.74a3,3,0,0,1,3-3H308.47a3,3,0,0,1,2.14.91,2.92,2.92,0,0,1,.91,2.14V120a3.06,3.06,0,0,1-.91,2.15A3.6,3.6,0,0,1,308.47,123Zm-208.46-6H305.42V103.67H100Z" transform="translate(-3 -78.03)"/><path class="cls-1" d="M289.25,103.73h-173a3,3,0,0,1-3-3V81.52a3,3,0,0,1,3-3h173a3.06,3.06,0,0,1,2.14.91,2.94,2.94,0,0,1,.91,2.15v19.22a3,3,0,0,1-.91,2.14A3.55,3.55,0,0,1,289.25,103.73Zm-170-6h167V84.51h-167Z" transform="translate(-3 -78.03)"/><path class="cls-1" d="M106.63,191.14a3,3,0,0,1-3-3V120a3,3,0,0,1,3-3,3,3,0,0,1,3,3v68.19a3.08,3.08,0,0,1-.91,2.14A3,3,0,0,1,106.63,191.14Z" transform="translate(-3 -78.03)"/><path class="cls-1" d="M298.86,191.14a3,3,0,0,1-3-3V120a3,3,0,0,1,3-3,3,3,0,0,1,3,3v68.19a3.08,3.08,0,0,1-.91,2.14A3,3,0,0,1,298.86,191.14Z" transform="translate(-3 -78.03)"/><path class="cls-1" d="M112,312H82.73a3,3,0,0,1-3-3V271.35a3,3,0,0,1,3-3H112a3.06,3.06,0,0,1,2.15.91,3,3,0,0,1,.9,2.14v37.67h0a3,3,0,0,1-.9,2.14A3.6,3.6,0,0,1,112,312Zm-26.3-6H109V274.4H85.72Z" transform="translate(-3 -78.03)"/><path class="cls-1" d="M323.93,312H294.64a3,3,0,0,1-3-3V271.35a3,3,0,0,1,3-3h29.29a3,3,0,0,1,2.14.91,2.92,2.92,0,0,1,.91,2.14v37.67h0a3,3,0,0,1-.91,2.14,3.55,3.55,0,0,1-2.14.78Zm-26.3-6h23.25V274.4H297.63Z" transform="translate(-3 -78.03)"/><path class="cls-1" d="M149.69,175.88H120.4a3,3,0,0,1-3-3V135.23a3,3,0,0,1,3-3h29.29a3.06,3.06,0,0,1,2.14.91,2.93,2.93,0,0,1,.91,2.14V173a3,3,0,0,1-.91,2.14A3.41,3.41,0,0,1,149.69,175.88Zm-26.24-6H146.7V138.22H123.45v31.62Z" transform="translate(-3 -78.03)"/><path class="cls-1" d="M194.56,175.88H165.27a3,3,0,0,1-3-3V135.23a3,3,0,0,1,3-3h29.29a3.1,3.1,0,0,1,2.15.91,3,3,0,0,1,.91,2.14V173a3.06,3.06,0,0,1-.91,2.14A3.6,3.6,0,0,1,194.56,175.88Zm-26.23-6h23.25V138.22H168.33Z" transform="translate(-3 -78.03)"/><path class="cls-1" d="M239.44,175.88H210.15a3,3,0,0,1-3-3V135.23a3,3,0,0,1,3-3h29.29a3.06,3.06,0,0,1,2.14.91,2.93,2.93,0,0,1,.91,2.14V173a3,3,0,0,1-.91,2.14A3.55,3.55,0,0,1,239.44,175.88Zm-26.3-6h23.25V138.22H213.14Z" transform="translate(-3 -78.03)"/><path class="cls-1" d="M284.25,175.88H255a3,3,0,0,1-3-3V135.23a3,3,0,0,1,3-3h29.23a3.06,3.06,0,0,1,2.14.91,2.93,2.93,0,0,1,.91,2.14V173a3,3,0,0,1-.91,2.14A3.41,3.41,0,0,1,284.25,175.88Zm-26.24-6h23.25V138.22H258Z" transform="translate(-3 -78.03)"/><path class="cls-1" d="M241.52,373.76a3,3,0,0,1-3-3V308H167v62.8a3,3,0,0,1-3,3,3,3,0,0,1-3-3V304.92a3,3,0,0,1,3-3h77.48a3.06,3.06,0,0,1,2.14.91,3,3,0,0,1,.91,2.15v65.78a3.1,3.1,0,0,1-.91,2.15A3.15,3.15,0,0,1,241.52,373.76Z" transform="translate(-3 -78.03)"/><path class="cls-1" d="M202.49,373.76a3,3,0,0,1-3-3V305.38a3,3,0,1,1,6,0v65.33a3,3,0,0,1-.91,2.14A2.76,2.76,0,0,1,202.49,373.76Z" transform="translate(-3 -78.03)"/><path class="cls-1" d="M212.68,343.76a3,3,0,0,1-3-3v-5a3,3,0,0,1,3-3,3,3,0,0,1,3,3v5a3.06,3.06,0,0,1-.91,2.14A2.63,2.63,0,0,1,212.68,343.76Z" transform="translate(-3 -78.03)"/><path class="cls-1" d="M192.87,343.76a3,3,0,0,1-3-3v-5a3,3,0,0,1,3-3,3,3,0,0,1,3,3v5a3,3,0,0,1-.91,2.14A2.73,2.73,0,0,1,192.87,343.76Z" transform="translate(-3 -78.03)"/><path class="cls-1" d="M329.19,156.53a3,3,0,0,1-2.92-2.47c-1.5-7.53-9.75-6.23-10.65-6.1a3,3,0,0,1-3.45-2.41,3,3,0,0,1,2.34-3.5,20.92,20.92,0,0,1,7.53.19,13.35,13.35,0,0,1,7.21,4.29c2.54-3.05,6.76-5.72,13.45-5.72a3,3,0,0,1,3,3,3,3,0,0,1-3,3c-9,0-10.46,6.36-10.52,7.08h0a3.06,3.06,0,0,1-3,2.66Z" transform="translate(-3 -78.03)"/><path class="cls-1" d="M77.28,172.12h-.39a3.12,3.12,0,0,1-2.66-2.86,7,7,0,0,0-4.68-6.69,14,14,0,0,0-4.94-.91,2.92,2.92,0,0,1-2.14-.78,2.88,2.88,0,0,1-1-2.08,3,3,0,0,1,2.86-3.11,19.22,19.22,0,0,1,7.4,1.29,13.15,13.15,0,0,1,6.56,5.26c2.92-2.66,7.53-4.67,14.15-3.76a3,3,0,1,1-.84,5.91c-4-.59-7.14.19-9.35,2.34a10.1,10.1,0,0,0-2.14,3.11,3,3,0,0,1-2.86,2.28Z" transform="translate(-3 -78.03)"/><path class="cls-1" d="M111.44,293H82.8a3,3,0,0,1-3-3,3,3,0,0,1,3-3h28.64a3,3,0,0,1,3,3A3,3,0,0,1,111.44,293Z" transform="translate(-3 -78.03)"/><path class="cls-1" d="M149.1,156.85H120.46a3,3,0,0,1-3-3,3,3,0,0,1,3-3H149.1a3,3,0,1,1,0,6Z" transform="translate(-3 -78.03)"/><path class="cls-1" d="M194,156.85H165.34a3,3,0,0,1-3-3,3,3,0,0,1,3-3H194a3,3,0,0,1,3,3A3,3,0,0,1,194,156.85Z" transform="translate(-3 -78.03)"/><path class="cls-1" d="M238.79,156.85H210.15a3,3,0,0,1-3-3,3,3,0,0,1,3-3h28.64a3,3,0,1,1,0,6Z" transform="translate(-3 -78.03)"/><path class="cls-1" d="M283.66,156.85H255a3,3,0,0,1-3-3,3,3,0,0,1,3-3h28.64a3,3,0,1,1,0,6Z" transform="translate(-3 -78.03)"/><path class="cls-1" d="M323.34,293h-28.7a3,3,0,0,1-3-3,3,3,0,0,1,3-3h28.64a3,3,0,0,1,.06,6Z" transform="translate(-3 -78.03)"/><path d="M5.32,306.81a1.36,1.36,0,0,1-.52-.07A2.33,2.33,0,0,1,3.05,304c1.56-7.15,4.87-12.08,9.81-14.74,7.59-4.16,16.17-1,16.56-.85a2.32,2.32,0,1,1-1.63,4.35c-.06,0-6.95-2.53-12.73.59-3.7,2-6.17,5.91-7.46,11.69a2.36,2.36,0,0,1-2.28,1.82Z" transform="translate(-3 -78.03)"/><path d="M19.29,320.77a2.23,2.23,0,0,1-2.21-1.69c-2.73-9.55,1-15.59,4.74-18.9a23.64,23.64,0,0,1,8.51-4.87,2.34,2.34,0,0,1,2.85,1.56,2.29,2.29,0,0,1-1.56,2.86c-.58.19-14,4.28-10.06,18a2.34,2.34,0,0,1-1.63,2.86,3,3,0,0,1-.64.13Z" transform="translate(-3 -78.03)"/><path d="M33.25,288.17a2.3,2.3,0,0,1-1.89-1c-.45-.58-10.52-14.35-22.4-6.36a2.34,2.34,0,0,1-2.6-3.9c12.54-8.38,24.29,1.3,28.77,7.54a2.3,2.3,0,0,1-.52,3.24,2.25,2.25,0,0,1-1.36.46Z" transform="translate(-3 -78.03)"/><path d="M40.2,288.17a2.33,2.33,0,0,1-2.34-2.34c0-.2.26-18.57,20.91-18.57a2.34,2.34,0,1,1,0,4.67c-15.72,0-16.3,12.54-16.3,14a2.22,2.22,0,0,1-2.27,2.28Z" transform="translate(-3 -78.03)"/><path d="M47.21,292.84a2,2,0,0,1-1-.26,2.29,2.29,0,0,1-1-3.11c1.95-3.9,8.44-10.07,19.23-5.78A2.35,2.35,0,0,1,62.6,288c-9.29-3.7-12.92,2.79-13.31,3.57a2.41,2.41,0,0,1-2.08,1.23Z" transform="translate(-3 -78.03)"/><path d="M70.2,332.72c-4.81-14.68-14.48-30.66-33.32-44.1a2.36,2.36,0,0,0-3.24.52,2.31,2.31,0,0,0,.52,3.25c20.39,14.55,29.48,32.21,33.31,47.54A36.12,36.12,0,0,0,70.2,332.72Z" transform="translate(-3 -78.03)"/><path d="M373.15,274.85a2,2,0,0,0-2.85-.84c-22.54,11.95-32.09,40.65-36.11,64.49,1.23-.13,2.4-.26,3.64-.46.25-.06.58-.06.84-.13,4-22.66,13.12-49.35,33.57-60.2A2.13,2.13,0,0,0,373.15,274.85Z" transform="translate(-3 -78.03)"/><path d="M394.06,271.28a1.62,1.62,0,0,1-1.1-.19c-9.68-4.48-16.23,1.43-16.49,1.69a2.15,2.15,0,0,1-3-.13,2.08,2.08,0,0,1,.13-3c.39-.33,8.83-8.12,21.17-2.4a2.14,2.14,0,0,1,1,2.79,2.44,2.44,0,0,1-1.76,1.23Z" transform="translate(-3 -78.03)"/><path d="M390.69,290.18a2.07,2.07,0,0,1-2.28-1.56c-2.33-9.09-11-8.7-11.36-8.7a2.06,2.06,0,0,1-2.21-1.95,2.16,2.16,0,0,1,2-2.27,15.35,15.35,0,0,1,15.72,11.82,2.1,2.1,0,0,1-1.5,2.53.42.42,0,0,1-.32.13Z" transform="translate(-3 -78.03)"/><path d="M376.08,300.77a1.64,1.64,0,0,1-1.11-.2,2.14,2.14,0,0,1-1-2.79c4.16-9.09-2.34-13.38-3.11-13.83a2.09,2.09,0,1,1,2.14-3.58c3.7,2.21,9.42,9,4.74,19.23a2.07,2.07,0,0,1-1.62,1.17Z" transform="translate(-3 -78.03)"/><path d="M368.74,271.93h-.52a2.13,2.13,0,0,1-1.82-2.4c.06-.65.71-6.56-5.65-7.4a2.13,2.13,0,0,1,.58-4.23c8.45,1.17,9.75,8.45,9.23,12.15a2.13,2.13,0,0,1-1.82,1.88Z" transform="translate(-3 -78.03)"/><path d="M362.89,276.74a2.16,2.16,0,0,1-2.27-1.5c0-.06-1.36-4.41-4.81-6-2.14-1-4.74-.78-7.85.65a2.1,2.1,0,0,1-2.8-1,2.17,2.17,0,0,1,1-2.79c4.22-1.95,8.06-2.14,11.37-.65,5.26,2.47,7,8.51,7.14,8.77a2.1,2.1,0,0,1-1.43,2.6Z" transform="translate(-3 -78.03)"/><path class="cls-2" d="M185.89,210.93a14.93,14.93,0,0,1,6.64,1.55,21.62,21.62,0,0,1,5.55,3.68,33.74,33.74,0,0,1,3.31,4c.44.61.69.61,1,.06a19.06,19.06,0,0,1,6.54-6.69c1.13-.68,2.51-.93,3.59-1.69,1.39-1,2.87-1,4.41-1.13,4.15-.35,7.7,1.08,11.07,3.54a15.5,15.5,0,0,1,6,7.84,19.8,19.8,0,0,1,.15,11.26A40.25,40.25,0,0,1,230,243.74a67.15,67.15,0,0,1-4.19,6.32,65,65,0,0,1-6,7.49A128.59,128.59,0,0,1,209.35,267a16.19,16.19,0,0,1-7,3.32c-1.62.32-2.65-.77-3.84-1.38a48.81,48.81,0,0,1-15.64-13.18c-.59-.73-1.65-1.18-2-2-.58-1.53-2.05-2.13-2.76-3.5s-1.85-2.84-2.75-4.28a37.5,37.5,0,0,1-2.57-4.25c-2.11-4.57-3.94-9.31-3.82-14.46a15.51,15.51,0,0,1,2.47-8.29A19.05,19.05,0,0,1,183.34,211,10.85,10.85,0,0,1,185.89,210.93Zm-.37,6.14A16.92,16.92,0,0,0,175,223.54a11.69,11.69,0,0,0-2.19,6.65c-.1,4.14,1.52,7.94,3.38,11.6a31.17,31.17,0,0,0,2.27,3.42c.8,1.15,1.75,2.22,2.43,3.42s1.92,1.59,2.43,2.81c.28.65,1.21,1,1.74,1.6a42.5,42.5,0,0,0,13.81,10.58c1,.48,2,1.36,3.4,1.1a14.92,14.92,0,0,0,6.22-2.66,111,111,0,0,0,9.25-7.61,54.67,54.67,0,0,0,5.26-6,53.37,53.37,0,0,0,3.7-5.07,31.15,31.15,0,0,0,3.67-8.33,14.62,14.62,0,0,0-.13-9,12.7,12.7,0,0,0-5.26-6.29,15.07,15.07,0,0,0-9.78-2.83,7.72,7.72,0,0,0-3.9.9c-1,.61-2.17.81-3.17,1.36a16,16,0,0,0-5.77,5.36c-.29.44-.51.45-.9,0a27.92,27.92,0,0,0-2.92-3.23,19.34,19.34,0,0,0-4.9-2.94,14.21,14.21,0,0,0-5.87-1.25A10.55,10.55,0,0,0,185.52,217.07Z" transform="translate(-3 -78.03)"/><path class="cls-3" d="M187.13,215.63a10.19,10.19,0,0,0-2.28,0,17,17,0,0,0-10.62,6.83,12.69,12.69,0,0,0-2.21,7c-.1,4.37,1.53,8.38,3.41,12.24a32.72,32.72,0,0,0,2.29,3.61c.81,1.21,1.77,2.34,2.46,3.61s1.94,1.67,2.45,3c.28.68,1.23,1.07,1.76,1.69a43.08,43.08,0,0,0,13.94,11.15c1.06.51,2,1.44,3.43,1.17a14.71,14.71,0,0,0,6.28-2.81,115.35,115.35,0,0,0,9.35-8,58.74,58.74,0,0,0,5.3-6.34,58.23,58.23,0,0,0,3.74-5.35,33.54,33.54,0,0,0,3.7-8.79,16,16,0,0,0-.13-9.53,13.21,13.21,0,0,0-5.31-6.64,14.76,14.76,0,0,0-9.87-3,7.72,7.72,0,0,0-3.94,1c-1,.64-2.19.85-3.2,1.43a16.63,16.63,0,0,0-5.83,5.66c-.29.47-.51.47-.91-.05a28.88,28.88,0,0,0-2.95-3.4,19.38,19.38,0,0,0-4.94-3.11A13.75,13.75,0,0,0,187.13,215.63Zm-5.41,67.64a15.17,15.17,0,0,0,2.59,8.37c3.34,4.62,9.79,4.56,13.19-.7a13.76,13.76,0,0,0,2-10.73c-.69-3.18-2-6-5-7.7a6.55,6.55,0,0,0-6.89-.2C183.36,274.76,182,278.81,181.72,283.27Zm1.11-19.39A7,7,0,0,0,181,259c-1.89-2.46-5.2-3.18-8.55-1-3.65,2.43-5.59,9.1-3.79,13.14,2.12,4.74,6.77,5.3,10.08,2.55C181.68,271.26,183,268,182.83,263.88Z" transform="translate(-3 -78.03)"/><path class="cls-2" d="M181.72,283.27c.28-4.46,1.64-8.51,6-11a6.55,6.55,0,0,1,6.89.2c2.94,1.71,4.27,4.52,5,7.7a13.76,13.76,0,0,1-2,10.73c-3.4,5.26-9.85,5.32-13.19.7A15.17,15.17,0,0,1,181.72,283.27Z" transform="translate(-3 -78.03)"/><path class="cls-2" d="M203.94,282.36c.2-3.2.67-5.83,2.25-8.12,2.14-3.11,5.56-4.54,8.63-3.48a9.86,9.86,0,0,1,5.59,5.09,14.21,14.21,0,0,1,.82,11.54c-1.06,3.18-3.1,5.6-6.51,6.47a6.69,6.69,0,0,1-5.08-.89C205.38,290.5,204.36,286.34,203.94,282.36Z" transform="translate(-3 -78.03)"/><path class="cls-2" d="M182.83,263.88c.15,4.14-1.15,7.38-4.07,9.81-3.31,2.75-8,2.19-10.08-2.55-1.8-4,.14-10.71,3.79-13.14,3.35-2.22,6.66-1.5,8.55,1A7,7,0,0,1,182.83,263.88Z" transform="translate(-3 -78.03)"/><path class="cls-2" d="M222.35,265.17c.13-3.15.84-5.69,3.46-7.43a6.38,6.38,0,0,1,7,.55,11.38,11.38,0,0,1,3.91,12.45,6.24,6.24,0,0,1-9.12,3.81C223.89,272.27,222.68,268.9,222.35,265.17Z" transform="translate(-3 -78.03)"/><path class="cls-2" d="M183.18,251.29h0l0,0s-.1-.07-.13-.09l-.34-.19a5.69,5.69,0,0,1-.52-.33c.32.32.65.62,1,.92a1.16,1.16,0,0,0,0-.18A.28.28,0,0,0,183.18,251.29Z" transform="translate(-3 -78.03)"/><path class="cls-2" d="M216.71,229.24A1.15,1.15,0,0,0,216,229h-2.66l-1.8-1.8a4.42,4.42,0,0,0-3.19-1.33h-2.21a4.55,4.55,0,0,0-3.24,1.33,11.6,11.6,0,0,0-3.37,8.18v2.44l-3.54,3.54h-.81l-.81-3.37a1.21,1.21,0,0,0-.75-.75,1.08,1.08,0,0,0-1,.35l-1.45,1.74a7.54,7.54,0,0,0-1.85,4.75v3.19l-2.9,4.29,0,0,0,0a5.58,5.58,0,0,1-1.26,1.56l.15.11-.31.45a1,1,0,0,1,0,.6,1,1,0,0,1-.79.7c.14.33.27.66.44,1,.28.54.59,1.07.86,1.62l.74.57.21.16.12.09.45.34a7.77,7.77,0,0,0,.87.53c1.13.58,2.05,1.45,3.15,2.06a33.27,33.27,0,0,1,3.47,1.77c.55.4,1,.87,1.56,1.3s.87.69,1.43,1.07a12.68,12.68,0,0,0,1.7,1c.53.26,1.05.46,1.65.76a7.79,7.79,0,0,1,1.48.92h.13l.31-.1.13-.06.15-.08.34-.21.33-.24,0,0,.17-.13c.4-.33.79-.68,1.2-1a14,14,0,0,1,3.65-2l.86-.34.36-.14.21-.08h0a6.68,6.68,0,0,0,.8-.41l.12-.08a1,1,0,0,1-.07-.34,13.51,13.51,0,0,1,0-1.68l-.23.15v-6.32a8.68,8.68,0,0,0,1.92-5.1,17.25,17.25,0,0,0-.12-3l-.75-5.74v-5.11h1.56a3.71,3.71,0,0,0,2.55-1,3.59,3.59,0,0,0,1.05-2.55V230A1.26,1.26,0,0,0,216.71,229.24Zm-20.07,29a1,1,0,0,0-.17.58v3.08c-.12.05-.06.23,0,.4l.4.76-10.44-6.85-.58-.4,5.22-7.83a1,1,0,0,0,.18-.58V244a5.57,5.57,0,0,1,1.39-3.48l.17-.17.52,2.2a1,1,0,0,0,1,.76h2.49a2.11,2.11,0,0,1,1.74.93,5.08,5.08,0,0,0,3,2.08v1.16a2.25,2.25,0,0,1-.58,1.45,2,2,0,0,1-1.45.58,1,1,0,0,0-1,1.05v3.77a4.42,4.42,0,0,1-.58,2Zm3.89,7.19-1.05-.69v-.87a1.6,1.6,0,0,0-.11-.47l1.16-1.16Zm8.23-2.78L206.67,264v-5.86l2.09-1.56Zm1.92-12.88a6.47,6.47,0,0,1-1.63,4.06l-4.06,3a1.1,1.1,0,0,0-.4.81v7.72l-2.09,1.39v-7a.94.94,0,0,0-.64-.93,1,1,0,0,0-1.1.23l-2.38,2.38v-2.38l1.1-1.68a5.49,5.49,0,0,0,.93-3.13V251.4a4.12,4.12,0,0,0,2.2-1.45,4,4,0,0,0,.87-2.55v-2.09a1.22,1.22,0,0,0-.29-.76.88.88,0,0,0-.75-.29,2.92,2.92,0,0,1-2.38-1.27,3.8,3.8,0,0,0-1.74-1.45l1.51-1.51,3.6,1.8a13.22,13.22,0,0,0,6,1.39h.46l.53,3.89A7.23,7.23,0,0,1,210.68,249.77Zm4.4-17.34a1.56,1.56,0,0,1-1.56,1.57H211a1,1,0,0,0-1.05,1v6.15h-.17A11,11,0,0,1,204.7,240L203,239.1a3,3,0,0,0,2-.81,2.91,2.91,0,0,0,.81-2V232.9l-2.2,0v3.37a.77.77,0,0,1-.75.75h-1.28v-1.85a9.32,9.32,0,0,1,2.78-6.67,2.55,2.55,0,0,1,1.8-.76h2.26a2.42,2.42,0,0,1,1.74.7l2.09,2.09a1.15,1.15,0,0,0,.76.29h2.08Z" transform="translate(-3 -78.03)"/><path d="M206.67,229.82h2.09v2.09h-2.09Z" transform="translate(-3 -78.03)"/><path d="M195.36,245.31h2.09v2.09h-2.09Z" transform="translate(-3 -78.03)"/><path class="cls-2" d="M227.5,234.18a1,1,0,0,0-1.25.79l-.07.34a14.72,14.72,0,0,1-1.91,4.74l-.27.42h0a1,1,0,0,0,1.13,1.56,1.3,1.3,0,0,0,.64-.45l.27-.41a17.49,17.49,0,0,0,2.16-5.34l.08-.34a1.23,1.23,0,0,0-.12-.8,1,1,0,0,0-.66-.51Z" transform="translate(-3 -78.03)"/><path class="cls-2" d="M227.83,229.29a1,1,0,0,0-1.09,1l-.05,1.05a1,1,0,0,0,1,1.09,1.05,1.05,0,0,0,1.1-1l.05-1a1.19,1.19,0,0,0-.26-.76,1.17,1.17,0,0,0-.74-.33Z" transform="translate(-3 -78.03)"/><path class="cls-2" d="M183.14,251.25s-.1-.07-.13-.09l-.34-.19a9.44,9.44,0,0,1-1.23-.87c-.3-.24-.59-.49-.88-.75l.28.42a7.34,7.34,0,0,0,.75,1c.29.32.6.61.91.92l.46.48c0-.17.11-.33.15-.5a1.83,1.83,0,0,0,.06-.25.28.28,0,0,0,0-.09h0Z" transform="translate(-3 -78.03)"/><path class="cls-2" d="M234,222.07a15.5,15.5,0,0,0-5.95-7.84c-3.37-2.46-6.92-3.89-11.07-3.54-1.55.14-3,.15-4.41,1.13-1.08.76-2.46,1-3.59,1.7a18.94,18.94,0,0,0-6.54,6.68c-.32.55-.57.55-1-.06a33.74,33.74,0,0,0-3.31-4,21.76,21.76,0,0,0-5.55-3.67,14.8,14.8,0,0,0-6.64-1.56,11.42,11.42,0,0,0-2.55,0A19.05,19.05,0,0,0,171.44,219a15.51,15.51,0,0,0-2.47,8.29c-.12,5.16,1.71,9.89,3.82,14.46a40,40,0,0,0,2.56,4.26c.91,1.43,2,2.76,2.76,4.27s2.18,2,2.76,3.5c.3.81,1.37,1.26,2,2A49,49,0,0,0,198.47,269c1.18.6,2.22,1.69,3.84,1.37a16,16,0,0,0,7-3.32,126.79,126.79,0,0,0,10.48-9.48,67.92,67.92,0,0,0,5.95-7.49,67.3,67.3,0,0,0,4.19-6.33,40.61,40.61,0,0,0,4.15-10.38A19.89,19.89,0,0,0,234,222.07ZM230.37,235a30.81,30.81,0,0,1-3.66,8.33,55.18,55.18,0,0,1-3.7,5.07,55.74,55.74,0,0,1-5.26,6A111,111,0,0,1,208.5,262a15,15,0,0,1-6.23,2.66c-1.43.26-2.34-.62-3.39-1.1A42.4,42.4,0,0,1,185.08,253l-.4.35a1,1,0,0,1,.21.87,1,1,0,0,1-1.18.67,6.38,6.38,0,0,1-2.51-1.86c-.36-.37-.75-.72-1.1-1.13a12.29,12.29,0,0,1-1-1.28c-.51-.76-.95-1.58-1.4-2.38a3.12,3.12,0,0,1-.45-2.88,1,1,0,0,1,1-.47,25.77,25.77,0,0,1-2.09-3.16c-1.87-3.66-3.48-7.46-3.38-11.6a11.76,11.76,0,0,1,2.18-6.65A17,17,0,0,1,185.53,217a10.55,10.55,0,0,1,2.25,0,14.08,14.08,0,0,1,5.87,1.24,19.31,19.31,0,0,1,4.89,3,27.91,27.91,0,0,1,2.93,3.22c.39.49.61.49.9,0a16,16,0,0,1,5.77-5.37c1-.55,2.22-.75,3.17-1.36a7.82,7.82,0,0,1,3.9-.9,15.14,15.14,0,0,1,9.78,2.83,12.7,12.7,0,0,1,5.25,6.3A14.52,14.52,0,0,1,230.37,235Z" transform="translate(-3 -78.03)"/></svg>