<?xml version="1.0" encoding="utf-8"?>
<!-- Generator: Adobe Illustrator 26.0.2, SVG Export Plug-In . SVG Version: 6.00 Build 0)  -->
<svg version="1.1" id="Ebene_1" xmlns="http://www.w3.org/2000/svg" xmlns:xlink="http://www.w3.org/1999/xlink" x="0px" y="0px"
	 viewBox="0 0 229.6 229.6" style="enable-background:new 0 0 229.6 229.6;" xml:space="preserve">
<style type="text/css">
	.st0{stroke:#000000;stroke-miterlimit:10;}
	.st1{fill:#FFFFFF;}
</style>
<path d="M69.5,42.5c0-14.3-11.6-25.8-25.8-25.8S17.8,28.3,17.8,42.5c0,14.2,11.5,25.8,25.8,25.8C57.9,68.3,69.5,56.8,69.5,42.5z
	 M43.7,64.7c-12.3,0-22.2-10-22.2-22.3s10-22.2,22.3-22.2c12.3,0,22.2,10,22.2,22.2C65.9,54.8,56,64.7,43.7,64.7
	C43.7,64.7,43.7,64.7,43.7,64.7"/>
<path d="M46.6,11.9V5.7c0-1.6-1.3-2.9-2.9-2.9c-1.6,0-2.9,1.3-2.9,2.9l0,0v6.2c0,1.6,1.3,2.9,2.9,2.9C45.3,14.8,46.6,13.5,46.6,11.9
	z"/>
<path d="M40.8,73.1v6.2c0,1.6,1.3,2.9,2.9,2.9c1.6,0,2.9-1.3,2.9-2.9v-6.2c0-1.6-1.3-2.9-2.9-2.9C42.2,70.2,40.8,71.4,40.8,73.1
	C40.8,73,40.8,73.1,40.8,73.1z"/>
<path d="M67.4,22.9l4.4-4.4c1.1-1.1,1.1-2.9,0-4.1c-1.1-1.1-2.9-1.1-4.1,0l-4.4,4.4C60.6,21.5,64.7,25.5,67.4,22.9z"/>
<path d="M19.7,70.5l4.4-4.4c1.1-1.1,1.1-2.9,0-4.1C23,61,21.1,61,20,62.1l0,0l-4.4,4.4c-1.1,1.1-1.1,2.9,0,4.1
	C16.8,71.7,18.6,71.7,19.7,70.5L19.7,70.5z"/>
<path d="M6.9,39.6c-1.6,0-2.9,1.3-2.9,2.9c0,1.6,1.3,2.9,2.9,2.9h6.2c1.6,0,2.9-1.3,2.9-2.9c0-1.6-1.3-2.9-2.9-2.9H6.9z"/>
<path d="M20,22.9c1.1,1.1,2.9,1.1,4.1,0c1.1-1.1,1.1-2.9,0-4.1l-4.4-4.4c-1.1-1.1-2.9-1.1-4.1,0s-1.1,2.9,0,4.1L20,22.9z"/>
<path class="st0" d="M67.8,205.9c-1.1,0-1.9-0.9-1.9-1.9v-59.7c0-0.6,0.2-1.1,0.6-1.5l49.5-43.3c0.8-0.7,2-0.5,2.7,0.3
	c0.7,0.8,0.6,2-0.1,2.7l-48.9,42.7v58.8c0,0.5-0.2,1-0.6,1.4C68.8,205.7,68.3,205.9,67.8,205.9L67.8,205.9z"/>
<path class="st0" d="M167.1,205.9c-1.1,0-1.9-0.9-1.9-1.9v-58.9l-48.9-42.8c-0.8-0.7-0.9-1.9-0.2-2.8c0.7-0.8,1.9-0.9,2.8-0.2
	l49.6,43.4c0.4,0.4,0.7,0.9,0.6,1.5V204c0,0.5-0.2,1-0.6,1.4C168.1,205.7,167.6,205.9,167.1,205.9L167.1,205.9z"/>
<path class="st0" d="M74.2,214.4c-1.1,0-1.9-0.9-1.9-1.9c0-2.6-0.6-4.3-2.1-5.4c-3.1-2.3-9-0.8-9-0.8l0,0c-0.5,0.2-1.1,0.1-1.5-0.2
	c-0.5-0.3-0.8-0.8-0.9-1.3c-0.1-1.3-0.8-2.5-1.9-3.2c-2.1-1.3-5.3-0.5-5.4-0.5c-1,0.2-2-0.3-2.3-1.3c0-0.2-1.6-4.3-8.6-4
	c-2,0.1-3.5,0.7-4.5,1.9c-1.8,2.1-1.5,5.3-1.5,5.4l0,0c0.1,1-0.6,1.9-1.6,2.1c-3.5,0.4-6.2,3.4-6.3,7c0,1.1-0.9,1.9-1.9,1.9
	c-1.1,0-1.9-0.9-1.9-1.9c0.1-4.8,3.3-9.1,7.9-10.4c0.1-2.4,1-4.6,2.5-6.5c1.7-2,4.1-3.1,7.3-3.2c7.2-0.4,10.4,3,11.7,5.1
	c1.7-0.2,4.5-0.2,6.8,1.3l0,0c1.4,0.9,2.5,2.3,3.1,3.9c2.6-0.4,7.2-0.6,10.5,1.8c2.4,1.8,3.6,4.6,3.6,8.5l0,0c0,0.5-0.2,1-0.6,1.4
	C75.2,214.1,74.7,214.3,74.2,214.4L74.2,214.4z"/>
<path class="st0" d="M74.2,226.7H24.7c-1.1,0-1.9-0.9-1.9-1.9V212c0-1.1,0.9-1.9,1.9-1.9h49.5c0.5,0,1,0.2,1.4,0.6
	c0.4,0.4,0.6,0.9,0.6,1.4v12.8c0,0.5-0.2,1-0.6,1.4C75.2,226.5,74.7,226.7,74.2,226.7z M26.6,222.8h45.7v-8.9H26.6L26.6,222.8z"/>
<path class="st0" d="M160.9,214.4c-1.1,0-1.9-0.9-1.9-1.9c0-3.8,1.2-6.7,3.6-8.5c3.3-2.5,7.9-2.2,10.5-1.8c0.6-1.6,1.7-2.9,3.1-3.9
	c2.3-1.5,5.1-1.5,6.8-1.3c1.3-2.1,4.5-5.5,11.7-5.1c3.1,0.2,5.6,1.3,7.3,3.2c1.5,1.8,2.4,4.1,2.5,6.5c4.7,1.3,7.9,5.6,8,10.4l0,0
	c0,1.1-0.9,1.9-1.9,1.9c-1.1,0-1.9-0.9-1.9-1.9c0-3.6-2.7-6.6-6.3-7c-1-0.2-1.7-1.1-1.6-2.1c0,0,0.3-3.3-1.6-5.3
	c-1-1.2-2.5-1.8-4.5-1.9c-7-0.3-8.5,3.8-8.6,4l0,0c-0.3,1-1.3,1.6-2.3,1.3c0,0-3.2-0.8-5.4,0.5c-1.1,0.7-1.8,1.9-1.9,3.2
	c-0.1,0.5-0.4,1-0.9,1.3c-0.5,0.3-1,0.4-1.5,0.2c-1.6-0.5-6.4-1.2-9,0.8c-1.4,1.1-2.1,2.8-2.1,5.4l0,0c0,0.5-0.2,1-0.6,1.4
	C162,214.2,161.5,214.3,160.9,214.4L160.9,214.4z"/>
<path class="st0" d="M210.5,226.7h-49.6c-1.1,0-1.9-0.9-1.9-1.9V212c0-1.1,0.9-1.9,1.9-1.9h49.5c0.5,0,1,0.2,1.4,0.6
	c0.4,0.4,0.6,0.9,0.6,1.4v12.8c0,0.5-0.2,1-0.6,1.4C211.5,226.5,211,226.7,210.5,226.7z M162.8,222.8h45.7v-8.9h-45.7L162.8,222.8z"
	/>
<path class="st0" d="M160.1,226.7H73.4c-1.1,0-1.9-0.9-1.9-1.9c0-1.1,0.9-1.9,1.9-1.9h86.7c1.1,0,1.9,0.9,1.9,1.9
	C162.1,225.8,161.2,226.7,160.1,226.7z"/>
<path class="st0" d="M67.2,152.4H24.7c-0.6,0-1.2-0.3-1.6-0.8c-0.4-0.5-0.5-1.1-0.3-1.7l12.4-43.4c0.2-0.8,1-1.4,1.8-1.4h73.2
	c1.1,0,1.9,0.9,1.9,1.9c0,1.1-0.9,1.9-1.9,1.9H38.5l-11.3,39.4h40c1.1,0,1.9,0.9,1.9,1.9l0,0C69.1,151.5,68.2,152.3,67.2,152.4
	L67.2,152.4z"/>
<path class="st0" d="M30.9,205c-1.1,0-1.9-0.9-1.9-1.9v-52.7l0,0c0-1.1,0.9-1.9,1.9-1.9c1.1,0,1.9,0.9,1.9,1.9v52.6l0,0
	c0,0.5-0.2,1-0.6,1.4C31.9,204.8,31.4,205,30.9,205z"/>
<path class="st0" d="M210.5,152.4h-42.5c-1.1,0-1.9-0.9-1.9-1.9c0-1.1,0.9-1.9,1.9-1.9h40l-11.3-39.5h-72c-1.1,0-1.9-0.9-1.9-1.9
	s0.9-1.9,1.9-1.9h73.5c0.9,0,1.6,0.6,1.8,1.4l12.4,43.4c0.2,0.6,0,1.2-0.3,1.7C211.6,152.1,211.1,152.3,210.5,152.4L210.5,152.4z"/>
<path class="st0" d="M204.2,205c-1.1,0-1.9-0.9-1.9-1.9v-52.7l0,0c0-1.1,0.9-1.9,1.9-1.9s1.9,0.9,1.9,1.9v52.6l0,0
	c0,0.5-0.2,1-0.6,1.4C205.2,204.8,204.7,205,204.2,205z"/>
<path class="st0" d="M185.7,65.1H49.4c-1.1,0-1.9-0.9-1.9-1.9V50.8c0-1.1,0.9-1.9,1.9-1.9h136.3c0.5,0,1,0.2,1.4,0.6
	c0.4,0.4,0.6,0.9,0.6,1.4v12.4c0,0.5-0.2,1-0.6,1.4C186.7,64.9,186.2,65.1,185.7,65.1z M51.4,61.3h132.4v-8.6H51.4L51.4,61.3z"/>
<path class="st0" d="M173.3,52.7H61.8c-1.1,0-1.9-0.9-1.9-1.9V38.4c0-1.1,0.9-1.9,1.9-1.9h111.5c0.5,0,1,0.2,1.4,0.6
	c0.4,0.4,0.6,0.9,0.6,1.4v12.4c0,0.5-0.2,1-0.6,1.4C174.3,52.5,173.8,52.7,173.3,52.7z M63.8,48.8h107.6v-8.5H63.8V48.8z"/>
<path class="st0" d="M55.6,109c-1.1,0-1.9-0.9-1.9-1.9V63.2c0-1.1,0.9-1.9,1.9-1.9s1.9,0.9,1.9,1.9v43.9c0,0.5-0.2,1-0.6,1.4
	C56.6,108.8,56.1,109,55.6,109z"/>
<path class="st0" d="M179.5,109c-1.1,0-1.9-0.9-1.9-1.9V63.2c0-1.1,0.9-1.9,1.9-1.9s1.9,0.9,1.9,1.9v43.9c0,0.5-0.2,1-0.6,1.4
	C180.5,108.8,180,109,179.5,109z"/>
<path class="st0" d="M59.1,186.9H40.2c-1.1,0-1.9-0.9-1.9-1.9v-24.3c0-1.1,0.9-1.9,1.9-1.9h18.9c0.5,0,1,0.2,1.4,0.6
	c0.4,0.4,0.6,0.9,0.6,1.4V185l0,0c0,0.5-0.2,1-0.6,1.4C60.1,186.7,59.6,186.9,59.1,186.9z M42.1,183h15v-20.4h-15L42.1,183z"/>
<path class="st0" d="M195.7,186.9h-18.9c-1.1,0-1.9-0.9-1.9-1.9v-24.3c0-1.1,0.9-1.9,1.9-1.9h18.9c0.5,0,1,0.2,1.4,0.6
	c0.4,0.4,0.6,0.9,0.6,1.4V185l0,0c0,0.5-0.2,1-0.6,1.4C196.6,186.7,196.2,186.9,195.7,186.9L195.7,186.9z M178.7,183h15v-20.4h-15
	V183z"/>
<path class="st0" d="M83.4,99.2H64.5c-1.1,0-1.9-0.9-1.9-1.9V73c0-1.1,0.9-1.9,1.9-1.9h18.9c0.5,0,1,0.2,1.4,0.6
	c0.4,0.4,0.6,0.9,0.6,1.4v24.3c0,0.5-0.2,1-0.6,1.4C84.4,99,83.9,99.2,83.4,99.2z M66.5,95.3h15V74.9h-15L66.5,95.3L66.5,95.3z"/>
<path class="st0" d="M112.3,99.2H93.4c-1.1,0-1.9-0.9-1.9-1.9V73c0-1.1,0.9-1.9,1.9-1.9h18.9c0.5,0,1,0.2,1.4,0.6
	c0.4,0.4,0.6,0.9,0.6,1.4v24.3c0,0.5-0.2,1-0.6,1.4C113.3,99,112.8,99.2,112.3,99.2z M95.4,95.3h15V74.9h-15V95.3z"/>
<path class="st0" d="M141.2,99.2h-18.9c-1.1,0-1.9-0.9-1.9-1.9V73c0-1.1,0.9-1.9,1.9-1.9h18.9c0.5,0,1,0.2,1.4,0.6
	c0.4,0.4,0.6,0.9,0.6,1.4v24.3c0,0.5-0.2,1-0.6,1.4C142.2,99,141.7,99.2,141.2,99.2z M124.3,95.3h15V74.9h-15V95.3z"/>
<path class="st0" d="M170.1,99.2h-18.8c-1.1,0-1.9-0.9-1.9-1.9V73c0-1.1,0.9-1.9,1.9-1.9h18.8c0.5,0,1,0.2,1.4,0.6
	c0.4,0.4,0.6,0.9,0.6,1.4v24.3c0,0.5-0.2,1-0.6,1.4C171.1,99,170.6,99.2,170.1,99.2z M153.2,95.3h15V74.9h-15L153.2,95.3z"/>
<path class="st0" d="M142.6,226.7c-1.1,0-1.9-0.9-1.9-1.9v-40.4H94.5v40.5c0,1.1-0.9,1.9-1.9,1.9s-1.9-0.9-1.9-1.9v-42.5
	c0-1.1,0.9-1.9,1.9-1.9h49.9c0.5,0,1,0.2,1.4,0.6c0.4,0.4,0.6,0.9,0.6,1.4v42.4c0,0.5-0.2,1-0.6,1.4
	C143.5,226.5,143.1,226.7,142.6,226.7z"/>
<path class="st0" d="M117.4,226.7c-1.1,0-1.9-0.9-1.9-1.9v-42.1c0-1.1,0.9-1.9,1.9-1.9c1.1,0,1.9,0.9,1.9,1.9v42.1
	c0,0.5-0.2,1-0.6,1.4C118.4,226.5,117.9,226.7,117.4,226.7z"/>
<path class="st0" d="M124,207.4c-1.1,0-1.9-0.9-1.9-1.9v-3.2c0-1.1,0.9-1.9,1.9-1.9s1.9,0.9,1.9,1.9v3.2c0,0.5-0.2,1-0.6,1.4
	C125,207.2,124.5,207.4,124,207.4z"/>
<path class="st0" d="M111.2,207.4c-1.1,0-1.9-0.9-1.9-1.9v-3.2c0-1.1,0.9-1.9,1.9-1.9c1.1,0,1.9,0.9,1.9,1.9v3.2
	c0,0.5-0.2,1-0.6,1.4C112.2,207.2,111.7,207.4,111.2,207.4z"/>
<path class="st0" d="M199,86.7c-0.9,0-1.7-0.7-1.9-1.6c-1-4.9-6.3-4-6.9-3.9c-1,0.2-2-0.5-2.2-1.6c-0.2-1,0.5-2,1.5-2.3
	c1.6-0.3,3.3-0.2,4.9,0.1c1.8,0.4,3.4,1.4,4.6,2.8c1.6-2,4.4-3.7,8.7-3.7c1.1,0,1.9,0.9,1.9,1.9c0,1.1-0.9,1.9-1.9,1.9
	c-5.8,0-6.7,4.1-6.8,4.6l0,0C200.8,86,200,86.7,199,86.7L199,86.7z"/>
<path class="st0" d="M36.7,96.8h-0.3c-0.9-0.1-1.6-0.9-1.7-1.8c0-1.9-1.2-3.7-3-4.3c-1-0.4-2.1-0.6-3.2-0.6c-0.5,0-1-0.2-1.4-0.5
	c-0.4-0.3-0.6-0.8-0.6-1.3c0-1.1,0.8-2,1.8-2c1.6,0,3.2,0.2,4.8,0.8c1.7,0.6,3.2,1.8,4.2,3.4c1.9-1.7,4.9-3,9.1-2.4
	c1.1,0,1.9,0.9,1.9,2c0,1.1-0.9,1.9-2,1.9c-0.1,0-0.3,0-0.4-0.1c-2.6-0.4-4.6,0.1-6,1.5c-0.6,0.6-1,1.3-1.4,2
	C38.3,96.2,37.6,96.8,36.7,96.8L36.7,96.8z"/>
<path class="st0" d="M58.7,174.7H40.3c-1.1,0-1.9-0.9-1.9-1.9s0.9-1.9,1.9-1.9h18.5c1.1,0,1.9,0.9,1.9,1.9S59.8,174.7,58.7,174.7z"
	/>
<path class="st0" d="M83,86.9H64.5c-1.1,0-1.9-0.9-1.9-1.9s0.9-1.9,1.9-1.9H83c1.1,0,1.9,0.9,1.9,1.9S84.1,86.9,83,86.9z"/>
<path class="st0" d="M111.9,86.9H93.5c-1.1,0-1.9-0.9-1.9-1.9s0.9-1.9,1.9-1.9h18.5c1.1,0,1.9,0.9,1.9,1.9S113,86.9,111.9,86.9z"/>
<path class="st0" d="M140.8,86.9h-18.5c-1.1,0-1.9-0.9-1.9-1.9s0.9-1.9,1.9-1.9h18.5c1.1,0,1.9,0.9,1.9,1.9S141.9,86.9,140.8,86.9z"
	/>
<path class="st0" d="M169.7,86.9h-18.5c-1.1,0-1.9-0.9-1.9-1.9s0.9-1.9,1.9-1.9h18.5c1.1,0,1.9,0.9,1.9,1.9S170.8,86.9,169.7,86.9
	L169.7,86.9z"/>
<path class="st0" d="M195.3,174.7h-18.5c-1.1,0-1.9-0.9-1.9-1.9s0.9-1.9,1.9-1.9h18.5c1.1,0,1.9,0.8,2,1.9
	C197.2,173.8,196.3,174.7,195.3,174.7L195.3,174.7z"/>
<path d="M95.3,165.4c-4.3,0-7.9-3.5-7.9-7.9c0-4.3,3.5-7.9,7.9-7.9s7.9,3.5,7.9,7.9l0,0C103.2,161.8,99.7,165.3,95.3,165.4z
	 M95.3,151.2c-3.5,0-6.3,2.8-6.3,6.3s2.8,6.3,6.3,6.3c3.5,0,6.3-2.8,6.3-6.3l0,0C101.7,154,98.8,151.2,95.3,151.2L95.3,151.2z"/>
<path d="M108.4,177.4c-4.3,0-7.9-3.5-7.9-7.9s3.5-7.9,7.9-7.9c4.3,0,7.9,3.5,7.9,7.9c0,0,0,0,0,0
	C116.2,173.8,112.7,177.4,108.4,177.4z M108.4,163.1c-3.5,0-6.4,2.9-6.4,6.4c0,3.5,2.9,6.4,6.4,6.4c3.5,0,6.4-2.9,6.4-6.4
	C114.7,166,111.9,163.2,108.4,163.1L108.4,163.1z"/>
<path d="M139.2,165.4c-4.3,0-7.9-3.5-7.9-7.9c0-4.3,3.5-7.9,7.9-7.9c4.3,0,7.9,3.5,7.9,7.9l0,0C147.1,161.8,143.6,165.3,139.2,165.4
	z M139.2,150.9c-3.6,0-6.6,2.9-6.6,6.6c0,3.6,2.9,6.6,6.6,6.6c3.6,0,6.6-2.9,6.6-6.6c0,0,0,0,0,0
	C145.8,153.9,142.9,150.9,139.2,150.9z"/>
<path d="M126.7,177.4c-4.3,0-7.9-3.5-7.9-7.9c0-4.3,3.5-7.9,7.9-7.9c4.3,0,7.9,3.5,7.9,7.9c0,0,0,0,0,0
	C134.5,173.8,131,177.4,126.7,177.4z M126.7,163.1c-3.6,0-6.5,2.9-6.5,6.5c0,3.6,2.9,6.5,6.5,6.5c3.6,0,6.5-2.9,6.5-6.5
	C133.2,166,130.3,163.1,126.7,163.1L126.7,163.1z"/>
<path d="M137.9,126.5c-3.3-5.6-10.5-7.6-16.1-4.3c-1.4,0.8-2.6,1.9-3.5,3.2l-0.5,0.7l-0.5-0.7l0,0c-2.2-3-5.7-4.7-9.5-4.7h-0.3
	c-4,0-7.8,2.1-10,5.5c-1.3,2.1-2,4.6-2,7.1v2.1c0,3.1,0.8,6.2,2.3,9c1.5,2.8,3.7,5.1,6.3,6.9l6.5,4.3l6.9,4.5c0.3,0.2,0.6,0.2,0.8,0
	l13.4-8.9c2.6-1.7,4.8-4.1,6.2-6.9c1.5-2.8,2.3-5.9,2.3-9v-1C140.1,131.5,139.3,128.8,137.9,126.5L137.9,126.5z M113.3,155.2
	l0.3,0.5l-7.5-4.9l-0.4-0.3l3.8-5.7l0,0c0.1-0.1,0.1-0.3,0.1-0.4V142c0-0.9,0.4-1.8,1-2.5l0.1-0.1l0.4,1.6l0,0
	c0.1,0.3,0.4,0.6,0.7,0.5h1.8c0.5,0,1,0.2,1.3,0.6c0.5,0.8,1.3,1.3,2.2,1.5v0.8c0,0.4-0.2,0.8-0.4,1.1c-0.3,0.3-0.7,0.4-1,0.4
	c-0.4,0-0.8,0.3-0.8,0.8v2.7c0,0.5-0.2,1-0.4,1.5l-0.9,1.4c-0.1,0.1-0.1,0.3-0.1,0.4v2.2C113.3,154.9,113.3,155.1,113.3,155.2
	L113.3,155.2z M116.3,157.5l-0.8-0.5v-0.6c0-0.1,0-0.2-0.1-0.3l0,0l0.8-0.8V157.5z M122.2,155.5l-1.5,1v-4.2l1.5-1.1V155.5z
	 M123.6,146.2L123.6,146.2c0,1.1-0.5,2.1-1.2,2.9l-2.9,2.2c-0.2,0.1-0.3,0.4-0.3,0.6v5.6l-1.5,1v-5.1c0-0.3-0.2-0.5-0.5-0.6
	c-0.3-0.1-0.6,0-0.8,0.2l-1.7,1.7v-1.8l0.8-1.2c0.4-0.7,0.7-1.5,0.6-2.3v-2c0.6-0.2,1.2-0.5,1.6-1c0.4-0.5,0.7-1.2,0.6-1.8V143
	c0-0.2-0.1-0.4-0.2-0.5c-0.1-0.2-0.3-0.2-0.5-0.2c-0.7,0-1.3-0.4-1.7-0.9c-0.3-0.5-0.7-0.8-1.3-1l1.1-1.1l0,0l2.6,1.3l0,0
	c1.3,0.7,2.8,1,4.3,1h0.3l0.4,2.8l0,0C123.5,144.9,123.6,145.5,123.6,146.2L123.6,146.2z M118.5,134.1v2.4c0,0.3-0.2,0.5-0.5,0.5
	H117v-1.3c0-1.8,0.7-3.6,2-4.9c0.3-0.3,0.8-0.5,1.3-0.5h1.6c0.5,0,0.9,0.2,1.3,0.5l1.5,1.5l0,0c0.2,0.1,0.3,0.2,0.5,0.2h1.5v1.1l0,0
	c0,0.6-0.5,1.1-1.1,1.1c0,0,0,0,0,0h-1.8c-0.4,0-0.8,0.3-0.8,0.8v4.4h-0.1c-1.3,0-2.5-0.3-3.6-0.9l-1.3-0.6l0,0
	c0.5,0,1.1-0.2,1.5-0.6c0.4-0.4,0.6-0.9,0.6-1.5V134L118.5,134.1z M138.6,135.3L138.6,135.3c0,5.9-3,11.4-7.9,14.6l-7,4.7V150
	c0.8-1,1.3-2.3,1.4-3.7c0-0.7,0-1.4-0.1-2.1l-0.5-4.1v-3.7h1.1c0.7,0,1.3-0.3,1.8-0.8c0.5-0.5,0.8-1.2,0.8-1.8v-1.8
	c0-0.2-0.1-0.4-0.2-0.5c-0.1-0.1-0.3-0.2-0.5-0.2h-1.9l-1.3-1.3c-0.6-0.6-1.4-1-2.3-1h-1.6c-0.9,0-1.7,0.3-2.3,1
	c-1.6,1.6-2.4,3.7-2.4,5.9v1.8l-2.6,2.6h-0.6l-0.6-2.4c-0.1-0.3-0.3-0.5-0.5-0.5c-0.3-0.1-0.6,0-0.8,0.3l-1,1.3
	c-0.8,1-1.3,2.2-1.3,3.4v2.3l-2.1,3.1l0,0c-1.3-0.9-2.4-2-3.4-3.3l-0.6-0.8c-0.3-0.3-0.7-0.4-1-0.1c-0.3,0.3-0.4,0.7-0.1,1l0.6,0.8
	c1.1,1.3,2.3,2.5,3.7,3.6l-0.8,1.1c-2.3-1.6-4.2-3.8-5.5-6.3c-1.3-2.5-2-5.3-2-8.1v-2.1c0-2.2,0.6-4.4,1.8-6.3
	c1.9-3,5.2-4.8,8.7-4.8h0.3c3.3,0,6.3,1.5,8.3,4.1l1.1,1.5c0.1,0.2,0.4,0.3,0.6,0.3c0.2,0,0.4-0.1,0.6-0.3l1.1-1.5
	c3.4-4.6,9.9-5.5,14.5-2c1.1,0.8,2,1.9,2.7,3c1.2,2.1,1.9,4.6,1.9,7V135.3z"/>
<path d="M120.7,131.8h1.5v1.5h-1.5L120.7,131.8z"/>
<path d="M112.6,143h1.5v1.5h-1.5V143z"/>
<path d="M136.4,135.5c-0.4,0-0.8,0.3-0.8,0.8v0.3c0,1.2-0.2,2.5-0.6,3.6l-0.1,0.3l0,0c-0.1,0.2-0.1,0.4,0,0.6c0.2,0.4,0.6,0.5,1,0.3
	c0,0,0,0,0,0c0.2-0.1,0.3-0.2,0.4-0.4l0.1-0.3c0.4-1.3,0.7-2.7,0.6-4.1v-0.3c0-0.2-0.1-0.4-0.2-0.5
	C136.7,135.6,136.5,135.5,136.4,135.5L136.4,135.5z"/>
<path d="M136.4,131.8c-0.4,0-0.8,0.3-0.8,0.8v0.8c0,0.4,0.3,0.8,0.7,0.8c0.4,0,0.8-0.3,0.8-0.7c0,0,0-0.1,0-0.1v-0.8
	c0-0.2-0.1-0.4-0.2-0.5C136.8,131.9,136.6,131.8,136.4,131.8z"/>
<rect x="63.8" y="40.3" class="st1" width="107.6" height="8.5"/>
<rect x="51.4" y="52.7" class="st1" width="132.4" height="8.5"/>
<path d="M1.1,189.1c-0.1,0-0.2,0-0.2,0c-0.6-0.1-1-0.7-0.8-1.3c0.7-3.4,2.3-5.8,4.7-7.1c3.6-2,7.7-0.5,7.9-0.4
	c0.6,0.2,0.9,0.9,0.7,1.4c-0.2,0.6-0.9,0.9-1.4,0.7l0,0c0,0-3.3-1.2-6.1,0.3c-1.8,1-3,2.8-3.6,5.6C2.1,188.7,1.6,189.1,1.1,189.1
	L1.1,189.1z"/>
<path d="M7.8,195.7c-0.5,0-0.9-0.3-1.1-0.8c-1.3-4.6,0.5-7.5,2.3-9c1.2-1.1,2.6-1.8,4.1-2.3c0.6-0.2,1.2,0.2,1.4,0.7
	c0.2,0.6-0.2,1.2-0.7,1.4c0,0,0,0,0,0c-0.3,0.1-6.7,2-4.8,8.6c0.2,0.6-0.2,1.2-0.8,1.4C8,195.7,7.9,195.7,7.8,195.7L7.8,195.7z"/>
<path d="M14.5,180.1c-0.4,0-0.7-0.2-0.9-0.5c-0.2-0.3-5-6.9-10.7-3c-0.5,0.3-1.2,0.2-1.6-0.3s-0.2-1.2,0.3-1.6
	c6-4,11.6,0.6,13.8,3.6c0.4,0.5,0.3,1.2-0.2,1.5c0,0,0,0,0,0C14.9,180,14.7,180.1,14.5,180.1L14.5,180.1z"/>
<path d="M17.8,180.1c-0.6,0-1.1-0.5-1.1-1.1c0,0,0,0,0,0c0-0.1,0.1-8.9,10-8.9c0.6,0,1.2,0.4,1.2,1s-0.4,1.2-1,1.2c0,0-0.1,0-0.1,0
	c-7.5,0-7.8,6-7.8,6.7C18.9,179.6,18.4,180.1,17.8,180.1C17.8,180.2,17.8,180.2,17.8,180.1L17.8,180.1z"/>
<path d="M21.2,182.4c-0.2,0-0.3,0-0.5-0.1c-0.5-0.3-0.8-0.9-0.5-1.5c0,0,0,0,0,0c0.9-1.9,4-4.8,9.2-2.8c0.6,0.3,0.8,1,0.5,1.5
	c-0.3,0.5-0.8,0.7-1.4,0.5c-4.4-1.8-6.2,1.3-6.4,1.7C21.9,182.1,21.6,182.3,21.2,182.4L21.2,182.4z"/>
<path d="M32.2,201.5c-2.3-7-6.9-14.7-15.9-21.1c-0.5-0.3-1.2-0.2-1.6,0.2c-0.4,0.5-0.3,1.2,0.2,1.5c0,0,0,0,0,0
	c9.8,7,14.1,15.4,15.9,22.8C31.4,203.8,31.8,202.6,32.2,201.5z"/>
<path d="M218,178.2c-0.2-0.4-0.7-0.6-1.1-0.4c0,0,0,0-0.1,0c-9.1,4.8-13,16.5-14.6,26.1c0.5-0.1,1-0.1,1.5-0.2c0.1,0,0.2,0,0.3-0.1
	c1.6-9.2,5.3-20,13.6-24.4C218.1,179.2,218.3,178.6,218,178.2z"/>
<path d="M226.5,176.8c-0.2,0-0.3,0-0.4-0.1c-3.9-1.8-6.6,0.6-6.7,0.7c-0.4,0.3-0.9,0.3-1.2-0.1c-0.3-0.3-0.3-0.9,0-1.2c0,0,0,0,0,0
	c0.2-0.1,3.6-3.3,8.6-1c0.4,0.2,0.6,0.7,0.4,1.1C227.1,176.5,226.8,176.7,226.5,176.8L226.5,176.8z"/>
<path d="M225.1,184.4c-0.4,0.1-0.8-0.2-0.9-0.6c-0.9-3.7-4.5-3.5-4.6-3.5c-0.5,0-0.9-0.3-0.9-0.8c0,0,0,0,0,0c0-0.5,0.3-0.9,0.8-0.9
	c3-0.2,5.7,1.9,6.4,4.8c0.1,0.4-0.2,0.9-0.6,1C225.3,184.4,225.2,184.4,225.1,184.4L225.1,184.4z"/>
<path d="M219.2,188.7c-0.2,0-0.3,0-0.4-0.1c-0.4-0.2-0.6-0.7-0.4-1.1c1.7-3.7-0.9-5.4-1.3-5.6c-0.4-0.2-0.6-0.7-0.4-1.1
	c0.2-0.4,0.7-0.6,1.1-0.4c0,0,0.1,0,0.1,0.1c1.5,0.9,3.8,3.6,1.9,7.8C219.8,188.5,219.5,188.7,219.2,188.7L219.2,188.7z"/>
<path d="M216.3,177H216c-0.5-0.1-0.8-0.5-0.7-1c0-0.3,0.3-2.7-2.3-3c-0.5-0.1-0.8-0.5-0.7-1c0.1-0.5,0.5-0.8,1-0.7
	c3.4,0.5,3.9,3.4,3.7,4.9C217,176.7,216.6,177,216.3,177z"/>
<path d="M213.9,179c-0.4,0-0.8-0.2-0.9-0.6c0,0-0.6-1.8-1.9-2.4c-0.9-0.4-1.9-0.3-3.2,0.3c-0.4,0.2-0.9,0-1.1-0.4c0,0,0,0,0,0
	c-0.2-0.4,0-0.9,0.4-1.1c1.7-0.8,3.3-0.9,4.6-0.3c2.1,1,2.8,3.4,2.9,3.6c0.1,0.5-0.1,0.9-0.6,1.1L213.9,179z"/>
</svg>
