<svg id="Ebene_1" data-name="Ebene 1" xmlns="http://www.w3.org/2000/svg" viewBox="0 0 392.99 348"><defs><style>.cls-1{stroke:#000;stroke-miterlimit:10;}.cls-2{fill:#fff;}</style></defs><path d="M128.13,87.89A40.07,40.07,0,1,0,88,128,40.15,40.15,0,0,0,128.13,87.89ZM88.06,122.37a34.49,34.49,0,1,1,34.55-34.48,34.51,34.51,0,0,1-34.55,34.48" transform="translate(-3 -26.26)"/><path d="M92.54,40.35V30.74a4.48,4.48,0,0,0-9,0v9.61a4.48,4.48,0,0,0,9,0Z" transform="translate(-3 -26.26)"/><path d="M83.64,135.36V145a4.48,4.48,0,1,0,9,0v-9.61a4.49,4.49,0,0,0-4.48-4.48A4.44,4.44,0,0,0,83.64,135.36Z" transform="translate(-3 -26.26)"/><path d="M124.88,57.43l6.82-6.82a4.45,4.45,0,1,0-6.3-6.3l-6.82,6.82C114.3,55.35,120.72,61.52,124.88,57.43Z" transform="translate(-3 -26.26)"/><path d="M50.85,131.4l6.82-6.82a4.45,4.45,0,0,0-6.3-6.3l-6.82,6.82a4.45,4.45,0,0,0,6.3,6.3Z" transform="translate(-3 -26.26)"/><path d="M31,83.41a4.48,4.48,0,1,0,0,9h9.62a4.48,4.48,0,0,0,0-9Z" transform="translate(-3 -26.26)"/><path d="M51.37,57.43a4.45,4.45,0,0,0,6.3-6.3l-6.82-6.82a4.45,4.45,0,0,0-6.3,6.3Z" transform="translate(-3 -26.26)"/><path class="cls-1" d="M125.53,341.48a3,3,0,0,1-3-3V245.76a3.1,3.1,0,0,1,1-2.27l76.89-67.22a3,3,0,0,1,4.16.39,3,3,0,0,1-.2,4.16l-75.91,66.3v91.31a3.06,3.06,0,0,1-.91,2.14,2.9,2.9,0,0,1-2.08.91Z" transform="translate(-3 -26.26)"/><path class="cls-1" d="M279.64,341.48a3,3,0,0,1-3-3V247.12l-75.92-66.37a3,3,0,0,1,4-4.54l76.9,67.28a3,3,0,0,1,1,2.27V338.5a3,3,0,0,1-.9,2.14,3,3,0,0,1-2.08.84Z" transform="translate(-3 -26.26)"/><path class="cls-1" d="M135.47,354.6a3,3,0,0,1-3-3c0-4-1-6.69-3.25-8.32-4.87-3.63-13.9-1.23-14-1.23h0a2.82,2.82,0,0,1-2.4-.33,2.94,2.94,0,0,1-1.36-2,6.77,6.77,0,0,0-2.92-5c-3.32-2.08-8.25-.84-8.32-.84a3.07,3.07,0,0,1-3.63-2c-.07-.26-2.41-6.69-13.32-6.17q-4.66.19-7,2.93c-2.79,3.24-2.4,8.24-2.4,8.31h0a3.06,3.06,0,0,1-2.47,3.25A11.06,11.06,0,0,0,61.63,351a3,3,0,0,1-3,3,3,3,0,0,1-3-3,17.12,17.12,0,0,1,12.28-16.17,17.34,17.34,0,0,1,3.83-10.07c2.66-3.11,6.43-4.8,11.3-5,11.17-.58,16.17,4.68,18.18,7.93,2.66-.33,7-.26,10.59,2h0a12.23,12.23,0,0,1,4.8,6c4-.65,11.17-1,16.3,2.79,3.77,2.79,5.65,7.21,5.65,13.12h0a3,3,0,0,1-.91,2.14,3.9,3.9,0,0,1-2.2.78Z" transform="translate(-3 -26.26)"/><path class="cls-1" d="M135.47,373.76H58.58a3,3,0,0,1-3-3V350.9a3,3,0,0,1,3-3h76.89a3.08,3.08,0,0,1,2.14.91,3,3,0,0,1,.91,2.15v19.8a3.1,3.1,0,0,1-.91,2.15A3.29,3.29,0,0,1,135.47,373.76Zm-73.91-6h70.85V353.89H61.56Z" transform="translate(-3 -26.26)"/><path class="cls-1" d="M270,354.6a3,3,0,0,1-3-3c0-5.91,1.88-10.33,5.65-13.12,5.13-3.83,12.27-3.45,16.3-2.8a12.33,12.33,0,0,1,4.8-6c3.64-2.33,7.93-2.33,10.59-2,2-3.25,7-8.51,18.18-7.92,4.81.26,8.64,1.95,11.3,5a17.39,17.39,0,0,1,3.84,10.07A17.1,17.1,0,0,1,350,351h0a3,3,0,0,1-6,0,11,11,0,0,0-9.74-10.85,2.94,2.94,0,0,1-2.46-3.25c0-.06.39-5.06-2.41-8.24-1.56-1.82-3.89-2.73-7-2.93-10.91-.52-13.18,5.91-13.31,6.17h0a3,3,0,0,1-3.64,2c-.07,0-5-1.24-8.31.84a6.86,6.86,0,0,0-2.93,5,2.94,2.94,0,0,1-1.36,2,2.84,2.84,0,0,1-2.4.33c-2.53-.72-9.94-1.88-14,1.23-2.21,1.63-3.25,4.35-3.25,8.32h0a3.05,3.05,0,0,1-.91,2.14,3.57,3.57,0,0,1-2.2.84Z" transform="translate(-3 -26.26)"/><path class="cls-1" d="M346.92,373.76H270a3,3,0,0,1-3-3V350.9a3,3,0,0,1,3-3h76.89a3.06,3.06,0,0,1,2.14.91A3,3,0,0,1,350,351v19.8a3.1,3.1,0,0,1-.91,2.15A3.27,3.27,0,0,1,346.92,373.76Zm-73.91-6h70.85V353.89H273Z" transform="translate(-3 -26.26)"/><path class="cls-1" d="M268.79,373.76H134.23a3,3,0,0,1-3-3,3,3,0,0,1,3-3H268.79a3,3,0,1,1,0,6Z" transform="translate(-3 -26.26)"/><path class="cls-1" d="M124.56,258.42h-66a3.19,3.19,0,0,1-2.41-1.17,3,3,0,0,1-.52-2.66l19.23-67.28a3,3,0,0,1,2.85-2.21H191.38a3,3,0,0,1,3,3,3,3,0,0,1-3,3H80.07L62.54,252.32h62a3,3,0,0,1,3,3,3.13,3.13,0,0,1-3,3.11Z" transform="translate(-3 -26.26)"/><path class="cls-1" d="M68.25,340.12a3,3,0,0,1-3-3V255.37h0a3,3,0,0,1,3-3,3,3,0,0,1,3,3v81.7h0a3.06,3.06,0,0,1-.91,2.14A2.68,2.68,0,0,1,68.25,340.12Z" transform="translate(-3 -26.26)"/><path class="cls-1" d="M346.92,258.42h-66a3,3,0,0,1-3-3,3,3,0,0,1,3-3h62l-17.54-61.24H213.72a3,3,0,0,1-3-3,3,3,0,0,1,3-3h114a2.92,2.92,0,0,1,2.86,2.21l19.22,67.28a3,3,0,0,1-.52,2.66,3.22,3.22,0,0,1-2.33,1Z" transform="translate(-3 -26.26)"/><path class="cls-1" d="M337.18,340.12a3,3,0,0,1-3-3V255.37h0a3,3,0,1,1,6,0v81.7h0a3,3,0,0,1-.91,2.14A2.76,2.76,0,0,1,337.18,340.12Z" transform="translate(-3 -26.26)"/><path class="cls-1" d="M308.47,123H97a3,3,0,0,1-3-3V100.74a3,3,0,0,1,3-3H308.47a3,3,0,0,1,2.14.91,2.92,2.92,0,0,1,.91,2.14V120a3.06,3.06,0,0,1-.91,2.15A3.6,3.6,0,0,1,308.47,123Zm-208.46-6H305.42V103.67H100Z" transform="translate(-3 -26.26)"/><path class="cls-1" d="M289.25,103.73h-173a3,3,0,0,1-3-3V81.52a3,3,0,0,1,3-3h173a3.06,3.06,0,0,1,2.14.91,2.94,2.94,0,0,1,.91,2.15v19.22a3,3,0,0,1-.91,2.14A3.55,3.55,0,0,1,289.25,103.73Zm-170-6h167V84.51h-167Z" transform="translate(-3 -26.26)"/><path class="cls-1" d="M106.63,191.14a3,3,0,0,1-3-3V120a3,3,0,0,1,3-3,3,3,0,0,1,3,3v68.19a3.08,3.08,0,0,1-.91,2.14A3,3,0,0,1,106.63,191.14Z" transform="translate(-3 -26.26)"/><path class="cls-1" d="M298.86,191.14a3,3,0,0,1-3-3V120a3,3,0,0,1,3-3,3,3,0,0,1,3,3v68.19a3.08,3.08,0,0,1-.91,2.14A3,3,0,0,1,298.86,191.14Z" transform="translate(-3 -26.26)"/><path class="cls-1" d="M112,312H82.73a3,3,0,0,1-3-3V271.35a3,3,0,0,1,3-3H112a3.06,3.06,0,0,1,2.15.91,3,3,0,0,1,.9,2.14v37.67h0a3,3,0,0,1-.9,2.14A3.6,3.6,0,0,1,112,312Zm-26.3-6H109V274.4H85.72Z" transform="translate(-3 -26.26)"/><path class="cls-1" d="M323.93,312H294.64a3,3,0,0,1-3-3V271.35a3,3,0,0,1,3-3h29.29a3,3,0,0,1,2.14.91,2.92,2.92,0,0,1,.91,2.14v37.67h0a3,3,0,0,1-.91,2.14,3.55,3.55,0,0,1-2.14.78Zm-26.3-6h23.25V274.4H297.63Z" transform="translate(-3 -26.26)"/><path class="cls-1" d="M149.69,175.88H120.4a3,3,0,0,1-3-3V135.23a3,3,0,0,1,3-3h29.29a3.06,3.06,0,0,1,2.14.91,2.93,2.93,0,0,1,.91,2.14V173a3,3,0,0,1-.91,2.14A3.41,3.41,0,0,1,149.69,175.88Zm-26.24-6H146.7V138.22H123.45v31.62Z" transform="translate(-3 -26.26)"/><path class="cls-1" d="M194.56,175.88H165.27a3,3,0,0,1-3-3V135.23a3,3,0,0,1,3-3h29.29a3.1,3.1,0,0,1,2.15.91,3,3,0,0,1,.91,2.14V173a3.06,3.06,0,0,1-.91,2.14A3.6,3.6,0,0,1,194.56,175.88Zm-26.23-6h23.25V138.22H168.33Z" transform="translate(-3 -26.26)"/><path class="cls-1" d="M239.44,175.88H210.15a3,3,0,0,1-3-3V135.23a3,3,0,0,1,3-3h29.29a3.06,3.06,0,0,1,2.14.91,2.93,2.93,0,0,1,.91,2.14V173a3,3,0,0,1-.91,2.14A3.55,3.55,0,0,1,239.44,175.88Zm-26.3-6h23.25V138.22H213.14Z" transform="translate(-3 -26.26)"/><path class="cls-1" d="M284.25,175.88H255a3,3,0,0,1-3-3V135.23a3,3,0,0,1,3-3h29.23a3.06,3.06,0,0,1,2.14.91,2.93,2.93,0,0,1,.91,2.14V173a3,3,0,0,1-.91,2.14A3.41,3.41,0,0,1,284.25,175.88Zm-26.24-6h23.25V138.22H258Z" transform="translate(-3 -26.26)"/><path class="cls-1" d="M241.52,373.76a3,3,0,0,1-3-3V308H167v62.8a3,3,0,0,1-3,3,3,3,0,0,1-3-3V304.92a3,3,0,0,1,3-3h77.48a3.06,3.06,0,0,1,2.14.91,3,3,0,0,1,.91,2.15v65.78a3.1,3.1,0,0,1-.91,2.15A3.15,3.15,0,0,1,241.52,373.76Z" transform="translate(-3 -26.26)"/><path class="cls-1" d="M202.49,373.76a3,3,0,0,1-3-3V305.38a3,3,0,1,1,6,0v65.33a3,3,0,0,1-.91,2.14A2.76,2.76,0,0,1,202.49,373.76Z" transform="translate(-3 -26.26)"/><path class="cls-1" d="M212.68,343.76a3,3,0,0,1-3-3v-5a3,3,0,0,1,3-3,3,3,0,0,1,3,3v5a3.06,3.06,0,0,1-.91,2.14A2.63,2.63,0,0,1,212.68,343.76Z" transform="translate(-3 -26.26)"/><path class="cls-1" d="M192.87,343.76a3,3,0,0,1-3-3v-5a3,3,0,0,1,3-3,3,3,0,0,1,3,3v5a3,3,0,0,1-.91,2.14A2.73,2.73,0,0,1,192.87,343.76Z" transform="translate(-3 -26.26)"/><path class="cls-1" d="M329.19,156.53a3,3,0,0,1-2.92-2.47c-1.5-7.53-9.75-6.23-10.65-6.1a3,3,0,0,1-3.45-2.41,3,3,0,0,1,2.34-3.5,20.92,20.92,0,0,1,7.53.19,13.35,13.35,0,0,1,7.21,4.29c2.54-3.05,6.76-5.72,13.45-5.72a3,3,0,0,1,3,3,3,3,0,0,1-3,3c-9,0-10.46,6.36-10.52,7.08h0a3.06,3.06,0,0,1-3,2.66Z" transform="translate(-3 -26.26)"/><path class="cls-1" d="M77.28,172.12h-.39a3.12,3.12,0,0,1-2.66-2.86,7,7,0,0,0-4.68-6.69,14,14,0,0,0-4.94-.91,2.92,2.92,0,0,1-2.14-.78,2.88,2.88,0,0,1-1-2.08,3,3,0,0,1,2.86-3.11,19.22,19.22,0,0,1,7.4,1.29,13.15,13.15,0,0,1,6.56,5.26c2.92-2.66,7.53-4.67,14.15-3.76a3,3,0,1,1-.84,5.91c-4-.59-7.14.19-9.35,2.34a10.1,10.1,0,0,0-2.14,3.11,3,3,0,0,1-2.86,2.28Z" transform="translate(-3 -26.26)"/><path class="cls-1" d="M111.44,293H82.8a3,3,0,0,1-3-3,3,3,0,0,1,3-3h28.64a3,3,0,0,1,3,3A3,3,0,0,1,111.44,293Z" transform="translate(-3 -26.26)"/><path class="cls-1" d="M149.1,156.85H120.46a3,3,0,0,1-3-3,3,3,0,0,1,3-3H149.1a3,3,0,1,1,0,6Z" transform="translate(-3 -26.26)"/><path class="cls-1" d="M194,156.85H165.34a3,3,0,0,1-3-3,3,3,0,0,1,3-3H194a3,3,0,0,1,3,3A3,3,0,0,1,194,156.85Z" transform="translate(-3 -26.26)"/><path class="cls-1" d="M238.79,156.85H210.15a3,3,0,0,1-3-3,3,3,0,0,1,3-3h28.64a3,3,0,1,1,0,6Z" transform="translate(-3 -26.26)"/><path class="cls-1" d="M283.66,156.85H255a3,3,0,0,1-3-3,3,3,0,0,1,3-3h28.64a3,3,0,1,1,0,6Z" transform="translate(-3 -26.26)"/><path class="cls-1" d="M323.34,293h-28.7a3,3,0,0,1-3-3,3,3,0,0,1,3-3h28.64a3,3,0,0,1,.06,6Z" transform="translate(-3 -26.26)"/><path d="M168.26,278.56a12.21,12.21,0,1,1,12.21-12.21,12.24,12.24,0,0,1-12.21,12.21Zm0-22a9.81,9.81,0,1,0,9.81,9.81A9.84,9.84,0,0,0,168.26,256.54Z" transform="translate(-3 -26.26)"/><path d="M188.46,297.19A12.21,12.21,0,1,1,200.67,285,12.23,12.23,0,0,1,188.46,297.19Zm0-22.08a9.94,9.94,0,1,0,9.94,9.94A10,10,0,0,0,188.46,275.11Z" transform="translate(-3 -26.26)"/><path d="M236.39,278.56a12.21,12.21,0,1,1,12.21-12.21A12.24,12.24,0,0,1,236.39,278.56Zm0-22.41a10.2,10.2,0,1,0,10.19,10.2A10.26,10.26,0,0,0,236.39,256.15Z" transform="translate(-3 -26.26)"/><path d="M216.9,297.19A12.21,12.21,0,1,1,229.11,285,12.23,12.23,0,0,1,216.9,297.19Zm0-22.21A10.07,10.07,0,1,0,227,285.05,10.11,10.11,0,0,0,216.9,275Z" transform="translate(-3 -26.26)"/><path d="M234.37,218.29a18.31,18.31,0,0,0-30.52-1.75l-.84,1.1-.85-1.1h0a18.44,18.44,0,0,0-14.68-7.34H187a18.16,18.16,0,0,0-15.46,8.5,20.67,20.67,0,0,0-3.18,11V232a30.2,30.2,0,0,0,3.51,14,29.64,29.64,0,0,0,9.8,10.65l10.07,6.62,10.65,6.95a1.18,1.18,0,0,0,1.3,0l20.85-13.76a28.8,28.8,0,0,0,9.67-10.66,29.77,29.77,0,0,0,3.51-14v-1.49a24.49,24.49,0,0,0-3.38-12.08Zm-38.18,44.55.45.84L185,256l-.65-.45,5.85-8.77h0a1.11,1.11,0,0,0,.19-.65v-3.83a6.34,6.34,0,0,1,1.56-3.9l.2-.19.58,2.46h0a1.11,1.11,0,0,0,1.1.85h2.8a2.35,2.35,0,0,1,1.94,1,5.71,5.71,0,0,0,3.38,2.34v1.29a2.58,2.58,0,0,1-.65,1.63,2.27,2.27,0,0,1-1.62.65,1.17,1.17,0,0,0-1.17,1.17v4.22a4.79,4.79,0,0,1-.65,2.27l-1.43,2.14a1.11,1.11,0,0,0-.19.65v3.44c-.13.07-.07.26,0,.46Zm4.54,3.51-1.17-.78v-1a1.47,1.47,0,0,0-.13-.52h0l1.3-1.3Zm9.22-3.12-2.33,1.56v-6.56l2.33-1.75Zm2.15-14.42h0a7.34,7.34,0,0,1-1.82,4.55l-4.55,3.37a1.25,1.25,0,0,0-.45.91v8.64l-2.34,1.56V260a1.06,1.06,0,0,0-.71-1,1.12,1.12,0,0,0-1.24.26l-2.66,2.67V259.2l1.23-1.88a6.12,6.12,0,0,0,1-3.51v-3.18a4.57,4.57,0,0,0,2.47-1.62,4.48,4.48,0,0,0,1-2.86v-2.34a1.33,1.33,0,0,0-.32-.84,1,1,0,0,0-.84-.33,3.28,3.28,0,0,1-2.67-1.43,4.38,4.38,0,0,0-1.94-1.62l1.75-1.75-.07.06,4,2h0a15,15,0,0,0,6.69,1.55h.52l.58,4.35h0a8,8,0,0,1,.33,3ZM204.17,230v3.77a.85.85,0,0,1-.84.84H201.9v-2.08A10.44,10.44,0,0,1,205,225a2.84,2.84,0,0,1,2-.84h2.54a2.74,2.74,0,0,1,1.94.78l2.34,2.34h0a1.27,1.27,0,0,0,.85.32H217v1.75h0a1.75,1.75,0,0,1-1.75,1.76h-2.86a1.17,1.17,0,0,0-1.17,1.17v6.88h-.19a12.26,12.26,0,0,1-5.65-1.36l-1.95-1h0a3.34,3.34,0,0,0,2.27-.91,3.21,3.21,0,0,0,.91-2.27v-3.77Zm31.18,1.88h0a27.22,27.22,0,0,1-12.21,22.67l-10.91,7.27v-7.08a9.62,9.62,0,0,0,2.14-5.71,18.45,18.45,0,0,0-.13-3.32l-.84-6.42v-5.72h1.75a4.19,4.19,0,0,0,2.86-1.17,4,4,0,0,0,1.17-2.86v-2.85a1.35,1.35,0,0,0-.33-.85,1.24,1.24,0,0,0-.84-.32h-3l-2-2a5,5,0,0,0-3.57-1.49H207a5.11,5.11,0,0,0-3.64,1.49,13,13,0,0,0-3.77,9.16v2.73l-4,4h-.91l-.91-3.77a1.35,1.35,0,0,0-.84-.84,1.2,1.2,0,0,0-1.17.39l-1.62,1.95a8.47,8.47,0,0,0-2.08,5.32V246l-3.25,4.81h0a29.67,29.67,0,0,1-5.26-5.07l-1-1.29a1.15,1.15,0,0,0-1.82,1.42l1,1.3a30.81,30.81,0,0,0,5.78,5.52l-1.17,1.76a27.09,27.09,0,0,1-8.57-9.74,26.56,26.56,0,0,1-3.05-12.6v-3.31a17.93,17.93,0,0,1,2.86-9.75,16,16,0,0,1,13.51-7.4h.45A16.13,16.13,0,0,1,200.41,218l1.75,2.34a1.25,1.25,0,0,0,.91.45,1.13,1.13,0,0,0,.91-.45l1.75-2.34a16.07,16.07,0,0,1,26.69,1.56,21.46,21.46,0,0,1,2.93,10.91Z" transform="translate(-3 -26.26)"/><path d="M207.62,226.47H210v2.34h-2.33Z" transform="translate(-3 -26.26)"/><path d="M195,243.81h2.34v2.34H195Z" transform="translate(-3 -26.26)"/><path d="M231.91,232.25a1.17,1.17,0,0,0-1.17,1.17v.39a18.51,18.51,0,0,1-.91,5.65l-.2.52h0a1.14,1.14,0,0,0,.07.91,1.15,1.15,0,0,0,1.56.52,1.41,1.41,0,0,0,.58-.65l.19-.52a19.36,19.36,0,0,0,1-6.36v-.39a1.4,1.4,0,0,0-.32-.85,1.14,1.14,0,0,0-.84-.39Z" transform="translate(-3 -26.26)"/><path d="M231.91,226.47a1.17,1.17,0,0,0-1.17,1.17v1.17a1.17,1.17,0,1,0,2.33,0v-1.17a1.39,1.39,0,0,0-.32-.84,1.34,1.34,0,0,0-.84-.33Z" transform="translate(-3 -26.26)"/><rect class="cls-2" x="116.23" y="58.25" width="166.97" height="13.18"/><rect class="cls-2" x="97.01" y="77.48" width="205.41" height="13.25"/><path d="M5.32,306.81a1.36,1.36,0,0,1-.52-.07A2.33,2.33,0,0,1,3.05,304c1.56-7.15,4.87-12.08,9.81-14.74,7.59-4.16,16.17-1,16.56-.85a2.32,2.32,0,1,1-1.63,4.35c-.06,0-6.95-2.53-12.73.59-3.7,2-6.17,5.91-7.46,11.69a2.36,2.36,0,0,1-2.28,1.82Z" transform="translate(-3 -26.26)"/><path d="M19.29,320.77a2.23,2.23,0,0,1-2.21-1.69c-2.73-9.55,1-15.59,4.74-18.9a23.64,23.64,0,0,1,8.51-4.87,2.34,2.34,0,0,1,2.85,1.56,2.29,2.29,0,0,1-1.56,2.86c-.58.19-14,4.28-10.06,18a2.34,2.34,0,0,1-1.63,2.86,3,3,0,0,1-.64.13Z" transform="translate(-3 -26.26)"/><path d="M33.25,288.17a2.3,2.3,0,0,1-1.89-1c-.45-.58-10.52-14.35-22.4-6.36a2.34,2.34,0,0,1-2.6-3.9c12.54-8.38,24.29,1.3,28.77,7.54a2.3,2.3,0,0,1-.52,3.24,2.25,2.25,0,0,1-1.36.46Z" transform="translate(-3 -26.26)"/><path d="M40.2,288.17a2.33,2.33,0,0,1-2.34-2.34c0-.2.26-18.57,20.91-18.57a2.34,2.34,0,1,1,0,4.67c-15.72,0-16.3,12.54-16.3,14a2.22,2.22,0,0,1-2.27,2.28Z" transform="translate(-3 -26.26)"/><path d="M47.21,292.84a2,2,0,0,1-1-.26,2.29,2.29,0,0,1-1-3.11c1.95-3.9,8.44-10.07,19.23-5.78A2.35,2.35,0,0,1,62.6,288c-9.29-3.7-12.92,2.79-13.31,3.57a2.41,2.41,0,0,1-2.08,1.23Z" transform="translate(-3 -26.26)"/><path d="M70.2,332.72c-4.81-14.68-14.48-30.66-33.32-44.1a2.36,2.36,0,0,0-3.24.52,2.31,2.31,0,0,0,.52,3.25c20.39,14.55,29.48,32.21,33.31,47.54A36.12,36.12,0,0,0,70.2,332.72Z" transform="translate(-3 -26.26)"/><path d="M373.15,274.85a2,2,0,0,0-2.85-.84c-22.54,11.95-32.09,40.65-36.11,64.49,1.23-.13,2.4-.26,3.64-.46.25-.06.58-.06.84-.13,4-22.66,13.12-49.35,33.57-60.2A2.13,2.13,0,0,0,373.15,274.85Z" transform="translate(-3 -26.26)"/><path d="M394.06,271.28a1.62,1.62,0,0,1-1.1-.19c-9.68-4.48-16.23,1.43-16.49,1.69a2.15,2.15,0,0,1-3-.13,2.08,2.08,0,0,1,.13-3c.39-.33,8.83-8.12,21.17-2.4a2.14,2.14,0,0,1,1,2.79,2.44,2.44,0,0,1-1.76,1.23Z" transform="translate(-3 -26.26)"/><path d="M390.69,290.18a2.07,2.07,0,0,1-2.28-1.56c-2.33-9.09-11-8.7-11.36-8.7a2.06,2.06,0,0,1-2.21-1.95,2.16,2.16,0,0,1,2-2.27,15.35,15.35,0,0,1,15.72,11.82,2.1,2.1,0,0,1-1.5,2.53.42.42,0,0,1-.32.13Z" transform="translate(-3 -26.26)"/><path d="M376.08,300.77a1.64,1.64,0,0,1-1.11-.2,2.14,2.14,0,0,1-1-2.79c4.16-9.09-2.34-13.38-3.11-13.83a2.09,2.09,0,1,1,2.14-3.58c3.7,2.21,9.42,9,4.74,19.23a2.07,2.07,0,0,1-1.62,1.17Z" transform="translate(-3 -26.26)"/><path d="M368.74,271.93h-.52a2.13,2.13,0,0,1-1.82-2.4c.06-.65.71-6.56-5.65-7.4a2.13,2.13,0,0,1,.58-4.23c8.45,1.17,9.75,8.45,9.23,12.15a2.13,2.13,0,0,1-1.82,1.88Z" transform="translate(-3 -26.26)"/><path d="M362.89,276.74a2.16,2.16,0,0,1-2.27-1.5c0-.06-1.36-4.41-4.81-6-2.14-1-4.74-.78-7.85.65a2.1,2.1,0,0,1-2.8-1,2.17,2.17,0,0,1,1-2.79c4.22-1.95,8.06-2.14,11.37-.65,5.26,2.47,7,8.51,7.14,8.77a2.1,2.1,0,0,1-1.43,2.6Z" transform="translate(-3 -26.26)"/></svg>