<?xml version="1.0" encoding="utf-8"?>
<!-- Generator: Adobe Illustrator 26.0.2, SVG Export Plug-In . SVG Version: 6.00 Build 0)  -->
<svg version="1.1" id="Ebene_1" xmlns="http://www.w3.org/2000/svg" xmlns:xlink="http://www.w3.org/1999/xlink" x="0px" y="0px"
	 viewBox="0 0 752 752" style="enable-background:new 0 0 752 752;" xml:space="preserve">
<style type="text/css">
	.st0{stroke:#000000;stroke-miterlimit:10;}
	.st1{display:none;}
	.st2{fill:#FFFFFF;}
</style>
<g>
	<path d="M261.6,162c0-34-27.7-61.7-61.8-61.7c-34,0-61.6,27.7-61.6,61.7c0,34,27.6,61.7,61.6,61.7C233.9,223.6,261.6,196,261.6,162
		z M199.9,215.1c-29.3,0-53.1-23.8-53.1-53.1c0-29.3,23.8-53.1,53.1-53.1c29.4,0,53.2,23.8,53.2,53.1
		C253.1,191.3,229.2,215.1,199.9,215.1"/>
	<path d="M206.8,88.8V74c0-3.8-3.1-6.9-6.9-6.9c-3.8,0-6.9,3.1-6.9,6.9v14.8c0,3.8,3.1,6.9,6.9,6.9
		C203.8,95.7,206.8,92.6,206.8,88.8z"/>
	<path d="M193.1,235.1V250c0,3.8,3.1,6.9,6.9,6.9c3.8,0,6.9-3.1,6.9-6.9v-14.8c0-3.8-3.1-6.9-6.9-6.9
		C196.2,228.3,193.1,231.3,193.1,235.1z"/>
	<path d="M256.6,115.1l10.5-10.5c2.7-2.7,2.7-7,0-9.7c-2.7-2.7-7-2.7-9.7,0l-10.5,10.5C240.3,111.9,250.2,121.4,256.6,115.1z"/>
	<path d="M142.6,229l10.5-10.5c2.7-2.7,2.7-7,0-9.7c-2.7-2.7-7-2.7-9.7,0l-10.5,10.5c-2.7,2.7-2.7,7,0,9.7
		C135.6,231.7,139.9,231.7,142.6,229z"/>
	<path d="M112,155.1c-3.8,0-6.9,3.1-6.9,6.9s3.1,6.9,6.9,6.9h14.8c3.8,0,6.9-3.1,6.9-6.9s-3.1-6.9-6.9-6.9H112z"/>
	<path d="M143.4,115.1c2.7,2.7,7,2.7,9.7,0c2.7-2.7,2.7-7,0-9.7l-10.5-10.5c-2.7-2.7-7-2.7-9.7,0c-2.7,2.7-2.7,7,0,9.7L143.4,115.1z
		"/>
</g>
<g>
	<path class="st0" d="M257.6,552.5c-2.6,0-4.6-2.1-4.6-4.6V405.1c0-1.3,0.6-2.6,1.6-3.5L373,298.1c1.9-1.6,4.8-1.3,6.4,0.6
		c1.6,1.9,1.5,4.7-0.3,6.4L262.2,407.2v140.6c0,1.2-0.5,2.4-1.4,3.3S258.8,552.5,257.6,552.5L257.6,552.5z"/>
	<path class="st0" d="M494.9,552.5c-2.6,0-4.6-2.1-4.6-4.6V407.2L373.4,305c-1.8-1.7-1.9-4.5-0.3-6.4c1.6-1.9,4.5-2.1,6.4-0.6
		l118.4,103.6c1,0.9,1.6,2.1,1.6,3.5v142.8c0,1.2-0.5,2.4-1.4,3.3C497.3,552,496.1,552.5,494.9,552.5L494.9,552.5z"/>
	<path class="st0" d="M272.9,572.7c-2.6,0-4.6-2.1-4.6-4.6c0-6.1-1.6-10.3-5-12.8c-7.5-5.6-21.4-1.9-21.6-1.9v0
		c-1.3,0.4-2.6,0.2-3.7-0.5c-1.1-0.7-1.9-1.8-2.1-3.1c-0.6-3.7-2.1-6.2-4.5-7.7c-5.1-3.2-12.7-1.3-12.8-1.3
		c-2.4,0.6-4.8-0.8-5.6-3.1c-0.1-0.4-3.7-10.3-20.5-9.5c-4.8,0.2-8.4,1.7-10.8,4.5c-4.3,5-3.7,12.7-3.7,12.8h0
		c0.2,2.4-1.5,4.6-3.8,5c-14.4,2.4-15,15.3-15,16.7c0,2.5-2.1,4.6-4.6,4.6c-2.6,0-4.6-2.1-4.6-4.6c0-7,4.1-20.5,18.9-24.9
		c0.3-4.1,1.5-10.4,5.9-15.5c4.1-4.8,9.9-7.4,17.4-7.7c17.2-0.9,24.9,7.2,28,12.2c4.1-0.5,10.8-0.4,16.3,3.1v0
		c3.4,2.2,6,5.5,7.4,9.3c6.2-1,17.2-1.6,25.1,4.3c5.8,4.3,8.7,11.1,8.7,20.2v0c0,1.2-0.5,2.4-1.4,3.3
		C275.3,572.2,274.1,572.7,272.9,572.7L272.9,572.7z"/>
	<path class="st0" d="M272.9,602.2H154.5c-2.6,0-4.6-2.1-4.6-4.6V567c0-2.6,2.1-4.6,4.6-4.6h118.4c1.2,0,2.4,0.5,3.3,1.4
		c0.9,0.9,1.4,2,1.4,3.3v30.5c0,1.2-0.5,2.4-1.4,3.3C275.3,601.7,274.1,602.2,272.9,602.2z M159.1,592.9h109.1v-21.3H159.1
		L159.1,592.9z"/>
	<path class="st0" d="M480.1,572.7c-2.6,0-4.6-2.1-4.6-4.6c0-9.1,2.9-15.9,8.7-20.2c7.9-5.9,18.9-5.3,25.1-4.3
		c1.4-3.8,4-7.1,7.4-9.3c5.6-3.6,12.2-3.6,16.3-3.1c3.1-5,10.8-13.1,28-12.2c7.4,0.4,13.3,3,17.4,7.7c4.4,5.1,5.6,11.4,5.9,15.5
		c14.8,4.4,18.9,17.9,18.9,24.9l0,0c0,2.6-2.1,4.6-4.6,4.6c-2.6,0-4.6-2.1-4.6-4.6c0-1.5-0.6-14.3-15-16.7c-2.4-0.4-4.1-2.6-3.8-5
		c0-0.1,0.6-7.8-3.7-12.7c-2.4-2.8-6-4.2-10.8-4.5c-16.8-0.8-20.3,9.1-20.5,9.5h0c-0.7,2.4-3.2,3.7-5.6,3.1c-0.1,0-7.7-1.9-12.8,1.3
		c-2.4,1.5-3.9,4.1-4.5,7.7c-0.2,1.3-1,2.4-2.1,3.1c-1.1,0.7-2.5,0.9-3.7,0.5c-3.9-1.1-15.3-2.9-21.6,1.9c-3.4,2.5-5,6.7-5,12.8h0
		c0,1.2-0.5,2.4-1.4,3.3C482.5,572.2,481.3,572.7,480.1,572.7L480.1,572.7z"/>
	<path class="st0" d="M598.5,602.2H480.1c-2.6,0-4.6-2.1-4.6-4.6V567c0-2.6,2.1-4.6,4.6-4.6h118.4c1.2,0,2.4,0.5,3.3,1.4
		c0.9,0.9,1.4,2,1.4,3.3v30.5c0,1.2-0.5,2.4-1.4,3.3C600.9,601.7,599.7,602.2,598.5,602.2z M484.7,592.9h109.1v-21.3H484.7
		L484.7,592.9z"/>
	<path class="st0" d="M478.2,602.2H271c-2.6,0-4.6-2.1-4.6-4.6s2.1-4.6,4.6-4.6h207.2c2.6,0,4.6,2.1,4.6,4.6
		S480.8,602.2,478.2,602.2z"/>
	<path class="st0" d="M256.1,424.6H154.5c-1.4,0-2.8-0.7-3.7-1.8c-0.9-1.2-1.2-2.7-0.8-4.1l29.6-103.6c0.6-2,2.4-3.4,4.4-3.4h175
		c2.6,0,4.6,2.1,4.6,4.6s-2.1,4.6-4.6,4.6H187.6l-27,94.3h95.5c2.6,0,4.6,2.1,4.6,4.6S258.6,424.6,256.1,424.6L256.1,424.6z"/>
	<path class="st0" d="M169.4,550.4c-2.6,0-4.6-2.1-4.6-4.6V419.9v0c0-2.6,2.1-4.6,4.6-4.6s4.6,2.1,4.6,4.6v125.8v0
		c0,1.2-0.5,2.4-1.4,3.3C171.8,549.9,170.7,550.4,169.4,550.4z"/>
	<path class="st0" d="M598.5,424.6H496.9c-2.6,0-4.6-2.1-4.6-4.6s2.1-4.6,4.6-4.6h95.5l-27-94.3h-172c-2.6,0-4.6-2.1-4.6-4.6
		s2.1-4.6,4.6-4.6h175.5c2.1,0,3.9,1.4,4.4,3.4l29.6,103.6c0.4,1.4,0.1,2.9-0.8,4.1C601.3,423.9,599.9,424.6,598.5,424.6
		L598.5,424.6z"/>
	<path class="st0" d="M583.5,550.4c-2.6,0-4.6-2.1-4.6-4.6V419.9v0c0-2.6,2.1-4.6,4.6-4.6c2.6,0,4.6,2.1,4.6,4.6v125.8v0
		c0,1.2-0.5,2.4-1.4,3.3C585.9,549.9,584.7,550.4,583.5,550.4z"/>
	<path class="st0" d="M539.3,216H213.7c-2.6,0-4.6-2.1-4.6-4.6v-29.6c0-2.6,2.1-4.6,4.6-4.6h325.6c1.2,0,2.4,0.5,3.3,1.4
		c0.9,0.9,1.4,2,1.4,3.3v29.6c0,1.2-0.5,2.4-1.4,3.3C541.7,215.5,540.5,216,539.3,216z M218.3,206.7h316.3v-20.4H218.3V206.7z"/>
	<path class="st0" d="M509.7,186.4H243.3c-2.6,0-4.6-2.1-4.6-4.6v-29.6c0-2.6,2.1-4.6,4.6-4.6h266.4c1.2,0,2.4,0.5,3.3,1.4
		c0.9,0.9,1.4,2,1.4,3.3v29.6c0,1.2-0.5,2.4-1.4,3.3C512.1,185.9,510.9,186.4,509.7,186.4z M247.9,177.1H505v-20.3H247.9V177.1z"/>
	<path class="st0" d="M228.5,321c-2.6,0-4.6-2.1-4.6-4.6v-105c0-2.6,2.1-4.6,4.6-4.6s4.6,2.1,4.6,4.6v105c0,1.2-0.5,2.4-1.4,3.3
		C230.9,320.5,229.7,321,228.5,321z"/>
	<path class="st0" d="M524.5,321c-2.6,0-4.6-2.1-4.6-4.6v-105c0-2.6,2.1-4.6,4.6-4.6s4.6,2.1,4.6,4.6v105c0,1.2-0.5,2.4-1.4,3.3
		C526.9,320.5,525.7,321,524.5,321z"/>
	<path class="st0" d="M236.8,507.1h-45.1c-2.6,0-4.6-2.1-4.6-4.6v-58c0-2.6,2.1-4.6,4.6-4.6h45.1c1.2,0,2.4,0.5,3.3,1.4
		c0.9,0.9,1.4,2,1.4,3.3v58v0c0,1.2-0.5,2.4-1.4,3.3C239.2,506.6,238,507.1,236.8,507.1L236.8,507.1z M196.3,497.9h35.8l0-48.7
		h-35.8L196.3,497.9z"/>
	<path class="st0" d="M563.1,507.1H518c-2.6,0-4.6-2.1-4.6-4.6v-58c0-2.6,2.1-4.6,4.6-4.6h45.1c1.2,0,2.4,0.5,3.3,1.4
		c0.9,0.9,1.4,2,1.4,3.3v58v0c0,1.2-0.5,2.4-1.4,3.3C565.5,506.6,564.3,507.1,563.1,507.1L563.1,507.1z M522.6,497.9h35.8v-48.7
		h-35.8V497.9z"/>
	<path class="st0" d="M294.8,297.5h-45.1c-2.6,0-4.6-2.1-4.6-4.6v-58c0-2.6,2.1-4.6,4.6-4.6h45.1c1.2,0,2.4,0.5,3.3,1.4
		c0.9,0.9,1.4,2,1.4,3.3v58c0,1.2-0.5,2.4-1.4,3.3C297.2,297,296.1,297.5,294.8,297.5z M254.4,288.2h35.8v-48.7h-35.8V288.2z"/>
	<path class="st0" d="M363.9,297.5h-45.1c-2.6,0-4.6-2.1-4.6-4.6v-58c0-2.6,2.1-4.6,4.6-4.6h45.1c1.2,0,2.4,0.5,3.3,1.4
		c0.9,0.9,1.4,2,1.4,3.3v58c0,1.2-0.5,2.4-1.4,3.3C366.3,297,365.1,297.5,363.9,297.5z M323.5,288.2h35.8l0-48.7h-35.8L323.5,288.2z
		"/>
	<path class="st0" d="M433,297.5h-45.1c-2.6,0-4.6-2.1-4.6-4.6v-58c0-2.6,2.1-4.6,4.6-4.6H433c1.2,0,2.4,0.5,3.3,1.4
		c0.9,0.9,1.4,2,1.4,3.3v58c0,1.2-0.5,2.4-1.4,3.3C435.4,297,434.2,297.5,433,297.5z M392.5,288.2h35.8l0-48.7h-35.8L392.5,288.2z"
		/>
	<path class="st0" d="M502,297.5H457c-2.6,0-4.6-2.1-4.6-4.6v-58c0-2.6,2.1-4.6,4.6-4.6H502c1.2,0,2.4,0.5,3.3,1.4
		c0.9,0.9,1.4,2,1.4,3.3v58c0,1.2-0.5,2.4-1.4,3.3C504.4,297,503.3,297.5,502,297.5z M461.6,288.2h35.8v-48.7h-35.8V288.2z"/>
	<path class="st0" d="M436.2,602.2c-2.6,0-4.6-2.1-4.6-4.6v-96.7H321.5v96.7c0,2.6-2.1,4.6-4.6,4.6s-4.6-2.1-4.6-4.6V496.2
		c0-2.6,2.1-4.6,4.6-4.6h119.3c1.2,0,2.4,0.5,3.3,1.4c0.9,0.9,1.4,2,1.4,3.3v101.3c0,1.2-0.5,2.4-1.4,3.3
		C438.6,601.7,437.5,602.2,436.2,602.2z"/>
	<path class="st0" d="M376.1,602.2c-2.6,0-4.6-2.1-4.6-4.6V496.9c0-2.6,2.1-4.6,4.6-4.6c2.6,0,4.6,2.1,4.6,4.6v100.6
		c0,1.2-0.5,2.4-1.4,3.3C378.5,601.7,377.3,602.2,376.1,602.2z"/>
	<path class="st0" d="M391.8,556c-2.6,0-4.6-2.1-4.6-4.6v-7.7c0-2.6,2.1-4.6,4.6-4.6s4.6,2.1,4.6,4.6v7.7c0,1.2-0.5,2.4-1.4,3.3
		C394.2,555.6,393.1,556,391.8,556z"/>
	<path class="st0" d="M361.3,556c-2.6,0-4.6-2.1-4.6-4.6v-7.7c0-2.6,2.1-4.6,4.6-4.6s4.6,2.1,4.6,4.6v7.7c0,1.2-0.5,2.4-1.4,3.3
		C363.7,555.6,362.5,556,361.3,556z"/>
	<path class="st0" d="M571.2,267.7c-2.2,0-4.1-1.6-4.5-3.8c-2.3-11.6-15-9.6-16.4-9.4c-2.5,0.4-4.8-1.2-5.3-3.7
		c-0.5-2.5,1.1-4.9,3.6-5.4c3.9-0.6,7.8-0.5,11.6,0.3c4.3,0.9,8.2,3.3,11.1,6.6c3.9-4.7,10.4-8.8,20.7-8.8c2.6,0,4.6,2.1,4.6,4.6
		s-2.1,4.6-4.6,4.6c-13.9,0-16.1,9.8-16.2,10.9l0,0C575.4,266,573.5,267.7,571.2,267.7L571.2,267.7z"/>
	<path class="st0" d="M183.3,291.7h-0.6c-2.2-0.3-3.9-2.1-4.1-4.4c-0.3-5.2-2.6-8.4-7.2-10.3c-2.4-0.9-5-1.4-7.6-1.4
		c-1.2,0.1-2.4-0.4-3.3-1.2c-0.9-0.8-1.5-2-1.5-3.2c-0.1-2.6,1.9-4.7,4.4-4.8c3.9-0.1,7.8,0.6,11.4,2c4.2,1.5,7.7,4.4,10.1,8.1
		c4.5-4.1,11.6-7.2,21.8-5.8c2.5,0.4,4.3,2.7,3.9,5.2c-0.4,2.5-2.7,4.3-5.2,3.9c-6.1-0.9-11,0.3-14.4,3.6c-1.4,1.4-2.5,3-3.3,4.8
		C187.1,290.3,185.3,291.7,183.3,291.7L183.3,291.7z"/>
	<path class="st0" d="M235.9,477.8h-44.1c-2.6,0-4.6-2.1-4.6-4.6s2.1-4.6,4.6-4.6h44.1c2.6,0,4.6,2.1,4.6,4.6
		S238.4,477.8,235.9,477.8z"/>
	<path class="st0" d="M293.9,268.2h-44.1c-2.6,0-4.6-2.1-4.6-4.6s2.1-4.6,4.6-4.6h44.1c2.6,0,4.6,2.1,4.6,4.6
		S296.5,268.2,293.9,268.2z"/>
	<path class="st0" d="M363,268.2h-44.1c-2.6,0-4.6-2.1-4.6-4.6s2.1-4.6,4.6-4.6H363c2.6,0,4.6,2.1,4.6,4.6S365.5,268.2,363,268.2z"
		/>
	<path class="st0" d="M432,268.2h-44.1c-2.6,0-4.6-2.1-4.6-4.6s2.1-4.6,4.6-4.6H432c2.6,0,4.6,2.1,4.6,4.6S434.6,268.2,432,268.2z"
		/>
	<path class="st0" d="M501.1,268.2H457c-2.6,0-4.6-2.1-4.6-4.6s2.1-4.6,4.6-4.6h44.1c2.6,0,4.6,2.1,4.6,4.6S503.7,268.2,501.1,268.2
		z"/>
	<path class="st0" d="M562.2,477.8H518c-2.6,0-4.6-2.1-4.6-4.6s2.1-4.6,4.6-4.6h44.1c2.6,0,4.6,2.1,4.6,4.6S564.7,477.8,562.2,477.8
		z"/>
</g>
<g>
	<path d="M323.4,455.6c-10.3,0-18.8-8.4-18.8-18.8c0-10.5,8.4-18.8,18.8-18.8c10.5,0,18.8,8.4,18.8,18.8
		C342.3,447.2,333.7,455.6,323.4,455.6L323.4,455.6z M323.4,421.7c-8.4,0-15.1,6.9-15.1,15.1s6.9,15.1,15.1,15.1s15.1-6.9,15.1-15.1
		S331.8,421.7,323.4,421.7z"/>
	<path d="M354.5,484.3c-10.3,0-18.8-8.4-18.8-18.8c0-10.5,8.4-18.8,18.8-18.8c10.5,0,18.8,8.4,18.8,18.8
		C373.4,476,364.8,484.3,354.5,484.3z M354.5,450.3c-8.5,0-15.3,7-15.3,15.3s7,15.3,15.3,15.3s15.3-7,15.3-15.3
		C369.8,457.3,363,450.3,354.5,450.3z"/>
	<path d="M428.3,455.6c-10.3,0-18.8-8.4-18.8-18.8c0-10.5,8.4-18.8,18.8-18.8c10.5,0,18.8,8.4,18.8,18.8
		C447.2,447.2,438.6,455.6,428.3,455.6z M428.3,421.1c-8.7,0-15.7,7.2-15.7,15.7s7.2,15.7,15.7,15.7s15.7-7.2,15.7-15.7
		S437,421.1,428.3,421.1z"/>
	<path d="M398.3,484.3c-10.3,0-18.8-8.4-18.8-18.8c0-10.5,8.4-18.8,18.8-18.8c10.5,0,18.8,8.4,18.8,18.8
		C417.1,476,408.5,484.3,398.3,484.3z M398.3,450.1c-8.6,0-15.5,7.1-15.5,15.5s7.1,15.5,15.5,15.5s15.5-7.1,15.5-15.5
		C413.7,457.2,406.8,450.1,398.3,450.1z"/>
	<path class="st1" d="M376.4,448.3c-1.4,0-3-0.5-4.2-1.4c-0.5-0.3-11.5-9.1-22.1-20.2c-15.7-16.4-23.4-29.6-23.4-40.4v-1.2
		c0-16.6,13.4-30.1,30.1-30.1c7.3,0,14.5,2.8,19.9,7.5c5.4-4.9,12.5-7.5,19.9-7.5c16.6,0,30.1,13.4,30.1,30.1v1
		c0,11-7.7,24.2-23.4,40.6c-6.3,6.4-13.4,13.1-21.4,19.5c-0.3,0.2-0.5,0.3-0.5,0.5c-0.2,0.2-0.3,0.3-0.7,0.5
		C379,448,377.6,448.3,376.4,448.3L376.4,448.3z M356.7,361c-13.2,0-24.1,10.8-24.1,24.1v1c0,9.2,7.3,21.3,21.8,36.4
		c9.9,10.5,20.2,18.6,21.3,19.5c0.2,0.2,0.5,0.2,0.7,0.2c0,0,0.3,0,1-0.3c0.2-0.2,0.2-0.2,0.3-0.3c7.7-6.4,14.8-12.7,20.9-19
		c14.5-15,21.8-27.2,21.8-36.2v-1.2c0-13.2-10.8-24.1-24-24.1c-6.6,0-13.1,2.8-17.6,7.8c-1.2,1.2-3.3,1.2-4.5,0
		C369.8,363.8,363.3,361,356.7,361L356.7,361z"/>
</g>
<g>
	<path d="M425.2,362.8c-4.8-8.2-13.3-13.4-22.8-14c-9.5-0.5-18.6,3.7-24.2,11.3l-1.3,1.7l-1.3-1.7h0c-5.4-7.1-13.7-11.3-22.6-11.3
		h-0.7c-9.7,0-18.7,4.9-23.8,13.1c-3.2,5.1-4.9,10.9-4.9,16.9v5.1c0,7.5,1.9,15,5.4,21.6c3.6,6.6,8.8,12.3,15.1,16.4l15.5,10.2
		l16.4,10.7c0.6,0.4,1.4,0.4,2,0l32.1-21.2c6.3-4.1,11.4-9.8,14.9-16.4c3.5-6.6,5.4-14,5.4-21.5v-2.3
		C430.3,374.8,428.5,368.4,425.2,362.8L425.2,362.8z M366.4,431.4l0.7,1.3l-18-11.8l-1-0.7l9-13.5v0c0.2-0.3,0.3-0.6,0.3-1v-5.6
		c0-0.1,0-0.2,0-0.3c0.1-2.2,0.9-4.3,2.4-6l0.3-0.3l0.9,3.8v0c0.2,0.8,0.9,1.3,1.7,1.3h4.3c1.2,0,2.3,0.6,3,1.6
		c1.2,1.8,3.1,3.1,5.2,3.6v2c0,0.9-0.4,1.8-1,2.5c-0.7,0.7-1.6,1-2.5,1c-1,0-1.8,0.8-1.8,1.8v6.5c0,1.2-0.4,2.4-1,3.5l-2.2,3.3
		c-0.2,0.3-0.3,0.6-0.3,1v5.3C366.2,430.8,366.3,431.1,366.4,431.4L366.4,431.4z M373.4,436.8l-1.8-1.2l0-1.5c0-0.3-0.1-0.5-0.2-0.8
		l0,0l2-2V436.8z M387.6,432l-3.6,2.4v-10.1l3.6-2.7V432z M390.9,409.8L390.9,409.8c-0.1,2.6-1.1,5.1-2.8,7l-7,5.2
		c-0.4,0.3-0.7,0.9-0.7,1.4v13.3l-3.6,2.4V427c0-0.7-0.4-1.4-1.1-1.6c-0.7-0.3-1.4-0.1-1.9,0.4l-4.1,4.1v-4.1l1.9-2.9
		c1.1-1.6,1.6-3.5,1.6-5.4v-4.9c1.5-0.4,2.9-1.3,3.8-2.5c1-1.2,1.5-2.8,1.5-4.4v-3.6c0-0.5-0.2-0.9-0.5-1.3s-0.8-0.5-1.3-0.5
		c-1.6,0-3.1-0.8-4.1-2.2c-0.7-1.1-1.8-2-3-2.5l2.7-2.7l-0.1,0.1l6.2,3.1h0c3.2,1.6,6.7,2.4,10.3,2.4h0.8l0.9,6.7h0
		C390.9,406.8,391,408.3,390.9,409.8L390.9,409.8z M378.7,380.8v5.8c0,0.7-0.6,1.3-1.3,1.3h-2.2v-3.2c0-4.3,1.7-8.5,4.8-11.5
		c0.8-0.8,1.9-1.3,3.1-1.3h3.9c1.1,0,2.2,0.4,3,1.2l3.6,3.6v0c0.3,0.3,0.8,0.5,1.3,0.5h3.6v2.7l0,0c0,1.5-1.2,2.7-2.7,2.7h-4.4
		c-1,0-1.8,0.8-1.8,1.8V395h-0.3c-3,0-6-0.7-8.7-2.1l-3-1.5h0h0c1.3,0,2.5-0.5,3.5-1.4c0.9-0.9,1.4-2.2,1.4-3.5v-5.8L378.7,380.8z
		 M426.7,383.7L426.7,383.7c0,6.9-1.7,13.7-5,19.8c-3.3,6.1-8,11.3-13.8,15.1l-16.8,11.2v-10.9c2-2.5,3.2-5.6,3.3-8.8
		c0.1-1.7,0-3.4-0.2-5.1l-1.3-9.9v-8.8h2.7c1.7,0,3.2-0.7,4.4-1.8c1.2-1.2,1.8-2.8,1.8-4.4v-4.4c0-0.5-0.2-0.9-0.5-1.3
		c-0.3-0.3-0.8-0.5-1.3-0.5h-4.6l-3.1-3.1c-1.5-1.5-3.4-2.3-5.5-2.3H383c-2.1,0-4.1,0.8-5.6,2.3c-3.7,3.7-5.8,8.8-5.8,14.1v4.2
		l-6.1,6.1h-1.4l-1.4-5.8c-0.2-0.6-0.7-1.1-1.3-1.3c-0.6-0.2-1.3,0.1-1.8,0.6l-2.5,3c-2,2.3-3.1,5.2-3.2,8.2c0,0.2,0,0.3,0,0.5v5
		l-5,7.4v0c-3-2.2-5.7-4.9-8.1-7.8l-1.6-2c-0.6-0.8-1.7-0.9-2.5-0.3c-0.8,0.6-0.9,1.7-0.3,2.5l1.6,2c2.6,3.2,5.6,6.1,8.9,8.5
		l-1.8,2.7c-5.5-3.8-10.1-9-13.2-15c-3.1-6-4.8-12.6-4.7-19.4v-5.1c0-5.3,1.5-10.5,4.4-15c4.5-7.1,12.4-11.4,20.8-11.4h0.7
		c7.8,0,15.1,3.7,19.8,9.9l2.7,3.6c0.3,0.4,0.9,0.7,1.4,0.7c0.6,0,1.1-0.3,1.4-0.7l2.7-3.6c5-6.6,12.9-10.3,21.2-9.8
		c8.3,0.5,15.7,5.1,19.9,12.2c3,5.1,4.5,10.9,4.5,16.8L426.7,383.7z"/>
	<path d="M384,375.4h3.6v3.6H384V375.4z"/>
	<path d="M364.5,402.1h3.6v3.6h-3.6V402.1z"/>
	<path d="M421.4,384.3c-1,0-1.8,0.8-1.8,1.8v0.6c0,3-0.5,5.9-1.4,8.7l-0.3,0.8v0c-0.2,0.4-0.1,0.9,0.1,1.4c0.2,0.4,0.6,0.8,1,0.9
		c0.5,0.2,0.9,0.1,1.4-0.1c0.4-0.2,0.7-0.6,0.9-1l0.3-0.8c1.1-3.2,1.6-6.5,1.6-9.8v-0.6c0-0.5-0.2-0.9-0.5-1.3
		C422.3,384.5,421.9,384.3,421.4,384.3L421.4,384.3z"/>
	<path d="M421.4,375.4c-1,0-1.8,0.8-1.8,1.8v1.8c0,1,0.8,1.8,1.8,1.8c1,0,1.8-0.8,1.8-1.8v-1.8c0-0.5-0.2-0.9-0.5-1.3
		C422.3,375.6,421.9,375.4,421.4,375.4L421.4,375.4z"/>
</g>
<rect x="247.9" y="156.8" class="st2" width="257.1" height="20.3"/>
<rect x="218.3" y="186.4" class="st2" width="316.3" height="20.4"/>
<path d="M72.5,499.1c-0.3,0-0.5,0-0.8-0.1c-1.9-0.4-3.1-2.3-2.7-4.3c2.4-11,7.5-18.6,15.1-22.7c11.7-6.4,24.9-1.5,25.5-1.3
	c1.9,0.7,2.8,2.8,2.1,4.6c-0.7,1.9-2.8,2.8-4.6,2.1c-0.1,0-10.7-3.9-19.6,0.9c-5.7,3.1-9.5,9.1-11.5,18
	C75.6,498,74.1,499.1,72.5,499.1L72.5,499.1z"/>
<path d="M94,520.6c-1.6,0-3-1-3.4-2.6c-4.2-14.7,1.6-24,7.3-29.1c5.9-5.4,12.8-7.4,13.1-7.5c1.9-0.5,3.9,0.6,4.4,2.4
	c0.5,1.9-0.5,3.9-2.4,4.4c-0.9,0.3-21.5,6.6-15.5,27.8c0.5,1.9-0.6,3.9-2.5,4.4C94.6,520.5,94.3,520.6,94,520.6L94,520.6z"/>
<path d="M115.5,470.4c-1.1,0-2.2-0.5-2.9-1.5c-0.7-0.9-16.2-22.1-34.5-9.8c-1.6,1.1-3.9,0.7-5-1c-1.1-1.6-0.7-3.9,1-5
	c19.3-12.9,37.4,2,44.3,11.6c1.2,1.6,0.8,3.8-0.8,5C116.9,470.2,116.2,470.4,115.5,470.4L115.5,470.4z"/>
<path d="M126.2,470.4c-2,0-3.6-1.6-3.6-3.6c0-0.3,0.4-28.6,32.2-28.6c2,0,3.6,1.6,3.6,3.6s-1.6,3.6-3.6,3.6
	c-24.2,0-25.1,19.3-25.1,21.5C129.8,468.8,128.2,470.4,126.2,470.4L126.2,470.4z"/>
<path d="M137,477.6c-0.5,0-1.1-0.1-1.6-0.4c-1.8-0.9-2.5-3-1.6-4.8c3-6,13-15.5,29.6-8.9c1.8,0.7,2.7,2.8,2,4.7
	c-0.7,1.8-2.8,2.7-4.7,2c-14.3-5.7-19.9,4.3-20.5,5.5C139.5,476.9,138.3,477.6,137,477.6L137,477.6z"/>
<path d="M172.4,539c-7.4-22.6-22.3-47.2-51.3-67.9c-1.6-1.1-3.8-0.8-5,0.8c-1.2,1.6-0.8,3.8,0.8,5c31.4,22.4,45.4,49.6,51.3,73.2
	C170,546.6,171.4,542.8,172.4,539z"/>
<path d="M638.9,449.9c-0.8-1.6-2.8-2.2-4.4-1.3c-34.7,18.4-49.4,62.6-55.6,99.3c1.9-0.2,3.7-0.4,5.6-0.7c0.4-0.1,0.9-0.1,1.3-0.2
	c6.2-34.9,20.2-76,51.7-92.7C639.1,453.5,639.7,451.5,638.9,449.9z"/>
<path d="M671.1,444.4c-0.6,0.1-1.2,0-1.7-0.3c-14.9-6.9-25,2.2-25.4,2.6c-1.3,1.2-3.4,1.1-4.6-0.2c-1.2-1.3-1.2-3.4,0.2-4.6
	c0.6-0.5,13.6-12.5,32.6-3.7c1.6,0.7,2.3,2.7,1.6,4.3C673.2,443.6,672.2,444.2,671.1,444.4L671.1,444.4z"/>
<path d="M665.9,473.5c-1.6,0.2-3.1-0.8-3.5-2.4c-3.6-14-16.9-13.4-17.5-13.4c-1.8,0.1-3.3-1.2-3.4-3c-0.1-1.8,1.2-3.3,3-3.5
	c6.6-0.4,20.2,2.8,24.2,18.2c0.4,1.7-0.6,3.5-2.3,3.9C666.2,473.5,666,473.5,665.9,473.5L665.9,473.5z"/>
<path d="M643.4,489.8c-0.6,0.1-1.2,0-1.7-0.3c-1.6-0.7-2.3-2.7-1.6-4.3c6.4-14-3.6-20.6-4.8-21.3c-1.5-0.9-2-2.9-1.1-4.4
	c0.9-1.5,2.9-2,4.4-1.1c5.7,3.4,14.5,13.9,7.3,29.6C645.5,489,644.5,489.6,643.4,489.8L643.4,489.8z"/>
<path d="M632.1,445.4c-0.3,0-0.5,0-0.8,0c-1.8-0.2-3-1.9-2.8-3.7c0.1-1,1.1-10.1-8.7-11.4c-1.8-0.2-3-1.9-2.8-3.7
	c0.2-1.8,1.9-3,3.7-2.8c13,1.8,15,13,14.2,18.7C634.7,444.1,633.5,445.2,632.1,445.4L632.1,445.4z"/>
<path d="M623.1,452.8c-1.5,0.2-3-0.8-3.5-2.3c0-0.1-2.1-6.8-7.4-9.3c-3.3-1.5-7.3-1.2-12.1,1c-1.6,0.8-3.6,0-4.3-1.6
	c-0.7-1.6,0-3.5,1.6-4.3c6.5-3,12.4-3.3,17.5-1c8.1,3.8,10.8,13.1,11,13.5c0.5,1.7-0.5,3.5-2.2,4
	C623.5,452.8,623.3,452.8,623.1,452.8L623.1,452.8z"/>
</svg>
