<svg id="Ebene_1" data-name="Ebene 1" xmlns="http://www.w3.org/2000/svg" viewBox="0 0 369.62 371.2"><defs><style>.cls-1{fill:#230e14;}.cls-2{fill:none;}</style></defs><path d="M353.57,12H94.83A30.8,30.8,0,0,0,64,42.8V332.34H20.91a6.18,6.18,0,0,0-6.16,6.16v12.32a30.79,30.79,0,0,0,30.8,30.8h67.77V369.3H45.55a18.53,18.53,0,0,1-18.48-18.48v-6.16h86.25V332.34h-37V42.8A18.53,18.53,0,0,1,94.84,24.32H328.93a30.67,30.67,0,0,0-6.16,18.48v154h12.32V61.28h43.12a6.18,6.18,0,0,0,6.16-6.16V42.8A30.8,30.8,0,0,0,353.57,12Zm18.48,37h-37V42.8a18.48,18.48,0,0,1,37,0Z" transform="translate(-14.75 -12)"/><path d="M94.84,135.2h28.88v12.33H94.84Z" transform="translate(-14.75 -12)"/><path d="M379.52,215.45l-7.78-1.69a195.33,195.33,0,0,0-42.81-4.7v12.32a185.07,185.07,0,0,1,40.19,4.47l2.93.61v129l-.23-.08a198.87,198.87,0,0,0-97.65,2.93l-19.09,5.47a187.39,187.39,0,0,1-117-4.85V230.31a200.4,200.4,0,0,0,120.44,3.62l4.46-1.31-3.39-11.86-4.46,1.31a187.79,187.79,0,0,1-120.43-6.16l-.47-.23a6.2,6.2,0,0,0-8,3.46,6.1,6.1,0,0,0-.46,2.31V363.14a6.13,6.13,0,0,0,3.85,5.7l.47.23a199.89,199.89,0,0,0,128.36,6.54l19.1-5.46a186.34,186.34,0,0,1,91.63-2.7l7.78,1.69a6.1,6.1,0,0,0,7.32-4.69,8.1,8.1,0,0,0,.15-1.31V221.45a6.15,6.15,0,0,0-4.85-6Z" transform="translate(-14.75 -12)"/><path d="M169.92,300.22l-2.24,12.1a202.38,202.38,0,0,0,25.42,3l.69-12.33a173.55,173.55,0,0,1-23.87-2.77Z" transform="translate(-14.75 -12)"/><path d="M340.87,295.76l.77-12.32a199.48,199.48,0,0,0-25.41,0l.77,12.32a176.06,176.06,0,0,1,23.87,0Z" transform="translate(-14.75 -12)"/><path d="M158,248.33a6.13,6.13,0,0,0-7.47,4.46,5.11,5.11,0,0,0-.15,1.54v34.88h12.33V262a196.82,196.82,0,0,0,36.81,4.23l.31-12.32A181.85,181.85,0,0,1,158,248.33Z" transform="translate(-14.75 -12)"/><path d="M359.73,241.55a6.16,6.16,0,0,0-5.39-6.09,200.81,200.81,0,0,0-44.51-.77L311,246.94a190.28,190.28,0,0,1,36.35.08v23.71h12.32V241.55Z" transform="translate(-14.75 -12)"/><path d="M311.07,339.34a188.6,188.6,0,0,1,41.74.7,6.17,6.17,0,0,0,6.93-5.32c0-.23.08-.54.08-.77V301.54H347.49V327a203.34,203.34,0,0,0-37.58,0Z" transform="translate(-14.75 -12)"/><path d="M150.28,320v26.72a6.2,6.2,0,0,0,4.62,6,201.25,201.25,0,0,0,44.51,6.08l.31-12.32A188.48,188.48,0,0,1,162.6,342V320Z" transform="translate(-14.75 -12)"/><path d="M237.16,323.44l24.66-49.31,11,5.51L248.18,329Z" transform="translate(-14.75 -12)"/><path d="M230.37,283.06h12.32v12.32H230.37Z" transform="translate(-14.75 -12)"/><path d="M261.17,313.86h12.32v12.32H261.17Z" transform="translate(-14.75 -12)"/><path d="M125.64,42.8h30.8V55.13h-30.8Z" transform="translate(-14.75 -12)"/><path d="M94.84,73.61h30.81V85.93H94.84Z" transform="translate(-14.75 -12)"/><path d="M94.84,104.41h30.81v12.32H94.84Z" transform="translate(-14.75 -12)"/><path d="M94.84,166h28.88v12.32H94.84Z" transform="translate(-14.75 -12)"/><path d="M94.84,196.81h30.81v12.32H94.84Z" transform="translate(-14.75 -12)"/><path d="M94.84,227.61h18.48v12.32H94.84Z" transform="translate(-14.75 -12)"/><path d="M94.84,258.42h18.48v12.32H94.84Z" transform="translate(-14.75 -12)"/><path d="M94.84,289.22h18.48v12.32H94.84Z" transform="translate(-14.75 -12)"/><path d="M205.73,301.54A49.28,49.28,0,1,0,255,252.26a49.33,49.33,0,0,0-49.28,49.28Zm86.24,0a37,37,0,1,1-37-37A37,37,0,0,1,292,301.54Z" transform="translate(-14.75 -12)"/><path d="M218.05,42.8a86.25,86.25,0,1,0,.15,172.49,87.41,87.41,0,0,0,31-5.77l59.45,17.86a6.17,6.17,0,0,0,7.7-4.16,6.52,6.52,0,0,0-.16-4l-20.41-52.9A86.3,86.3,0,0,0,218.05,42.8Zm82.16,169.1L250.7,197a6.44,6.44,0,0,0-4.16.23,73.87,73.87,0,1,1,37.11-34.11,6.2,6.2,0,0,0-.31,5.08Z" transform="translate(-14.75 -12)"/><path class="cls-1" d="M199,74.94a20.72,20.72,0,0,1,9.28,2.16,30.28,30.28,0,0,1,7.76,5.14,47.18,47.18,0,0,1,4.62,5.61c.62.86,1,.85,1.43.09a26.65,26.65,0,0,1,9.13-9.35c1.59-1,3.52-1.31,5-2.37,2-1.37,4-1.39,6.17-1.58,5.81-.49,10.77,1.5,15.48,4.94a21.69,21.69,0,0,1,8.32,11,27.69,27.69,0,0,1,.21,15.75,56.56,56.56,0,0,1-5.81,14.51,90.12,90.12,0,0,1-5.85,8.84,93.6,93.6,0,0,1-8.32,10.48,178.28,178.28,0,0,1-14.65,13.26A22.5,22.5,0,0,1,222,158c-2.26.45-3.71-1.08-5.37-1.92-8.6-4.38-15.69-10.81-21.87-18.43-.83-1-2.31-1.66-2.74-2.79-.81-2.14-2.86-3-3.85-4.9-1.09-2.1-2.59-4-3.86-6a53.14,53.14,0,0,1-3.58-6c-2.95-6.38-5.51-13-5.35-20.21a21.72,21.72,0,0,1,3.46-11.59c4.08-6.17,9.84-9.62,16.66-11.29A15.67,15.67,0,0,1,199,74.94Zm-.52,8.57c-6,1.34-11.11,4.11-14.72,9.06a16.36,16.36,0,0,0-3.05,9.29c-.14,5.79,2.12,11.1,4.72,16.22a41.22,41.22,0,0,0,3.17,4.78c1.12,1.61,2.45,3.1,3.41,4.79.87,1.54,2.68,2.22,3.4,3.93.38.91,1.69,1.42,2.42,2.24a59.24,59.24,0,0,0,19.32,14.78c1.46.68,2.74,1.91,4.74,1.55a20.82,20.82,0,0,0,8.7-3.73,152.2,152.2,0,0,0,12.95-10.64,76.39,76.39,0,0,0,7.34-8.4,75.57,75.57,0,0,0,5.18-7.09,43.31,43.31,0,0,0,5.13-11.65A20.35,20.35,0,0,0,261,96a17.68,17.68,0,0,0-7.35-8.8c-4.16-2.76-8.54-4.36-13.67-4-1.91.14-3.73.16-5.45,1.26-1.33.85-3,1.13-4.44,1.9a22.62,22.62,0,0,0-8.07,7.5c-.4.62-.71.62-1.25-.06a38.9,38.9,0,0,0-4.09-4.51,27.32,27.32,0,0,0-6.85-4.12,20,20,0,0,0-8.2-1.74A15,15,0,0,0,198.5,83.51Z" transform="translate(-14.75 -12)"/><path class="cls-2" d="M200.74,81.51a14.57,14.57,0,0,0-3.17,0c-6.08,1.41-11.22,4.33-14.86,9.55a17.74,17.74,0,0,0-3.08,9.81c-.15,6.11,2.13,11.71,4.76,17.12a47,47,0,0,0,3.2,5c1.13,1.69,2.47,3.27,3.44,5.05.88,1.63,2.71,2.34,3.43,4.15.39,1,1.71,1.49,2.45,2.36a60.27,60.27,0,0,0,19.51,15.6c1.47.72,2.76,2,4.79,1.63a20.75,20.75,0,0,0,8.78-3.93,156.91,156.91,0,0,0,13.07-11.23,79.94,79.94,0,0,0,7.41-8.86,78.48,78.48,0,0,0,5.23-7.49,46.42,46.42,0,0,0,5.18-12.29,22.33,22.33,0,0,0-.19-13.32,18.5,18.5,0,0,0-7.42-9.29c-4.2-2.91-8.63-4.6-13.81-4.18-1.92.15-3.76.17-5.5,1.33-1.34.9-3.06,1.2-4.48,2a23.06,23.06,0,0,0-8.15,7.92c-.4.64-.71.65-1.26-.08a41.47,41.47,0,0,0-4.13-4.75A27.43,27.43,0,0,0,209,83.34,19.33,19.33,0,0,0,200.74,81.51Zm-7.55,94.58c.24,4.38,1.14,8.27,3.62,11.69,4.67,6.46,13.69,6.39,18.45-1a19.27,19.27,0,0,0,2.84-15c-1-4.46-2.82-8.39-6.93-10.77a9.2,9.2,0,0,0-9.64-.28C195.48,164.18,193.58,169.85,193.19,176.09ZM194.74,149c.29-2.39-.91-4.79-2.53-6.89-2.65-3.43-7.28-4.45-12-1.33-5.1,3.39-7.81,12.71-5.3,18.36,3,6.64,9.47,7.42,14.09,3.57C193.14,159.29,194.94,154.76,194.74,149Z" transform="translate(-14.75 -12)"/><path class="cls-1" d="M193.19,176.09c.39-6.24,2.29-11.91,8.34-15.33a9.2,9.2,0,0,1,9.64.28c4.11,2.38,6,6.31,6.93,10.77a19.27,19.27,0,0,1-2.84,15c-4.76,7.36-13.78,7.43-18.45,1C194.33,184.36,193.43,180.47,193.19,176.09Z" transform="translate(-14.75 -12)"/><path class="cls-1" d="M224.25,174.81c.28-4.47.95-8.15,3.15-11.35,3-4.35,7.77-6.35,12.07-4.87a13.79,13.79,0,0,1,7.82,7.12,19.88,19.88,0,0,1,1.13,16.13c-1.47,4.45-4.32,7.83-9.1,9a9.32,9.32,0,0,1-7.09-1.24C226.27,186.2,224.83,180.38,224.25,174.81Z" transform="translate(-14.75 -12)"/><path class="cls-1" d="M194.74,149c.2,5.78-1.6,10.31-5.7,13.71-4.62,3.85-11.13,3.07-14.09-3.57-2.51-5.65.2-15,5.3-18.36,4.68-3.12,9.31-2.1,12,1.33C193.83,144.19,195,146.59,194.74,149Z" transform="translate(-14.75 -12)"/><path class="cls-1" d="M250,150.77c.18-4.39,1.18-8,4.84-10.38,2.68-1.77,7.25-1.37,9.77.77,5.44,4.61,7.32,10.44,5.47,17.4a8.72,8.72,0,0,1-12.76,5.33C252.15,160.7,250.45,156,250,150.77Z" transform="translate(-14.75 -12)"/><path class="cls-1" d="M195.22,131.36h0l-.05,0-.18-.13-.48-.26c-.25-.15-.48-.3-.72-.47.45.44.9.87,1.37,1.28l.06-.24Z" transform="translate(-14.75 -12)"/><path class="cls-1" d="M242.11,100.54a1.58,1.58,0,0,0-1.06-.41h-3.73l-2.51-2.51a6.19,6.19,0,0,0-4.46-1.87h-3.08a6.38,6.38,0,0,0-4.55,1.87,16.2,16.2,0,0,0-4.7,11.43v3.41l-5,5h-1.13l-1.14-4.71a1.69,1.69,0,0,0-1.05-1,1.49,1.49,0,0,0-1.46.49l-2,2.43a10.65,10.65,0,0,0-2.59,6.65v4.46l-4.06,6,0,0,0,0a7.89,7.89,0,0,1-1.76,2.18l.2.15-.43.64a1.48,1.48,0,0,1,.06.84,1.36,1.36,0,0,1-1.11,1c.2.47.38.93.61,1.38.39.76.84,1.49,1.22,2.26l1,.8.3.23.16.12.63.47a12.89,12.89,0,0,0,1.22.75c1.58.8,2.88,2,4.41,2.88s3.37,1.4,4.85,2.47c.77.56,1.46,1.21,2.19,1.81s1.21,1,2,1.51a19.6,19.6,0,0,0,2.38,1.41c.73.36,1.47.64,2.3,1.06a12,12,0,0,1,2.08,1.28H222l.44-.13a.85.85,0,0,1,.19-.09l.21-.12.47-.29c.16-.1.31-.22.46-.33l.06,0,.23-.18c.56-.46,1.1-.95,1.67-1.4a20.23,20.23,0,0,1,5.11-2.77l1.2-.46.51-.2.29-.12h0a9.83,9.83,0,0,0,1.12-.57l.17-.11a1.28,1.28,0,0,1-.1-.47,20.44,20.44,0,0,1,.05-2.35l-.31.21v-8.84a12.1,12.1,0,0,0,2.67-7.14,23.75,23.75,0,0,0-.16-4.13l-1-8v-7.14h2.18a5.25,5.25,0,0,0,3.57-1.46,5,5,0,0,0,1.46-3.57v-3.57A1.71,1.71,0,0,0,242.11,100.54Zm-28.06,40.55a1.37,1.37,0,0,0-.25.81v4.3c-.16.08-.08.32,0,.57l.57,1-14.6-9.57-.81-.57,7.3-11a1.37,1.37,0,0,0,.25-.81v-4.78a7.85,7.85,0,0,1,1.94-4.87l.24-.24.73,3.08a1.39,1.39,0,0,0,1.38,1h3.49a3,3,0,0,1,2.43,1.3,7.09,7.09,0,0,0,4.22,2.92V126a3.19,3.19,0,0,1-.81,2,2.81,2.81,0,0,1-2,.81,1.46,1.46,0,0,0-1.46,1.46v5.27a6,6,0,0,1-.81,2.84Zm5.43,10-1.46-1V149a1.88,1.88,0,0,0-.16-.64l1.62-1.63ZM231,147.25l-2.92,1.95V141l2.92-2.19Zm2.67-18a9,9,0,0,1-2.27,5.67l-5.67,4.22a1.55,1.55,0,0,0-.57,1.14v10.78L222.24,153V143.2a1.32,1.32,0,0,0-.89-1.3,1.37,1.37,0,0,0-1.54.32l-3.33,3.33v-3.33l1.54-2.35a7.72,7.72,0,0,0,1.3-4.38v-4a5.79,5.79,0,0,0,3.08-2,5.6,5.6,0,0,0,1.22-3.57V123a1.72,1.72,0,0,0-.41-1,1.23,1.23,0,0,0-1.05-.41,4.1,4.1,0,0,1-3.33-1.78,5.47,5.47,0,0,0-2.43-2l2.11-2.11,5,2.52a18.65,18.65,0,0,0,8.35,1.94h.65l.73,5.44A10.07,10.07,0,0,1,233.67,129.25ZM239.84,105a2.18,2.18,0,0,1-2.19,2.19h-3.57a1.46,1.46,0,0,0-1.46,1.46v8.6h-.24a15.29,15.29,0,0,1-7.06-1.71l-2.43-1.21a4.23,4.23,0,0,0,2.84-1.14,4,4,0,0,0,1.13-2.84v-4.7l-3.08.08v4.7a1.08,1.08,0,0,1-1.06,1.06h-1.78v-2.6a13,13,0,0,1,3.89-9.32,3.56,3.56,0,0,1,2.52-1.06h3.16a3.47,3.47,0,0,1,2.43,1l2.92,2.92a1.53,1.53,0,0,0,1.06.41h2.92Z" transform="translate(-14.75 -12)"/><path d="M228.08,101.35H231v2.92h-2.92Z" transform="translate(-14.75 -12)"/><path d="M212.26,123h2.92v2.92h-2.92Z" transform="translate(-14.75 -12)"/><path class="cls-1" d="M257.2,107.45a1.44,1.44,0,0,0-1.74,1.1l-.11.47a20.6,20.6,0,0,1-2.67,6.63l-.38.58h0a1.42,1.42,0,0,0-.17,1.13,1.43,1.43,0,0,0,.63.89,1.39,1.39,0,0,0,1.13.17,1.81,1.81,0,0,0,.89-.63l.38-.58a24.3,24.3,0,0,0,3-7.47l.11-.47a1.75,1.75,0,0,0-.17-1.12,1.36,1.36,0,0,0-.92-.7Z" transform="translate(-14.75 -12)"/><path class="cls-1" d="M257.66,100.6a1.45,1.45,0,0,0-1.52,1.39l-.07,1.46a1.46,1.46,0,1,0,2.91.14l.07-1.46a1.76,1.76,0,0,0-.35-1.07,1.73,1.73,0,0,0-1-.46Z" transform="translate(-14.75 -12)"/><path class="cls-1" d="M195.17,131.32l-.18-.13-.48-.26a13.92,13.92,0,0,1-1.71-1.22c-.42-.34-.83-.69-1.23-1.06.12.2.25.4.38.59a11.71,11.71,0,0,0,1.05,1.35c.4.45.85.85,1.27,1.28l.65.67c.07-.23.15-.46.21-.69l.09-.35v-.14h0Z" transform="translate(-14.75 -12)"/><path class="cls-1" d="M266.25,90.52a21.68,21.68,0,0,0-8.33-11c-4.71-3.45-9.67-5.44-15.48-5-2.16.19-4.22.21-6.17,1.58-1.5,1.06-3.43,1.41-5,2.37a26.65,26.65,0,0,0-9.13,9.35c-.45.76-.81.77-1.42-.08a48.36,48.36,0,0,0-4.63-5.62,30.24,30.24,0,0,0-7.76-5.13A20.57,20.57,0,0,0,199,74.9a15.1,15.1,0,0,0-3.56,0c-6.82,1.66-12.58,5.11-16.66,11.28a21.72,21.72,0,0,0-3.46,11.59c-.16,7.21,2.4,13.83,5.35,20.21a53.14,53.14,0,0,0,3.58,6c1.27,2,2.77,3.87,3.86,6,1,1.92,3,2.75,3.85,4.89.43,1.13,1.92,1.77,2.74,2.79,6.18,7.62,13.27,14.05,21.87,18.43,1.66.85,3.11,2.37,5.37,1.92a22.5,22.5,0,0,0,9.85-4.64,178.28,178.28,0,0,0,14.65-13.26,93.6,93.6,0,0,0,8.32-10.48,90,90,0,0,0,5.85-8.83,56.42,56.42,0,0,0,5.81-14.52A27.74,27.74,0,0,0,266.25,90.52Zm-5,18.08a43.31,43.31,0,0,1-5.13,11.65,75.57,75.57,0,0,1-5.18,7.09,76.39,76.39,0,0,1-7.34,8.4,153.64,153.64,0,0,1-12.94,10.64,20.93,20.93,0,0,1-8.7,3.73c-2,.36-3.29-.87-4.75-1.54a59.41,59.41,0,0,1-19.3-14.77c-.18.17-.36.33-.55.48a1.41,1.41,0,0,1,.29,1.23,1.34,1.34,0,0,1-1.65.93,8.78,8.78,0,0,1-3.51-2.59c-.51-.53-1.05-1-1.54-1.58a21.61,21.61,0,0,1-1.36-1.79c-.72-1.07-1.32-2.22-1.95-3.33-.72-1.26-1.26-2.63-.63-4a1.37,1.37,0,0,1,1.4-.65,37.11,37.11,0,0,1-2.91-4.43c-2.61-5.12-4.87-10.43-4.73-16.21a16.37,16.37,0,0,1,3-9.3c3.61-5,8.7-7.72,14.72-9.06a15,15,0,0,1,3.15,0,20,20,0,0,1,8.2,1.74,27.32,27.32,0,0,1,6.85,4.12,38.81,38.81,0,0,1,4.09,4.51c.54.68.85.68,1.25.07a22.55,22.55,0,0,1,8.07-7.51c1.4-.77,3.11-1.05,4.44-1.9,1.72-1.1,3.54-1.12,5.45-1.26,5.13-.4,9.51,1.2,13.67,4A17.72,17.72,0,0,1,261,96,20.27,20.27,0,0,1,261.22,108.6Z" transform="translate(-14.75 -12)"/></svg>