<svg id="Ebene_1" data-name="Ebene 1" xmlns="http://www.w3.org/2000/svg" viewBox="0 0 369.62 371.2"><defs><style>.cls-1{fill:#230e14;}.cls-2{fill:none;}</style></defs><path d="M353.57,12H94.83A30.8,30.8,0,0,0,64,42.8V332.34H20.91a6.18,6.18,0,0,0-6.16,6.16v12.32a30.79,30.79,0,0,0,30.8,30.8h67.77V369.3H45.55a18.53,18.53,0,0,1-18.48-18.48v-6.16h86.25V332.34h-37V42.8A18.53,18.53,0,0,1,94.84,24.32H328.93a30.67,30.67,0,0,0-6.16,18.48v154h12.32V61.28h43.12a6.18,6.18,0,0,0,6.16-6.16V42.8A30.8,30.8,0,0,0,353.57,12Zm18.48,37h-37V42.8a18.48,18.48,0,0,1,37,0Z" transform="translate(-14.75 -12)"/><path d="M94.84,135.2h28.88v12.33H94.84Z" transform="translate(-14.75 -12)"/><path d="M379.52,215.45l-7.78-1.69a195.33,195.33,0,0,0-42.81-4.7v12.32a185.07,185.07,0,0,1,40.19,4.47l2.93.61v129l-.23-.08a198.87,198.87,0,0,0-97.65,2.93l-19.09,5.47a187.39,187.39,0,0,1-117-4.85V230.31a200.4,200.4,0,0,0,120.44,3.62l4.46-1.31-3.39-11.86-4.46,1.31a187.79,187.79,0,0,1-120.43-6.16l-.47-.23a6.2,6.2,0,0,0-8,3.46,6.1,6.1,0,0,0-.46,2.31V363.14a6.13,6.13,0,0,0,3.85,5.7l.47.23a199.89,199.89,0,0,0,128.36,6.54l19.1-5.46a186.34,186.34,0,0,1,91.63-2.7l7.78,1.69a6.1,6.1,0,0,0,7.32-4.69,8.1,8.1,0,0,0,.15-1.31V221.45a6.15,6.15,0,0,0-4.85-6Z" transform="translate(-14.75 -12)"/><path d="M169.92,300.22l-2.24,12.1a202.38,202.38,0,0,0,25.42,3l.69-12.33a173.55,173.55,0,0,1-23.87-2.77Z" transform="translate(-14.75 -12)"/><path d="M340.87,295.76l.77-12.32a199.48,199.48,0,0,0-25.41,0l.77,12.32a176.06,176.06,0,0,1,23.87,0Z" transform="translate(-14.75 -12)"/><path d="M158,248.33a6.13,6.13,0,0,0-7.47,4.46,5.11,5.11,0,0,0-.15,1.54v34.88h12.33V262a196.82,196.82,0,0,0,36.81,4.23l.31-12.32A181.85,181.85,0,0,1,158,248.33Z" transform="translate(-14.75 -12)"/><path d="M359.73,241.55a6.16,6.16,0,0,0-5.39-6.09,200.81,200.81,0,0,0-44.51-.77L311,246.94a190.28,190.28,0,0,1,36.35.08v23.71h12.32V241.55Z" transform="translate(-14.75 -12)"/><path d="M311.07,339.34a188.6,188.6,0,0,1,41.74.7,6.17,6.17,0,0,0,6.93-5.32c0-.23.08-.54.08-.77V301.54H347.49V327a203.34,203.34,0,0,0-37.58,0Z" transform="translate(-14.75 -12)"/><path d="M150.28,320v26.72a6.2,6.2,0,0,0,4.62,6,201.25,201.25,0,0,0,44.51,6.08l.31-12.32A188.48,188.48,0,0,1,162.6,342V320Z" transform="translate(-14.75 -12)"/><path d="M237.16,323.44l24.66-49.31,11,5.51L248.18,329Z" transform="translate(-14.75 -12)"/><path d="M230.37,283.06h12.32v12.32H230.37Z" transform="translate(-14.75 -12)"/><path d="M261.17,313.86h12.32v12.32H261.17Z" transform="translate(-14.75 -12)"/><path d="M125.64,42.8h30.8V55.13h-30.8Z" transform="translate(-14.75 -12)"/><path d="M94.84,73.61h30.81V85.93H94.84Z" transform="translate(-14.75 -12)"/><path d="M94.84,104.41h30.81v12.32H94.84Z" transform="translate(-14.75 -12)"/><path d="M94.84,166h28.88v12.32H94.84Z" transform="translate(-14.75 -12)"/><path d="M94.84,196.81h30.81v12.32H94.84Z" transform="translate(-14.75 -12)"/><path d="M94.84,227.61h18.48v12.32H94.84Z" transform="translate(-14.75 -12)"/><path d="M94.84,258.42h18.48v12.32H94.84Z" transform="translate(-14.75 -12)"/><path d="M94.84,289.22h18.48v12.32H94.84Z" transform="translate(-14.75 -12)"/><path d="M205.73,301.54A49.28,49.28,0,1,0,255,252.26a49.33,49.33,0,0,0-49.28,49.28Zm86.24,0a37,37,0,1,1-37-37A37,37,0,0,1,292,301.54Z" transform="translate(-14.75 -12)"/><path d="M218.05,42.8a86.25,86.25,0,1,0,.15,172.49,87.41,87.41,0,0,0,31-5.77l59.45,17.86a6.17,6.17,0,0,0,7.7-4.16,6.52,6.52,0,0,0-.16-4l-20.41-52.9A86.3,86.3,0,0,0,218.05,42.8Zm82.16,169.1L250.7,197a6.44,6.44,0,0,0-4.16.23,73.87,73.87,0,1,1,37.11-34.11,6.2,6.2,0,0,0-.31,5.08Z" transform="translate(-14.75 -12)"/><path class="cls-1" d="M202.63,79.29a19.18,19.18,0,0,1,8.59,2,27.78,27.78,0,0,1,7.18,4.76,43.8,43.8,0,0,1,4.29,5.19c.57.79.9.79,1.31.08a24.72,24.72,0,0,1,8.46-8.66c1.47-.88,3.26-1.21,4.65-2.19,1.8-1.27,3.71-1.29,5.72-1.46,5.37-.45,10,1.39,14.33,4.58a20,20,0,0,1,7.7,10.15,25.75,25.75,0,0,1,.2,14.58,52.57,52.57,0,0,1-5.38,13.44,86.59,86.59,0,0,1-5.42,8.19,88,88,0,0,1-7.7,9.69A167.54,167.54,0,0,1,233,151.94a20.9,20.9,0,0,1-9.12,4.29c-2.1.42-3.44-1-5-1.78-8-4-14.53-10-20.25-17.06-.77-.95-2.14-1.54-2.54-2.59-.75-2-2.65-2.75-3.57-4.53-1-2-2.39-3.67-3.57-5.53a49.1,49.1,0,0,1-3.32-5.51c-2.73-5.91-5.1-12-5-18.72a20.23,20.23,0,0,1,3.2-10.73c3.78-5.71,9.12-8.91,15.43-10.45A14,14,0,0,1,202.63,79.29Zm-.48,7.94c-5.58,1.24-10.29,3.81-13.63,8.39a15.12,15.12,0,0,0-2.83,8.61c-.13,5.35,2,10.27,4.38,15a38.11,38.11,0,0,0,2.93,4.43c1,1.49,2.26,2.87,3.15,4.44.81,1.42,2.49,2,3.15,3.63.35.84,1.57,1.31,2.25,2.07a54.81,54.81,0,0,0,17.88,13.69c1.36.63,2.54,1.77,4.4,1.43a19.28,19.28,0,0,0,8-3.45,143.58,143.58,0,0,0,12-9.85,72,72,0,0,0,6.8-7.78,69.15,69.15,0,0,0,4.79-6.56,40.14,40.14,0,0,0,4.75-10.79A18.83,18.83,0,0,0,260,98.81a16.36,16.36,0,0,0-6.81-8.15A19.47,19.47,0,0,0,240.57,87c-1.77.13-3.46.15-5,1.17-1.23.78-2.81,1-4.1,1.76a20.8,20.8,0,0,0-7.48,7c-.37.56-.65.57-1.16-.07A36.39,36.39,0,0,0,219,92.63a25.21,25.21,0,0,0-6.35-3.81,18,18,0,0,0-7.59-1.61A14.13,14.13,0,0,0,202.15,87.23Z" transform="translate(-14.75 -12)"/><path class="cls-2" d="M204.22,85.38a13.11,13.11,0,0,0-2.94,0c-5.63,1.3-10.39,4-13.76,8.84a16.43,16.43,0,0,0-2.85,9.09c-.13,5.65,2,10.84,4.42,15.84a40.71,40.71,0,0,0,2.95,4.67c1.05,1.57,2.29,3,3.19,4.68s2.51,2.16,3.18,3.84c.35.89,1.58,1.38,2.26,2.18A55.74,55.74,0,0,0,218.73,149c1.37.66,2.57,1.86,4.44,1.51a19.09,19.09,0,0,0,8.13-3.64,144.19,144.19,0,0,0,12.1-10.4,73.39,73.39,0,0,0,6.87-8.21,73.33,73.33,0,0,0,4.84-6.92A43.23,43.23,0,0,0,259.9,110a20.69,20.69,0,0,0-.17-12.34,17.17,17.17,0,0,0-6.87-8.6c-3.89-2.7-8-4.26-12.78-3.87-1.79.14-3.49.16-5.1,1.23-1.24.83-2.84,1.11-4.15,1.86a21.34,21.34,0,0,0-7.54,7.33c-.37.6-.67.6-1.18-.07a37.19,37.19,0,0,0-3.82-4.4,25.15,25.15,0,0,0-6.4-4A17.73,17.73,0,0,0,204.22,85.38Zm-7,87.57c.23,4.06,1.06,7.67,3.35,10.83,4.32,6,12.67,5.91,17.08-.9A17.78,17.78,0,0,0,220.29,169c-.88-4.12-2.61-7.76-6.41-10a8.54,8.54,0,0,0-8.93-.25C199.35,161.93,197.59,167.18,197.23,173Zm1.43-25.1c.28-2.21-.84-4.44-2.34-6.38-2.45-3.17-6.74-4.12-11.08-1.23-4.72,3.14-7.23,11.77-4.9,17,2.74,6.15,8.77,6.87,13,3.31C197.18,157.4,198.85,153.21,198.66,147.85Z" transform="translate(-14.75 -12)"/><path class="cls-1" d="M197.23,173c.36-5.77,2.12-11,7.72-14.19a8.54,8.54,0,0,1,8.93.25c3.8,2.22,5.53,5.86,6.41,10a17.78,17.78,0,0,1-2.63,13.89c-4.41,6.81-12.76,6.88-17.08.9C198.29,180.62,197.46,177,197.23,173Z" transform="translate(-14.75 -12)"/><path class="cls-1" d="M226,171.76c.26-4.13.88-7.53,2.92-10.5,2.77-4,7.19-5.88,11.17-4.51a12.75,12.75,0,0,1,7.24,6.59,18.39,18.39,0,0,1,1.05,14.94c-1.36,4.12-4,7.25-8.42,8.37a8.59,8.59,0,0,1-6.57-1.14C227.86,182.31,226.53,176.93,226,171.76Z" transform="translate(-14.75 -12)"/><path class="cls-1" d="M198.66,147.85c.19,5.36-1.48,9.55-5.27,12.7-4.28,3.56-10.31,2.84-13-3.31-2.33-5.23.18-13.86,4.9-17,4.34-2.89,8.63-1.94,11.08,1.23C197.82,143.41,198.94,145.64,198.66,147.85Z" transform="translate(-14.75 -12)"/><path class="cls-1" d="M249.83,149.51c.16-4.07,1.08-7.37,4.47-9.61a8.26,8.26,0,0,1,9.05.71c5,4.27,6.78,9.66,5.06,16.12a8.08,8.08,0,0,1-11.81,4.93C251.83,158.71,250.25,154.34,249.83,149.51Z" transform="translate(-14.75 -12)"/></svg>