<svg id="Ebene_1" data-name="Ebene 1" xmlns="http://www.w3.org/2000/svg" viewBox="0 0 24.62 30"><defs><style>.cls-1{fill:#ff577f;}.cls-2{fill:none;}</style></defs><path class="cls-1" d="M10.06,1.09a5.24,5.24,0,0,1,2.36.56,7.66,7.66,0,0,1,2,1.3,12.45,12.45,0,0,1,1.18,1.43c.16.22.25.22.36,0A6.81,6.81,0,0,1,18.26,2c.4-.24.89-.33,1.27-.6A2.94,2.94,0,0,1,21.1,1,5.64,5.64,0,0,1,25,2.28a5.58,5.58,0,0,1,2.12,2.79,7.07,7.07,0,0,1,.05,4,14.69,14.69,0,0,1-1.48,3.7A22.32,22.32,0,0,1,24.24,15a22.93,22.93,0,0,1-2.11,2.67,45.73,45.73,0,0,1-3.73,3.37,5.61,5.61,0,0,1-2.51,1.18c-.57.12-.94-.27-1.36-.48A17.64,17.64,0,0,1,9,17.06c-.21-.26-.59-.43-.69-.71-.21-.55-.73-.76-1-1.25s-.66-1-1-1.52a15.51,15.51,0,0,1-.91-1.51A11.72,11.72,0,0,1,4,6.92,5.68,5.68,0,0,1,4.91,4,6.85,6.85,0,0,1,9.15,1.1,3.94,3.94,0,0,1,10.06,1.09Z" transform="translate(-3.69 -1)"/><path class="cls-2" d="M10.5,2.77a3.66,3.66,0,0,0-.81,0A6.08,6.08,0,0,0,5.91,5.2a4.48,4.48,0,0,0-.79,2.5,9.55,9.55,0,0,0,1.22,4.35,11.6,11.6,0,0,0,.81,1.29A15.19,15.19,0,0,1,8,14.62c.23.42.69.6.88,1.06.1.24.43.38.62.6a15.41,15.41,0,0,0,5,4c.38.18.71.51,1.22.41a5.3,5.3,0,0,0,2.24-1,40.89,40.89,0,0,0,3.32-2.85,21.54,21.54,0,0,0,1.89-2.26,20.86,20.86,0,0,0,1.33-1.9,12.14,12.14,0,0,0,1.31-3.13,5.68,5.68,0,0,0,0-3.39,4.67,4.67,0,0,0-1.89-2.36A5.3,5.3,0,0,0,20.35,2.7,2.76,2.76,0,0,0,19,3c-.34.23-.78.31-1.14.51a5.92,5.92,0,0,0-2.08,2c-.1.16-.18.16-.32,0a9.3,9.3,0,0,0-1.05-1.21A7,7,0,0,0,12.6,3.23,4.86,4.86,0,0,0,10.5,2.77ZM8.57,26.83a5.43,5.43,0,0,0,.92,3,2.75,2.75,0,0,0,4.7-.25,4.89,4.89,0,0,0,.72-3.81A3.88,3.88,0,0,0,13.15,23a2.33,2.33,0,0,0-2.45-.07A4.39,4.39,0,0,0,8.57,26.83Zm.4-6.9a2.47,2.47,0,0,0-.65-1.75,2.14,2.14,0,0,0-3-.34,4.27,4.27,0,0,0-1.35,4.67,2.2,2.2,0,0,0,3.59.91A4.08,4.08,0,0,0,9,19.93Z" transform="translate(-3.69 -1)"/><path class="cls-1" d="M8.57,26.83a4.39,4.39,0,0,1,2.13-3.9,2.33,2.33,0,0,1,2.45.07,3.88,3.88,0,0,1,1.76,2.74,4.89,4.89,0,0,1-.72,3.81,2.75,2.75,0,0,1-4.7.25A5.43,5.43,0,0,1,8.57,26.83Z" transform="translate(-3.69 -1)"/><path class="cls-1" d="M16.48,26.5a5.41,5.41,0,0,1,.8-2.88,2.7,2.7,0,0,1,3.07-1.24,3.5,3.5,0,0,1,2,1.81,5.07,5.07,0,0,1,.29,4.1,3.25,3.25,0,0,1-2.32,2.3,2.37,2.37,0,0,1-1.8-.31A4.44,4.44,0,0,1,16.48,26.5Z" transform="translate(-3.69 -1)"/><path class="cls-1" d="M9,19.93a4.08,4.08,0,0,1-1.45,3.49,2.2,2.2,0,0,1-3.59-.91,4.27,4.27,0,0,1,1.35-4.67,2.14,2.14,0,0,1,3,.34A2.47,2.47,0,0,1,9,19.93Z" transform="translate(-3.69 -1)"/><path class="cls-1" d="M23,20.39a2.93,2.93,0,0,1,1.23-2.64,2.27,2.27,0,0,1,2.48.19,4.06,4.06,0,0,1,1.39,4.43,2.21,2.21,0,0,1-3.24,1.35A4,4,0,0,1,23,20.39Z" transform="translate(-3.69 -1)"/></svg>